<?xml version="1.0" encoding="UTF-8" standalone="no"?>
<svg
   xmlns:dc="http://purl.org/dc/elements/1.1/"
   xmlns:cc="http://creativecommons.org/ns#"
   xmlns:rdf="http://www.w3.org/1999/02/22-rdf-syntax-ns#"
   xmlns:svg="http://www.w3.org/2000/svg"
   xmlns="http://www.w3.org/2000/svg"
   xmlns:xlink="http://www.w3.org/1999/xlink"
   xmlns:sodipodi="http://sodipodi.sourceforge.net/DTD/sodipodi-0.dtd"
   xmlns:inkscape="http://www.inkscape.org/namespaces/inkscape"
   width="150"
   height="150"
   id="svg2"
   version="1.1"
   inkscape:version="0.91 r13725"
   sodipodi:docname="article.svg">
  <metadata
     id="metadata80">
    <rdf:RDF>
      <cc:Work
         rdf:about="">
        <dc:format>image/svg+xml</dc:format>
        <dc:type
           rdf:resource="http://purl.org/dc/dcmitype/StillImage" />
      </cc:Work>
    </rdf:RDF>
  </metadata>
  <sodipodi:namedview
     pagecolor="#ffffff"
     bordercolor="#666666"
     borderopacity="1"
     objecttolerance="10"
     gridtolerance="10"
     guidetolerance="10"
     inkscape:pageopacity="0"
     inkscape:pageshadow="2"
     inkscape:window-width="1879"
     inkscape:window-height="1056"
     id="namedview78"
     showgrid="false"
     inkscape:zoom="1.5733334"
     inkscape:cx="353.65775"
     inkscape:cy="-77.533023"
     inkscape:window-x="41"
     inkscape:window-y="24"
     inkscape:window-maximized="1"
     inkscape:current-layer="g73" />
  <!-- Created with SVG-edit - http://svg-edit.googlecode.com/ -->
  <defs
     id="defs4">
    <svg
       id="svg_1"
       height="150"
       width="150"
       version="1.1">
      <!-- Created with SVG-edit - http://svg-edit.googlecode.com/ -->
      <defs
         id="defs7">
        <svg
           id="svg_42"
           x="0px"
           y="0px"
           viewBox="0 0 465 465"
           version="1.1">
          <g
             id="g10">
            <path
               d="m405.437012,0h-10c-4.143005,0 -7.5,3.358 -7.5,7.5s3.356995,7.5 7.5,7.5h2.5v435h-2.5c-4.143005,0 -7.5,3.358002 -7.5,7.5s3.356995,7.5 7.5,7.5h10c4.143005,0 7.5,-3.358002 7.5,-7.5v-450c0,-4.142 -3.358002,-7.5 -7.5,-7.5z"
               id="path12" />
            <path
               d="m315.437012,140h-205.874008c-4.14299,0 -7.5,3.358002 -7.5,7.5s3.35701,7.5 7.5,7.5h205.873001c4.143005,0 7.5,-3.358002 7.5,-7.5s-3.356995,-7.5 -7.498993,-7.5z"
               id="path14" />
            <path
               d="m315.437012,260h-205.874008c-4.14299,0 -7.5,3.358002 -7.5,7.5s3.35701,7.5 7.5,7.5h205.873001c4.143005,0 7.5,-3.358002 7.5,-7.5s-3.356995,-7.5 -7.498993,-7.5z"
               id="path16" />
            <path
               d="m315.437012,300h-82.937012c-4.143005,0 -7.5,3.358002 -7.5,7.5s3.356995,7.5 7.5,7.5h82.936981c4.143005,0 7.5,-3.358002 7.5,-7.5s-3.357971,-7.5 -7.499969,-7.5z"
               id="path18" />
            <path
               d="m365.437012,0h-235.874008c-0.251007,0 -0.501007,0.013 -0.749008,0.038c-0.18399,0.019 -0.36499,0.05 -0.544998,0.082c-0.059998,0.011 -0.121994,0.016 -0.181992,0.028c-0.215004,0.043 -0.425003,0.098 -0.632004,0.159c-0.025002,0.008 -0.052002,0.012 -0.077003,0.02c-0.211998,0.064 -0.418999,0.141 -0.623001,0.223c-0.021996,0.009 -0.043999,0.015 -0.065994,0.024c-0.195,0.081 -0.383003,0.172 -0.569,0.269c-0.031006,0.016 -0.064003,0.029 -0.094002,0.045c-0.173004,0.093 -0.339005,0.196 -0.503998,0.301c-0.042,0.027 -0.086006,0.049 -0.127007,0.077c-0.153999,0.103 -0.299995,0.216 -0.445999,0.33c-0.047997,0.038 -0.098,0.07 -0.144997,0.109c-0.173004,0.142 -0.337997,0.293 -0.498001,0.451c-0.014999,0.015 -0.030998,0.027 -0.045998,0.042l-70.000004,69.999998c-0.017998,0.018005 -0.032997,0.039001 -0.050999,0.056999c-0.153,0.156006 -0.300999,0.317001 -0.439999,0.486c-0.044003,0.054001 -0.082001,0.112 -0.125,0.167c-0.108002,0.138 -0.215,0.277 -0.313,0.423004c-0.033001,0.048996 -0.060001,0.100998 -0.092003,0.151001c-0.099998,0.156998 -0.198997,0.314995 -0.286999,0.479996c-0.02,0.037003 -0.035,0.075005 -0.054001,0.112c-0.092999,0.181 -0.181999,0.362999 -0.260998,0.552002c-0.011002,0.026001 -0.019001,0.054001 -0.030003,0.081001c-0.079998,0.199997 -0.154999,0.402 -0.217999,0.610001c-0.007999,0.026001 -0.013,0.053001 -0.021,0.080002c-0.061001,0.206993 -0.116001,0.416 -0.158001,0.629997c-0.011997,0.058998 -0.016998,0.119003 -0.027,0.178001c-0.031998,0.181999 -0.063999,0.362999 -0.081997,0.548996c-0.025002,0.248001 -0.038002,0.498001 -0.038002,0.749001v379.999992c0,4.141998 3.356998,7.5 7.5,7.5h305.873005c4.143005,0 7.5,-3.358002 7.5,-7.5v-450.002981c0.001007,-4.142 -3.356995,-7.5 -7.498993,-7.5l0,-0.00001zm-243.374008,25.606001v44.393999h-44.393005l44.393005,-44.393999zm235.874008,424.393999h-290.874008v-365h62.5c4.14299,0 7.5,-3.358002 7.5,-7.5v-62.5h220.873001v435l0.001007,0l0,0z"
               id="path20" />
            <path
               d="m159.563004,85h155.873001c4.143005,0 7.5,-3.358002 7.5,-7.5s-3.356995,-7.5 -7.5,-7.5h-155.873001c-4.143005,0 -7.5,3.358002 -7.5,7.5s3.358002,7.5 7.5,7.5z"
               id="path22" />
            <path
               d="m315.437012,180h-82.937012c-4.143005,0 -7.5,3.358002 -7.5,7.5s3.356995,7.5 7.5,7.5h82.936981c4.143005,0 7.5,-3.358002 7.5,-7.5s-3.357971,-7.5 -7.499969,-7.5z"
               id="path24" />
            <path
               d="m315.437012,220h-82.937012c-4.143005,0 -7.5,3.358002 -7.5,7.5s3.356995,7.5 7.5,7.5h82.936981c4.143005,0 7.5,-3.358002 7.5,-7.5s-3.357971,-7.5 -7.499969,-7.5z"
               id="path26" />
            <path
               d="m192.5,315c4.143005,0 7.5,-3.358002 7.5,-7.5s-3.356995,-7.5 -7.5,-7.5h-82.936996c-4.143005,0 -7.5,3.358002 -7.5,7.5v80c0,4.141998 3.356995,7.5 7.5,7.5h82.936996c4.143005,0 7.5,-3.358002 7.5,-7.5v-50c0,-4.141998 -3.356995,-7.5 -7.5,-7.5s-7.5,3.358002 -7.5,7.5v42.5h-67.936996v-65h75.436996l0,0z"
               id="path28" />
            <path
               d="m109.563004,235h82.936996c4.143005,0 7.5,-3.358002 7.5,-7.5s-3.356995,-7.5 -7.5,-7.5h-82.936996c-4.14299,0 -7.5,3.358002 -7.5,7.5s3.357994,7.5 7.5,7.5z"
               id="path30" />
            <path
               d="m265.437012,380h-32.937012c-4.143005,0 -7.5,3.358002 -7.5,7.5s3.356995,7.5 7.5,7.5h32.937012c4.142975,0 7.5,-3.358002 7.5,-7.5s-3.358002,-7.5 -7.5,-7.5z"
               id="path32" />
            <path
               d="m315.437012,340h-82.937012c-4.143005,0 -7.5,3.358002 -7.5,7.5s3.356995,7.5 7.5,7.5h82.936981c4.143005,0 7.5,-3.358002 7.5,-7.5s-3.357971,-7.5 -7.499969,-7.5z"
               id="path34" />
            <path
               d="m109.563004,195h82.936996c4.143005,0 7.5,-3.358002 7.5,-7.5s-3.356995,-7.5 -7.5,-7.5h-82.936996c-4.14299,0 -7.5,3.358002 -7.5,7.5s3.357994,7.5 7.5,7.5z"
               id="path36" />
          </g>
          <g
             id="g38" />
          <g
             id="g40" />
          <g
             id="g42" />
          <g
             id="g44" />
          <g
             id="g46" />
          <g
             id="g48" />
          <g
             id="g50" />
          <g
             id="g52" />
          <g
             id="g54" />
          <g
             id="g56" />
          <g
             id="g58" />
          <g
             id="g60" />
          <g
             id="g62" />
          <g
             id="g64" />
          <g
             id="g66" />
        </svg>
      </defs>
      <g
         id="g68">
        <title
           id="title70">Layer 1</title>
        <use
           xlink:href="#svg_42"
           id="svg_43"
           transform="matrix(0.982853, 0, 0, 0.982853, -10.4061, 0.319072)"
           y="0.508723"
           x="11.895372"
           fill="#999999" />
      </g>
    </svg>
  </defs>
  <g
     id="g73">
    <title
       id="title75">Ebene 1</title>
    <use
       x="-0.83665901"
       y="0.50278097"
       transform="matrix(0.96804461,0,0,0.96804461,3.24803,1.329249)"
       id="svg_2"
       xlink:href="#svg_1"
       width="100%"
       height="100%" />
    <path
       style="fill:#ffffff;stroke:#666666;stroke-width:0.31779662"
       d="m 33.271035,16.4576 c 3.667429,-3.670551 6.705083,-6.6737289 6.75034,-6.6737289 0.04526,0 0.08229,3.0031779 0.08229,6.6737289 l 0,6.673729 -6.75034,0 -6.75034,0 6.668053,-6.673729 z"
       id="path3063"
       inkscape:connector-curvature="0" />
  </g>
</svg>
