<?xml version="1.0" encoding="UTF-8" standalone="no"?>
<svg
   xmlns:dc="http://purl.org/dc/elements/1.1/"
   xmlns:cc="http://creativecommons.org/ns#"
   xmlns:rdf="http://www.w3.org/1999/02/22-rdf-syntax-ns#"
   xmlns:svg="http://www.w3.org/2000/svg"
   xmlns="http://www.w3.org/2000/svg"
   xmlns:sodipodi="http://sodipodi.sourceforge.net/DTD/sodipodi-0.dtd"
   xmlns:inkscape="http://www.inkscape.org/namespaces/inkscape"
   width="150"
   height="150"
   id="svg2"
   version="1.1"
   inkscape:version="0.48.4 r9939"
   sodipodi:docname="book.svg">
  <metadata
     id="metadata29">
    <rdf:RDF>
      <cc:Work
         rdf:about="">
        <dc:format>image/svg+xml</dc:format>
        <dc:type
           rdf:resource="http://purl.org/dc/dcmitype/StillImage" />
      </cc:Work>
    </rdf:RDF>
  </metadata>
  <defs
     id="defs27" />
  <sodipodi:namedview
     pagecolor="#ffffff"
     bordercolor="#666666"
     borderopacity="1"
     objecttolerance="10"
     gridtolerance="10"
     guidetolerance="10"
     inkscape:pageopacity="0"
     inkscape:pageshadow="2"
     inkscape:window-width="1871"
     inkscape:window-height="1056"
     id="namedview25"
     showgrid="false"
     inkscape:object-paths="true"
     inkscape:zoom="4.4500587"
     inkscape:cx="6.0815214"
     inkscape:cy="66.900669"
     inkscape:window-x="49"
     inkscape:window-y="24"
     inkscape:window-maximized="1"
     inkscape:current-layer="svg2" />
  <g
     id="g4"
     style="stroke:#000000;stroke-opacity:0">
    <title
       id="title6">Layer 1</title>
    <g
       id="svg_1"
       style="stroke:#000000;stroke-opacity:0">
      <path
         id="svg_2"
         d="m32.30817,118.448067h99.138577c0.303528,0 0.597626,-0.043083 0.880234,-0.110558c0.022507,0 0.041183,0.003784 0.06369,0.003784c2.116333,0 3.835632,-1.7174 3.835632,-3.83532v-108.408108c0.000336,-2.117279 -1.719299,-3.835629 -3.835632,-3.835629h-0.936325h-93.011692h-6.129093c-10.209366,0 -18.513721,8.306274 -18.513721,18.512792c0,0.136873 0.02692,0.266794 0.040228,0.398928c-0.013308,9.428274 -0.130239,96.062418 -0.013308,107.451502c-0.007296,0.222748 -0.034534,0.440094 -0.034534,0.665085c0,9.814224 7.68458,17.848633 17.350515,18.455765c0.193918,0.02977 0.384033,0.057968 0.585257,0.057968h100.662352c2.116333,0 3.835663,-1.717392 3.835663,-3.835648v-14.437897c0,-2.116669 -1.719635,-3.835655 -3.835663,-3.835655s-3.835632,1.719307 -3.835632,3.835655v10.60257h-96.246548c-5.828718,0 -10.586748,-4.627777 -10.820587,-10.398514c0.005695,-0.102997 0.024405,-0.200272 0.022484,-0.30513c-0.003799,-0.168549 -0.009493,-0.430634 -0.013292,-0.77919c0.335249,-5.679482 5.049215,-10.2024 10.811396,-10.2024zm2.615387,-97.673038c0,-2.11729 1.718372,-3.835644 3.835663,-3.835644s3.835644,1.718353 3.835644,3.835644v77.912151c0,2.116325 -1.718376,3.835632 -3.835644,3.835632s-3.835663,-1.71962 -3.835663,-3.835632v-77.912151l0,0z"
         stroke-width="3"
         stroke="#FFFFFF"
         fill="#999999"
         style="stroke:#000000;stroke-opacity:0" />
    </g>
    <g
       id="svg_3"
       style="stroke:#000000;stroke-opacity:0" />
    <g
       id="svg_4"
       style="stroke:#000000;stroke-opacity:0" />
    <g
       id="svg_5"
       style="stroke:#000000;stroke-opacity:0" />
    <g
       id="svg_6"
       style="stroke:#000000;stroke-opacity:0" />
    <g
       id="svg_7"
       style="stroke:#000000;stroke-opacity:0" />
    <g
       id="svg_8"
       style="stroke:#000000;stroke-opacity:0" />
    <g
       id="svg_9"
       style="stroke:#000000;stroke-opacity:0" />
    <g
       id="svg_10"
       style="stroke:#000000;stroke-opacity:0" />
    <g
       id="svg_11"
       style="stroke:#000000;stroke-opacity:0" />
    <g
       id="svg_12"
       style="stroke:#000000;stroke-opacity:0" />
    <g
       id="svg_13"
       style="stroke:#000000;stroke-opacity:0" />
    <g
       id="svg_14"
       style="stroke:#000000;stroke-opacity:0" />
    <g
       id="svg_15"
       style="stroke:#000000;stroke-opacity:0" />
    <g
       id="svg_16"
       style="stroke:#000000;stroke-opacity:0" />
    <g
       id="svg_17"
       style="stroke:#000000;stroke-opacity:0" />
  </g>
  <path
     style="fill:#ffffff;fill-opacity:0;stroke:#ffffff;stroke-width:0.22471614000000001;stroke-opacity:0"
     d="m 38.144949,100.86835 c -0.273867,-0.0499 -0.754198,-0.39518 -1.067402,-0.7674 l -0.56946,-0.676767 0,-39.54396 c 0,-42.662612 -0.05953,-40.461472 1.111133,-41.087989 0.768642,-0.411365 1.964279,-0.270558 2.640331,0.310943 l 0.6305,0.542321 0.05802,39.900977 0.05802,39.90098 -0.61981,0.658085 c -0.635726,0.675 -1.363331,0.92263 -2.241332,0.76281 l 0,0 z"
     id="path3784"
     inkscape:connector-curvature="0" />
</svg>
