<?xml version="1.0" encoding="UTF-8"?>
<svg width="150" height="150" xmlns="http://www.w3.org/2000/svg" xmlns:xlink="http://www.w3.org/1999/xlink">
 <g>
  <title>Layer 1</title>
  <use opacity="0.4" x="-60.9493" y="-54.184769" transform="matrix(0.183684, 0, 0, 0.183684, 13.1778, 11.9343)" id="svg_125" xlink:href="#svg_124"/>
 </g>
 <defs>
  <svg viewBox="0 0 795.035 795.035" height="795.035px" width="795.035px" y="0px" x="0px" xmlns:xlink="http://www.w3.org/1999/xlink" id="svg_124">
   <g>
    <path d="m0,647.588989c0,49.892029 40.588001,90.479004 90.478996,90.479004h20.108002h552.078957h40.210999h41.89502v-40.212036h-41.89502v-100.533936h41.89502v-17.593994h20.104004h30.159973v-40.212036h-30.159973v-100.526978h30.159973v-40.210999h-30.159973h-2.513v-13.394989v-20.107025v-0.862976l-49.646973,-92.992004h52.16095v-54.072998l-131.211975,-160.380024h-462.926971l-119.382008,188.106998c-20.417,16.611984 -33.759998,41.625015 -33.759998,69.935013c0,49.580994 40.113998,89.889984 89.593002,90.382996c-33.291,13.371979 -56.922001,45.846985 -56.922001,83.863983c0,27.604034 12.688,52.04599 32.242001,68.655975c-46.114002,4.109009 -82.509003,42.513062 -82.509003,89.676025zm57.806,-332.578979c0,-18.75 10.429001,-34.945984 25.686005,-43.585999h599.278015v93.854004h-574.696022c-27.714996,-0.002014 -50.267998,-22.558014 -50.267998,-50.268005zm82.940994,123.980988h20.106003h563.80899v100.52597h-563.80899h-20.106003c-27.714996,0 -50.267998,-22.540955 -50.267998,-50.259979c0.001007,-27.72699 22.553001,-50.265991 50.267998,-50.265991zm-50.266991,158.331024h20.108002h552.078987v100.53302h-552.080025h-20.107971c-27.712997,0 -50.264999,-22.541016 -50.264999,-50.267029c0.000004,-27.726013 22.553001,-50.265991 50.266006,-50.265991z"/>
   </g>
   <g/>
   <g/>
   <g/>
   <g/>
   <g/>
   <g/>
   <g/>
   <g/>
   <g/>
   <g/>
   <g/>
   <g/>
   <g/>
   <g/>
   <g/>
  </svg>
 </defs>
</svg>