<?xml version="1.0" encoding="UTF-8" standalone="no"?>
<!-- Generator: Adobe Illustrator 18.1.1, SVG Export Plug-In . SVG Version: 6.00 Build 0)  -->

<svg
   xmlns:dc="http://purl.org/dc/elements/1.1/"
   xmlns:cc="http://creativecommons.org/ns#"
   xmlns:rdf="http://www.w3.org/1999/02/22-rdf-syntax-ns#"
   xmlns:svg="http://www.w3.org/2000/svg"
   xmlns="http://www.w3.org/2000/svg"
   xmlns:sodipodi="http://sodipodi.sourceforge.net/DTD/sodipodi-0.dtd"
   xmlns:inkscape="http://www.inkscape.org/namespaces/inkscape"
   version="1.1"
   id="Capa_1"
   x="0px"
   y="0px"
   viewBox="0 0 150 150"
   xml:space="preserve"
   inkscape:version="0.48.4 r9939"
   width="100%"
   height="100%"
   sodipodi:docname="braille.svg"><metadata
     id="metadata71"><rdf:RDF><cc:Work
         rdf:about=""><dc:format>image/svg+xml</dc:format><dc:type
           rdf:resource="http://purl.org/dc/dcmitype/StillImage" /></cc:Work></rdf:RDF></metadata><defs
     id="defs69" /><sodipodi:namedview
     pagecolor="#ffffff"
     bordercolor="#666666"
     borderopacity="1"
     objecttolerance="10"
     gridtolerance="10"
     guidetolerance="10"
     inkscape:pageopacity="0"
     inkscape:pageshadow="2"
     inkscape:window-width="1631"
     inkscape:window-height="1026"
     id="namedview67"
     showgrid="false"
     inkscape:zoom="2.6488444"
     inkscape:cx="251.28739"
     inkscape:cy="42.089523"
     inkscape:window-x="49"
     inkscape:window-y="24"
     inkscape:window-maximized="1"
     inkscape:current-layer="Capa_1" /><g
     id="g3"
     transform="matrix(0.27941025,0,0,0.27941025,5.2462415,6.9120952)"
     style="fill:#999999"><g
       id="g5"
       style="fill:#999999"><g
         id="g7"
         style="fill:#999999"><path
           style="fill:#999999"
           d="m 100.952,446 c 9.333,-4.667 14,-11.667 14,-21 0,-16.667 -10.667,-25 -32,-25 h -50 v 102 h 51 c 10,0 18.5,-2.667 25.5,-8 7,-5.333 10.5,-12.667 10.5,-22 0,-14 -6.333,-22.667 -19,-26 z m -48,-26 h 26 c 10,0 15,3.333 15,10 0,7.333 -4.667,11 -14,11 h -27 v -21 z m 29,62 h -29 v -31 h 29 c 10.667,0 16,5.333 16,16 0,10 -5.333,15 -16,15 z"
           id="path9"
           inkscape:connector-curvature="0" /><path
           style="fill:#999999"
           d="m 180.952,426 c -13.333,0 -21.667,5 -25,15 v -11 h -21 v 72 h 21 v -34 c 0,-6.667 1.833,-12.167 5.5,-16.5 3.667,-4.333 8.833,-6.5 15.5,-6.5 h 2.5 7.5 v -18 c 0,-0.667 -2,-1 -6,-1 z"
           id="path11"
           inkscape:connector-curvature="0" /><path
           style="fill:#999999"
           d="m 259.952,495.5 c -1.334,-4.333 -2,-8.167 -2,-11.5 v -37 c 0,-14 -10,-21 -30,-21 -21.333,0 -32.333,8.333 -33,25 h 20 c 0.667,-7.333 5,-11 13,-11 8.667,0 13,3 13,9 0,1.333 -0.333,2.333 -1,3 l -2,2 c -0.667,0.667 -1.5,1.167 -2.5,1.5 -1,0.333 -2.333,0.667 -4,1 -1.667,0.333 -3,0.667 -4,1 -1,0.333 -2.667,0.5 -5,0.5 -2.333,0 -4.167,0.333 -5.5,1 -16,2 -24,9.333 -24,22 0,14 8,21 24,21 10.667,0 18.667,-2.667 24,-8 0.667,5.333 1.333,8 2,8 h 20 c -0.668,0 -1.668,-2.167 -3,-6.5 z m -22,-23.5 c 0,11.333 -5,17 -15,17 -7.333,0 -11,-3 -11,-9 0,-6 3.667,-9.667 11,-11 10,-2 15,-3.333 15,-4 v 7 z"
           id="path13"
           inkscape:connector-curvature="0" /><rect
           x="280.952"
           y="401"
           style="fill:#999999"
           width="20"
           height="16"
           id="rect15" /><rect
           x="278.952"
           y="430"
           style="fill:#999999"
           width="20"
           height="72"
           id="rect17" /><rect
           x="319.952"
           y="400"
           style="fill:#999999"
           width="20"
           height="102"
           id="rect19" /><rect
           x="360.952"
           y="400"
           style="fill:#999999"
           width="20"
           height="102"
           id="rect21" /><path
           style="fill:#999999"
           d="m 462.452,441.5 c -6.332,-9 -15.166,-13.5 -26.5,-13.5 -10.668,0 -19.5,3.5 -26.5,10.5 -7,7 -10.5,15.833 -10.5,26.5 0,11.333 3.332,20.667 10,28 6.666,7.333 15.666,11 27,11 14,0 25.332,-7.333 34,-22 h -18 l -2.5,2 c -1.668,1.333 -3.668,2.667 -6,4 -2.334,1.333 -4.5,2 -6.5,2 -11.334,0 -17.334,-6.333 -18,-19 h 52 c 0.67,-10.667 -2.164,-20.5 -8.5,-29.5 z m -43.5,19.5 c 0,-10 5.332,-15 16,-15 8.666,0 14,5 16,15 h -32 z"
           id="path23"
           inkscape:connector-curvature="0" /><path
           style="fill:#999999"
           d="m 140.452,359 c 9.667,0 18,-3.5 25,-10.5 7,-7 10.5,-15.5 10.5,-25.5 0,-10 -3.5,-18.5 -10.5,-25.5 -7,-7 -15.333,-10.5 -25,-10.5 -9.667,0 -18,3.5 -25,10.5 -7,7 -10.5,15.5 -10.5,25.5 0,10 3.5,18.5 10.5,25.5 7,7 15.333,10.5 25,10.5 z"
           id="path25"
           inkscape:connector-curvature="0" /><path
           style="fill:#999999"
           d="m 140.452,215 c 9.667,0 18,-3.5 25,-10.5 7,-7 10.5,-15.333 10.5,-25 0,-9.667 -3.5,-18 -10.5,-25 -7,-7 -15.333,-10.5 -25,-10.5 -9.667,0 -18,3.5 -25,10.5 -7,7 -10.5,15.333 -10.5,25 0,9.667 3.5,18 10.5,25 7,7 15.333,10.5 25,10.5 z"
           id="path27"
           inkscape:connector-curvature="0" /><path
           style="fill:#999999"
           d="m 140.452,72 c 9.667,0 18,-3.5 25,-10.5 7,-7 10.5,-15.5 10.5,-25.5 0,-10 -3.5,-18.5 -10.5,-25.5 -7,-7 -15.333,-10.5 -25,-10.5 -9.667,0 -18,3.5 -25,10.5 -7,7 -10.5,15.5 -10.5,25.5 0,10 3.5,18.5 10.5,25.5 7,7 15.333,10.5 25,10.5 z"
           id="path29"
           inkscape:connector-curvature="0" /><path
           style="fill:#999999"
           d="m 355.452,287 c -9.668,0 -18,3.5 -25,10.5 -7,7 -10.5,15.5 -10.5,25.5 0,10 3.5,18.5 10.5,25.5 7,7 15.332,10.5 25,10.5 9.666,0 18,-3.5 25,-10.5 7,-7 10.5,-15.5 10.5,-25.5 0,-10 -3.5,-18.5 -10.5,-25.5 -7,-7 -15.334,-10.5 -25,-10.5 z"
           id="path31"
           inkscape:connector-curvature="0" /><path
           style="fill:#999999"
           d="m 355.452,144 c -9.668,0 -18,3.5 -25,10.5 -7,7 -10.5,15.333 -10.5,25 0,9.667 3.5,18 10.5,25 7,7 15.332,10.5 25,10.5 9.666,0 18,-3.5 25,-10.5 7,-7 10.5,-15.333 10.5,-25 0,-9.667 -3.5,-18 -10.5,-25 -7,-7 -15.334,-10.5 -25,-10.5 z"
           id="path33"
           inkscape:connector-curvature="0" /><path
           style="fill:#999999"
           d="m 355.452,0 c -9.668,0 -18,3.5 -25,10.5 -7,7 -10.5,15.5 -10.5,25.5 0,10 3.5,18.5 10.5,25.5 7,7 15.332,10.5 25,10.5 9.666,0 18,-3.5 25,-10.5 7,-7 10.5,-15.5 10.5,-25.5 0,-10 -3.5,-18.5 -10.5,-25.5 -7,-7 -15.334,-10.5 -25,-10.5 z"
           id="path35"
           inkscape:connector-curvature="0" /></g></g></g><g
     id="g37"
     transform="translate(0,-354)" /><g
     id="g39"
     transform="translate(0,-354)" /><g
     id="g41"
     transform="translate(0,-354)" /><g
     id="g43"
     transform="translate(0,-354)" /><g
     id="g45"
     transform="translate(0,-354)" /><g
     id="g47"
     transform="translate(0,-354)" /><g
     id="g49"
     transform="translate(0,-354)" /><g
     id="g51"
     transform="translate(0,-354)" /><g
     id="g53"
     transform="translate(0,-354)" /><g
     id="g55"
     transform="translate(0,-354)" /><g
     id="g57"
     transform="translate(0,-354)" /><g
     id="g59"
     transform="translate(0,-354)" /><g
     id="g61"
     transform="translate(0,-354)" /><g
     id="g63"
     transform="translate(0,-354)" /><g
     id="g65"
     transform="translate(0,-354)" /></svg>