<?xml version="1.0" encoding="UTF-8" standalone="no"?>
<!-- Generator: Adobe Illustrator 16.0.0, SVG Export Plug-In . SVG Version: 6.00 Build 0)  -->

<svg
   xmlns:dc="http://purl.org/dc/elements/1.1/"
   xmlns:cc="http://creativecommons.org/ns#"
   xmlns:rdf="http://www.w3.org/1999/02/22-rdf-syntax-ns#"
   xmlns:svg="http://www.w3.org/2000/svg"
   xmlns="http://www.w3.org/2000/svg"
   xmlns:sodipodi="http://sodipodi.sourceforge.net/DTD/sodipodi-0.dtd"
   xmlns:inkscape="http://www.inkscape.org/namespaces/inkscape"
   version="1.1"
   id="Capa_1"
   x="0px"
   y="0px"
   width="150"
   height="150"
   viewBox="0 0 150 150"
   xml:space="preserve"
   inkscape:version="0.48.4 r9939"
   sodipodi:docname="cassette.svg"><metadata
     id="metadata45"><rdf:RDF><cc:Work
         rdf:about=""><dc:format>image/svg+xml</dc:format><dc:type
           rdf:resource="http://purl.org/dc/dcmitype/StillImage" /></cc:Work></rdf:RDF></metadata><defs
     id="defs43" /><sodipodi:namedview
     pagecolor="#ffffff"
     bordercolor="#666666"
     borderopacity="1"
     objecttolerance="10"
     gridtolerance="10"
     guidetolerance="10"
     inkscape:pageopacity="0"
     inkscape:pageshadow="2"
     inkscape:window-width="1631"
     inkscape:window-height="1026"
     id="namedview41"
     showgrid="false"
     inkscape:zoom="4.4826627"
     inkscape:cx="191.91047"
     inkscape:cy="64.486271"
     inkscape:window-x="49"
     inkscape:window-y="24"
     inkscape:window-maximized="1"
     inkscape:current-layer="Capa_1" /><g
     id="g3"
     transform="matrix(1.0044944,0,0,1.0112358,0,-0.3032544)"
     style="fill:#999999"><g
       id="g5"
       style="fill:#999999"><path
         d="m 133.422,24.818 h -6.681 c -3.224,0 -7.106,2.429 -8.669,5.251 l -9.242,16.134 c -1.864,3.362 -5.406,4.893 -9.252,4.893 H 47.429 c -3.845,0 -7.386,-1.458 -9.25,-4.821 L 28.924,29.749 c -1.564,-2.82 -5.447,-4.931 -8.67,-4.931 H 13.563 C 5.774,24.818 0,31.417 0,39.2 v 70.504 c 0,7.787 5.774,14.387 13.562,14.387 h 119.86 c 7.785,0 15.486,-6.6 15.486,-14.387 V 39.2 c 0,-7.783 -7.701,-14.382 -15.486,-14.382 z M 38.385,91.151 c -5.833,0 -10.577,-4.746 -10.577,-10.579 0,-5.831 4.744,-10.578 10.577,-10.578 5.833,0 10.574,4.745 10.574,10.578 0,5.833 -4.744,10.579 -10.574,10.579 z M 89.929,85.23 c 0,2.837 -2.299,5.137 -5.137,5.137 H 61.507 c -2.835,0 -5.137,-2.3 -5.137,-5.137 v -9.8 c 0,-2.838 2.302,-5.139 5.137,-5.139 h 23.285 c 2.838,0 5.137,2.301 5.137,5.139 v 9.8 z m 18.082,5.921 c -5.833,0 -10.577,-4.746 -10.577,-10.579 0,-5.831 4.742,-10.578 10.577,-10.578 5.828,0 10.573,4.745 10.573,10.578 0,5.833 -4.745,10.579 -10.573,10.579 z"
         id="path7"
         inkscape:connector-curvature="0"
         style="fill:#999999" /><path
         d="m 44.601,36.88 c 1.565,2.824 5.444,5.457 8.67,5.457 h 40.467 c 3.226,0 7.105,-2.565 8.666,-5.387 l 3.579,-6.745 c 1.562,-2.819 0.214,-5.387 -3.012,-5.387 H 44.028 c -3.227,0 -4.573,2.427 -3.011,5.251 l 3.584,6.811 z"
         id="path9"
         inkscape:connector-curvature="0"
         style="fill:#999999" /></g></g><g
     id="g11"
     transform="translate(0,1.0910034)" /><g
     id="g13"
     transform="translate(0,1.0910034)" /><g
     id="g15"
     transform="translate(0,1.0910034)" /><g
     id="g17"
     transform="translate(0,1.0910034)" /><g
     id="g19"
     transform="translate(0,1.0910034)" /><g
     id="g21"
     transform="translate(0,1.0910034)" /><g
     id="g23"
     transform="translate(0,1.0910034)" /><g
     id="g25"
     transform="translate(0,1.0910034)" /><g
     id="g27"
     transform="translate(0,1.0910034)" /><g
     id="g29"
     transform="translate(0,1.0910034)" /><g
     id="g31"
     transform="translate(0,1.0910034)" /><g
     id="g33"
     transform="translate(0,1.0910034)" /><g
     id="g35"
     transform="translate(0,1.0910034)" /><g
     id="g37"
     transform="translate(0,1.0910034)" /><g
     id="g39"
     transform="translate(0,1.0910034)" /></svg>