<?xml version="1.0" encoding="UTF-8" standalone="no"?>
<!-- Generator: Adobe Illustrator 16.0.0, SVG Export Plug-In . SVG Version: 6.00 Build 0)  -->

<svg
   xmlns:dc="http://purl.org/dc/elements/1.1/"
   xmlns:cc="http://creativecommons.org/ns#"
   xmlns:rdf="http://www.w3.org/1999/02/22-rdf-syntax-ns#"
   xmlns:svg="http://www.w3.org/2000/svg"
   xmlns="http://www.w3.org/2000/svg"
   xmlns:sodipodi="http://sodipodi.sourceforge.net/DTD/sodipodi-0.dtd"
   xmlns:inkscape="http://www.inkscape.org/namespaces/inkscape"
   version="1.1"
   id="Capa_1"
   x="0px"
   y="0px"
   width="150"
   height="150"
   viewBox="0 0 150 150"
   xml:space="preserve"
   inkscape:version="0.48.4 r9939"
   sodipodi:docname="chart.svg"><metadata
     id="metadata49"><rdf:RDF><cc:Work
         rdf:about=""><dc:format>image/svg+xml</dc:format><dc:type
           rdf:resource="http://purl.org/dc/dcmitype/StillImage" /></cc:Work></rdf:RDF></metadata><defs
     id="defs47" /><sodipodi:namedview
     pagecolor="#ffffff"
     bordercolor="#666666"
     borderopacity="1"
     objecttolerance="10"
     gridtolerance="10"
     guidetolerance="10"
     inkscape:pageopacity="0"
     inkscape:pageshadow="2"
     inkscape:window-width="1631"
     inkscape:window-height="1026"
     id="namedview45"
     showgrid="false"
     inkscape:zoom="2.3144515"
     inkscape:cx="50.984001"
     inkscape:cy="50.984001"
     inkscape:window-x="49"
     inkscape:window-y="24"
     inkscape:window-maximized="1"
     inkscape:current-layer="Capa_1" /><g
     id="g3"
     transform="matrix(1.4727548,0,0,1.4727548,-7.2927806e-5,2.7576893)"
     style="fill:#999999"><g
       id="g5"
       style="fill:#999999"><path
         d="M 24.715,47.432 7.968,64.86 v 29.406 c 0,0.828 0.671,1.5 1.5,1.5 h 20.334 c 0.828,0 1.5,-0.672 1.5,-1.5 V 49.158 l -4.69,-1.726 h -1.897 z"
         id="path7"
         inkscape:connector-curvature="0"
         style="fill:#999999" /><path
         d="M 66.135,61.1 H 45.801 c -0.828,0 -1.5,0.672 -1.5,1.5 v 31.666 c 0,0.828 0.672,1.5 1.5,1.5 h 20.334 c 0.829,0 1.5,-0.672 1.5,-1.5 V 62.6 c 0,-0.828 -0.671,-1.5 -1.5,-1.5 z"
         id="path9"
         inkscape:connector-curvature="0"
         style="fill:#999999" /><path
         d="m 101.724,29.49 c -0.777,0.406 -1.652,0.621 -2.53,0.621 -1.276,0 -2.521,-0.45 -3.5,-1.27 L 92,25.753 78.635,40.333 v 53.934 c 0,0.828 0.672,1.5 1.5,1.5 h 20.334 c 0.829,0 1.5,-0.672 1.5,-1.5 v -64.93 c -0.084,0.05 -0.159,0.108 -0.245,0.153 z"
         id="path11"
         inkscape:connector-curvature="0"
         style="fill:#999999" /><path
         d="m 57.797,54.094 c 1.144,0.419 2.424,0.108 3.248,-0.788 l 30.839,-33.643 7.217,6.032 c 0.353,0.294 0.847,0.349 1.254,0.136 0.407,-0.214 0.646,-0.648 0.605,-1.107 L 99.396,7.235 C 99.341,6.61 98.79,6.149 98.165,6.206 L 80.675,7.769 C 80.217,7.81 79.829,8.123 79.693,8.56 79.646,8.706 79.631,8.854 79.644,9 79.67,9.294 79.811,9.572 80.047,9.769 L 87.276,15.812 57.98,47.769 24.535,35.463 c -1.118,-0.41 -2.373,-0.121 -3.198,0.735 l -20.5,21.333 c -1.148,1.195 -1.11,3.095 0.084,4.242 0.583,0.561 1.332,0.837 2.079,0.837 0.788,0 1.574,-0.309 2.164,-0.921 l 19.141,-19.92 33.492,12.325 z"
         id="path13"
         inkscape:connector-curvature="0"
         style="fill:#999999" /></g></g><g
     id="g15"
     transform="translate(0,48.031998)" /><g
     id="g17"
     transform="translate(0,48.031998)" /><g
     id="g19"
     transform="translate(0,48.031998)" /><g
     id="g21"
     transform="translate(0,48.031998)" /><g
     id="g23"
     transform="translate(0,48.031998)" /><g
     id="g25"
     transform="translate(0,48.031998)" /><g
     id="g27"
     transform="translate(0,48.031998)" /><g
     id="g29"
     transform="translate(0,48.031998)" /><g
     id="g31"
     transform="translate(0,48.031998)" /><g
     id="g33"
     transform="translate(0,48.031998)" /><g
     id="g35"
     transform="translate(0,48.031998)" /><g
     id="g37"
     transform="translate(0,48.031998)" /><g
     id="g39"
     transform="translate(0,48.031998)" /><g
     id="g41"
     transform="translate(0,48.031998)" /><g
     id="g43"
     transform="translate(0,48.031998)" /></svg>