<?xml version="1.0" encoding="UTF-8" standalone="no"?>
<!-- Generator: Adobe Illustrator 16.0.0, SVG Export Plug-In . SVG Version: 6.00 Build 0)  -->

<svg
   xmlns:dc="http://purl.org/dc/elements/1.1/"
   xmlns:cc="http://creativecommons.org/ns#"
   xmlns:rdf="http://www.w3.org/1999/02/22-rdf-syntax-ns#"
   xmlns:svg="http://www.w3.org/2000/svg"
   xmlns="http://www.w3.org/2000/svg"
   xmlns:sodipodi="http://sodipodi.sourceforge.net/DTD/sodipodi-0.dtd"
   xmlns:inkscape="http://www.inkscape.org/namespaces/inkscape"
   version="1.1"
   id="Capa_1"
   x="0px"
   y="0px"
   width="150"
   height="150"
   viewBox="0 0 150.00001 150.00001"
   xml:space="preserve"
   inkscape:version="0.48.4 r9939"
   sodipodi:docname="collection.svg"><metadata
     id="metadata41"><rdf:RDF><cc:Work
         rdf:about=""><dc:format>image/svg+xml</dc:format><dc:type
           rdf:resource="http://purl.org/dc/dcmitype/StillImage" /></cc:Work></rdf:RDF></metadata><defs
     id="defs39" /><sodipodi:namedview
     pagecolor="#ffffff"
     bordercolor="#666666"
     borderopacity="1"
     objecttolerance="10"
     gridtolerance="10"
     guidetolerance="10"
     inkscape:pageopacity="0"
     inkscape:pageshadow="2"
     inkscape:window-width="1631"
     inkscape:window-height="1026"
     id="namedview37"
     showgrid="false"
     inkscape:zoom="9.77124"
     inkscape:cx="61.535687"
     inkscape:cy="69.57106"
     inkscape:window-x="49"
     inkscape:window-y="24"
     inkscape:window-maximized="1"
     inkscape:current-layer="Capa_1" /><g
     id="g3"
     transform="matrix(0.27319727,0,0,0.27319727,0,2.1719552)"
     style="fill:#999999"><path
       d="M 0,446.434 H 128.195 V 100.087 H 0 v 346.347 z m 64.09,-64.658 c -16.143,0 -29.241,-13.087 -29.241,-29.235 0,-16.153 13.092,-29.234 29.241,-29.234 16.148,0 29.241,13.081 29.241,29.234 0,16.143 -13.093,29.235 -29.241,29.235 z M 28.49,133.831 H 96.334 V 258.829 H 28.49 V 133.831 z m 0,135.486 h 67.844 v 12.939 H 28.49 v -12.939 z m 8.993,-125.003 h 49.482 v 20.995 H 37.483 v -20.995 z m 112.071,302.12 H 277.75 V 100.087 H 149.554 v 346.347 z m 64.096,-64.658 c -16.143,0 -29.241,-13.087 -29.241,-29.235 0,-16.153 13.092,-29.234 29.241,-29.234 16.148,0 29.234,13.081 29.234,29.234 0.001,16.143 -13.086,29.235 -29.234,29.235 z M 178.044,133.831 h 67.844 V 258.829 H 178.044 V 133.831 z m 0,135.486 h 67.844 v 12.939 h -67.844 v -12.939 z m 8.993,-125.003 h 49.482 v 20.995 H 187.037 V 144.314 z M 412.364,88.773 294.178,138.423 428.317,457.735 546.508,408.096 412.364,88.773 z m -78.855,69.721 62.548,-26.273 48.421,115.248 -62.548,26.279 -48.421,-115.254 z m 52.475,124.933 62.548,-26.273 5.013,11.922 -62.548,26.279 -5.013,-11.928 z m 76.391,89.879 c -14.883,6.254 -32.024,-0.744 -38.277,-15.64 -6.254,-14.884 0.744,-32.013 15.628,-38.267 14.883,-6.26 32.024,0.733 38.277,15.628 6.248,14.884 -0.744,32.025 -15.628,38.279 z m -62.76,-208.426 -45.62,19.157 -8.133,-19.352 45.619,-19.154 8.134,19.349 z"
       id="path5"
       inkscape:connector-curvature="0"
       style="fill:#999999" /></g><g
     id="g7"
     transform="translate(0,-396.509)" /><g
     id="g9"
     transform="translate(0,-396.509)" /><g
     id="g11"
     transform="translate(0,-396.509)" /><g
     id="g13"
     transform="translate(0,-396.509)" /><g
     id="g15"
     transform="translate(0,-396.509)" /><g
     id="g17"
     transform="translate(0,-396.509)" /><g
     id="g19"
     transform="translate(0,-396.509)" /><g
     id="g21"
     transform="translate(0,-396.509)" /><g
     id="g23"
     transform="translate(0,-396.509)" /><g
     id="g25"
     transform="translate(0,-396.509)" /><g
     id="g27"
     transform="translate(0,-396.509)" /><g
     id="g29"
     transform="translate(0,-396.509)" /><g
     id="g31"
     transform="translate(0,-396.509)" /><g
     id="g33"
     transform="translate(0,-396.509)" /><g
     id="g35"
     transform="translate(0,-396.509)" /><path
     style="fill:#ffffff;stroke:#666666;stroke-width:0.10234115"
     d="m 7.8270484,77.54292 0,-1.7398 9.2107036,0 9.210705,0 0,1.7398 0,1.739799 -9.210705,0 -9.2107036,0 0,-1.739799 z"
     id="path3006"
     inkscape:connector-curvature="0" /><path
     style="fill:#ffffff;stroke:#666666;stroke-width:0.10234115"
     d="m 48.66117,77.54292 0,-1.7398 9.210704,0 9.210704,0 0,1.7398 0,1.739799 -9.210704,0 -9.210704,0 0,-1.739799 z"
     id="path3010"
     inkscape:connector-curvature="0" /><path
     style="fill:#ffffff;stroke:#666666;stroke-width:0.10234115"
     d="m 56.746121,106.25076 c -2.762669,-0.61951 -4.977248,-2.60394 -5.885279,-5.27366 -1.260716,-3.706663 0.455204,-7.817001 3.991968,-9.562414 2.015668,-0.994743 3.997024,-1.125533 6.11872,-0.403897 1.11392,0.378868 2.075484,0.999066 2.989643,1.928284 1.570367,1.596239 2.296772,3.352688 2.300899,5.563581 0.0024,1.281777 -0.221416,2.217586 -0.834755,3.490326 -0.448992,0.93172 -0.630624,1.18311 -1.450246,2.00723 -1.052137,1.05792 -1.951548,1.62014 -3.290815,2.05706 -1.030526,0.3362 -2.895337,0.42777 -3.940135,0.19349 z"
     id="path3012"
     inkscape:connector-curvature="0" /><path
     style="fill:#ffffff;stroke:#666666;stroke-width:0.10234115"
     d="M 104.00101,75.990092 C 100.82707,68.575777 91.244616,45.562087 91.305932,45.50097 c 0.04547,-0.04532 3.859059,-1.668755 8.474645,-3.607632 7.080103,-2.974149 8.402403,-3.49894 8.458663,-3.357058 0.0367,0.09249 2.99713,7.141456 6.5788,15.66436 3.58166,8.522904 6.47605,15.527883 6.43197,15.566619 -0.0867,0.07621 -16.45063,6.956562 -16.72063,7.030333 -0.12234,0.03343 -0.25552,-0.170114 -0.52837,-0.8075 l 0,0 z m -1.04786,-26.093127 c 3.37726,-1.414882 6.17185,-2.600792 6.2102,-2.635355 0.0893,-0.08043 -2.08965,-5.256219 -2.23285,-5.303953 -0.10539,-0.03513 -12.307889,5.042653 -12.433626,5.173958 -0.04953,0.05172 1.083822,2.864538 2.057906,5.107454 0.055,0.126647 0.135532,0.230299 0.178954,0.230338 0.04342,3.9e-5 2.842161,-1.157559 6.219416,-2.572442 z"
     id="path3014"
     inkscape:connector-curvature="0" /><path
     style="fill:#ffffff;stroke:#666666;stroke-width:0.10234115"
     d="m 106.1897,81.217479 c -0.35202,-0.850476 -0.62217,-1.564186 -0.60033,-1.586022 0.0454,-0.04541 16.8311,-7.103254 16.89368,-7.103254 0.0722,0 1.32788,3.072993 1.27662,3.12426 -0.0507,0.05067 -16.48328,6.968961 -16.77023,7.06043 -0.12347,0.03936 -0.3049,-0.299897 -0.79974,-1.495414 l 0,0 z"
     id="path3016"
     inkscape:connector-curvature="0" /><path
     style="fill:#ffffff;stroke:#666666;stroke-width:0.10234115"
     d="m 122.19952,104.65183 c -1.65482,-0.21944 -3.36869,-1.0753 -4.54927,-2.27177 -1.43754,-1.45688 -2.19241,-3.114855 -2.33225,-5.122443 -0.15723,-2.257441 0.68756,-4.394849 2.41334,-6.105959 0.71571,-0.709631 1.06153,-0.963159 1.85225,-1.357924 1.28277,-0.640416 2.30523,-0.891365 3.6239,-0.889433 3.07481,0.0045 5.71842,1.643172 7.13016,4.419709 0.55567,1.092857 0.75765,2.029825 0.75669,3.510218 -10e-4,1.530103 -0.18925,2.310641 -0.87748,3.638112 -1.49835,2.89001 -4.79228,4.60716 -8.01734,4.17949 l 0,0 z"
     id="path3018"
     inkscape:connector-curvature="0" /></svg>