<?xml version="1.0" encoding="UTF-8"?>
<svg width="150" height="150" xmlns="http://www.w3.org/2000/svg" xmlns:xlink="http://www.w3.org/1999/xlink">
 <g>
  <title>Layer 1</title>
  <defs transform="matrix(1.13852, 0, 0, 1.13852, -12.8894, -4.14233)">
   <svg viewBox="0 0 32.001 32.001" y="0px" x="0px" xmlns:xlink="http://www.w3.org/1999/xlink" id="svg_129">
    <g id="svg_145">
     <g id="svg_146">
      <path fill="#010002" d="m16,0c-8.836,0.002 -15.998,7.164 -16,16c0.002,8.837999 7.164,16 16,16.000999c8.837999,-0.001999 16,-7.163 16.000999,-16.000999c-0.001999,-8.836 -7.163,-15.998 -16.000999,-16zm0,29.999001c-7.732,-0.013 -13.985,-6.267 -14,-13.999001c0.015,-7.732 6.268,-13.985 14,-14c7.733999,0.015 13.986,6.268 14,14c-0.014,7.732 -6.268,13.986 -14,13.999001z" id="svg_149"/>
      <path fill="#010002" d="m16,10.001c-3.314,0 -5.999,2.684999 -5.999,5.999c0,3.312 2.684999,6 5.999,6c3.312,0 6,-2.688 6,-6c0,-3.313999 -2.688,-5.999 -6,-5.999zm0,9.999999c-2.209,-0.005999 -3.995,-1.792 -3.999,-4.000999c0.004,-2.209 1.79,-3.994999 3.999,-3.999c2.209,0.004 3.995001,1.79 4.000999,3.999c-0.005999,2.209002 -1.792,3.995003 -4.000999,4.000999z" id="svg_148"/>
      <circle fill="#010002" r="2" cy="16.001" cx="16.001" id="svg_147"/>
     </g>
    </g>
    <g id="svg_144"/>
    <g id="svg_143"/>
    <g id="svg_142"/>
    <g id="svg_141"/>
    <g id="svg_140"/>
    <g id="svg_139"/>
    <g id="svg_138"/>
    <g id="svg_137"/>
    <g id="svg_136"/>
    <g id="svg_135"/>
    <g id="svg_134"/>
    <g id="svg_133"/>
    <g id="svg_132"/>
    <g id="svg_131"/>
    <g id="svg_130"/>
   </svg>
  </defs>
  <use opacity="0.4" stroke="#ffffff" stroke-width="0.3" fill="#999999" x="-1721.407737" y="-542.773116" transform="matrix(0.880305, 0, 0, 0.880305, 1524.34, 480.657)" id="svg_128" xlink:href="#svg_129"/>
  <!-- Created with SVG-edit - http://svg-edit.googlecode.com/ -->
 </g>
</svg>