<?xml version="1.0" encoding="UTF-8" standalone="no"?>
<!-- Generator: Adobe Illustrator 16.0.0, SVG Export Plug-In . SVG Version: 6.00 Build 0)  -->

<svg
   xmlns:dc="http://purl.org/dc/elements/1.1/"
   xmlns:cc="http://creativecommons.org/ns#"
   xmlns:rdf="http://www.w3.org/1999/02/22-rdf-syntax-ns#"
   xmlns:svg="http://www.w3.org/2000/svg"
   xmlns="http://www.w3.org/2000/svg"
   xmlns:sodipodi="http://sodipodi.sourceforge.net/DTD/sodipodi-0.dtd"
   xmlns:inkscape="http://www.inkscape.org/namespaces/inkscape"
   version="1.1"
   id="Capa_1"
   x="0px"
   y="0px"
   width="150"
   height="150"
   viewBox="0 0 150 150"
   xml:space="preserve"
   inkscape:version="0.48.4 r9939"
   sodipodi:docname="globe.svg"><metadata
     id="metadata41"><rdf:RDF><cc:Work
         rdf:about=""><dc:format>image/svg+xml</dc:format><dc:type
           rdf:resource="http://purl.org/dc/dcmitype/StillImage" /></cc:Work></rdf:RDF></metadata><defs
     id="defs39" /><sodipodi:namedview
     pagecolor="#ffffff"
     bordercolor="#666666"
     borderopacity="1"
     objecttolerance="10"
     gridtolerance="10"
     guidetolerance="10"
     inkscape:pageopacity="0"
     inkscape:pageshadow="2"
     inkscape:window-width="1631"
     inkscape:window-height="1026"
     id="namedview37"
     showgrid="false"
     inkscape:zoom="3.4232624"
     inkscape:cx="43.491456"
     inkscape:cy="68.736655"
     inkscape:window-x="49"
     inkscape:window-y="24"
     inkscape:window-maximized="1"
     inkscape:current-layer="Capa_1" /><g
     id="g3"
     style="fill:#999999"
     transform="matrix(3.073381,0,0,3.073381,0,0.1788256)"><path
       d="M 44.268,10.32 C 43.897,9.796 43.51,9.285 43.098,8.793 38.624,3.424 31.891,0 24.374,0 24.36,0 24.349,0.001 24.337,0.001 24.329,0.001 24.323,0 24.315,0 24.288,0 24.26,0.003 24.231,0.003 16.771,0.046 10.097,3.46 5.649,8.793 5.239,9.286 4.85,9.796 4.479,10.32 1.663,14.295 0,19.142 0,24.374 c 0,5.231 1.662,10.08 4.479,14.054 0.371,0.524 0.76,1.035 1.17,1.527 4.447,5.333 11.121,8.747 18.582,8.79 0.029,0 0.057,0.003 0.084,0.003 0.008,0 0.014,-10e-4 0.021,-10e-4 0.012,0 0.023,10e-4 0.037,10e-4 7.518,0 14.25,-3.423 18.725,-8.792 0.41,-0.492 0.799,-1.004 1.17,-1.528 2.816,-3.975 4.479,-8.822 4.479,-14.055 0,-5.23 -1.663,-10.078 -4.479,-14.053 z M 17.249,3.17 C 15.009,5.331 13.147,8.49 11.864,12.281 10.145,11.639 8.598,10.866 7.264,9.992 9.879,6.886 13.318,4.494 17.249,3.17 z M 6.09,11.521 c 1.516,1.012 3.268,1.897 5.205,2.626 -0.836,3.054 -1.316,6.444 -1.334,10.021 H 2.004 C 2.047,19.463 3.562,15.109 6.09,11.521 z M 2.079,26.168 H 10 c 0.129,2.994 0.584,5.835 1.293,8.434 C 9.355,35.331 7.604,36.216 6.09,37.229 3.849,34.048 2.404,30.266 2.079,26.168 z M 7.27,38.752 c 1.334,-0.872 2.877,-1.643 4.592,-2.285 1.283,3.792 3.146,6.949 5.387,9.11 -3.931,-1.323 -7.363,-3.72 -9.979,-6.825 z m 16.104,7.924 C 19.27,46.114 15.728,41.905 13.72,35.843 c 2.895,-0.868 6.172,-1.394 9.654,-1.479 v 12.312 z m 0,-14.31 c -3.672,0.088 -7.133,0.655 -10.215,1.601 -0.631,-2.396 -1.035,-5.025 -1.156,-7.798 h 11.371 v 6.197 z m 0,-8.198 H 11.961 c 0.018,-3.359 0.455,-6.532 1.207,-9.384 3.078,0.943 6.537,1.511 10.205,1.598 v 7.786 z m 0,-9.784 C 19.894,14.299 16.618,13.775 13.726,12.907 15.733,6.848 19.272,2.635 23.374,2.072 v 12.312 z m 23.367,9.784 h -8.072 c -0.018,-3.562 -0.492,-6.938 -1.322,-9.981 1.98,-0.736 3.769,-1.635 5.31,-2.665 2.527,3.588 4.041,7.941 4.084,12.646 z M 41.481,9.994 C 40.12,10.885 38.538,11.67 36.778,12.319 35.483,8.476 33.594,5.279 31.319,3.11 35.323,4.421 38.825,6.84 41.481,9.994 z M 25.374,2.087 c 4.059,0.627 7.555,4.832 9.541,10.85 -2.865,0.849 -6.104,1.363 -9.541,1.447 V 2.087 z m 0,14.296 c 3.625,-0.086 7.045,-0.642 10.096,-1.565 0.748,2.844 1.182,6.005 1.199,9.351 H 25.374 v -7.786 z m 0,9.785 h 11.254 c -0.121,2.76 -0.523,5.377 -1.148,7.766 -3.055,-0.926 -6.479,-1.481 -10.104,-1.568 l -0.002,-6.198 0,0 z m 0,20.493 V 34.365 c 3.439,0.084 6.678,0.598 9.547,1.447 -1.989,6.02 -5.489,10.222 -9.547,10.849 z m 5.945,-1.022 c 2.275,-2.168 4.168,-5.363 5.463,-9.207 1.756,0.648 3.336,1.432 4.695,2.321 -2.656,3.153 -6.154,5.574 -10.158,6.886 z m 11.338,-8.41 c -1.541,-1.03 -3.33,-1.931 -5.311,-2.666 0.702,-2.588 1.153,-5.416 1.28,-8.394 h 8.041 c -0.325,4.097 -1.766,7.88 -4.01,11.06 z"
       id="path5"
       style="fill:#999999"
       inkscape:connector-curvature="0" /></g><g
     id="g7"
     transform="translate(0,101.252)" /><g
     id="g9"
     transform="translate(0,101.252)" /><g
     id="g11"
     transform="translate(0,101.252)" /><g
     id="g13"
     transform="translate(0,101.252)" /><g
     id="g15"
     transform="translate(0,101.252)" /><g
     id="g17"
     transform="translate(0,101.252)" /><g
     id="g19"
     transform="translate(0,101.252)" /><g
     id="g21"
     transform="translate(0,101.252)" /><g
     id="g23"
     transform="translate(0,101.252)" /><g
     id="g25"
     transform="translate(0,101.252)" /><g
     id="g27"
     transform="translate(0,101.252)" /><g
     id="g29"
     transform="translate(0,101.252)" /><g
     id="g31"
     transform="translate(0,101.252)" /><g
     id="g33"
     transform="translate(0,101.252)" /><g
     id="g35"
     transform="translate(0,101.252)" /></svg>