<?xml version="1.0" encoding="UTF-8" standalone="no"?>
<!-- Generator: Adobe Illustrator 16.0.0, SVG Export Plug-In . SVG Version: 6.00 Build 0)  -->

<svg
   xmlns:dc="http://purl.org/dc/elements/1.1/"
   xmlns:cc="http://creativecommons.org/ns#"
   xmlns:rdf="http://www.w3.org/1999/02/22-rdf-syntax-ns#"
   xmlns:svg="http://www.w3.org/2000/svg"
   xmlns="http://www.w3.org/2000/svg"
   xmlns:sodipodi="http://sodipodi.sourceforge.net/DTD/sodipodi-0.dtd"
   xmlns:inkscape="http://www.inkscape.org/namespaces/inkscape"
   version="1.1"
   id="Capa_1"
   x="0px"
   y="0px"
   width="154"
   height="150"
   viewBox="0 0 154 150"
   xml:space="preserve"
   inkscape:version="0.48.4 r9939"
   sodipodi:docname="newspaper11.svg"><metadata
     id="metadata41"><rdf:RDF><cc:Work
         rdf:about=""><dc:format>image/svg+xml</dc:format><dc:type
           rdf:resource="http://purl.org/dc/dcmitype/StillImage" /></cc:Work></rdf:RDF></metadata><defs
     id="defs39" /><sodipodi:namedview
     pagecolor="#0000ff"
     bordercolor="#666666"
     borderopacity="1"
     objecttolerance="10"
     gridtolerance="10"
     guidetolerance="10"
     inkscape:pageopacity="0"
     inkscape:pageshadow="2"
     inkscape:window-width="1871"
     inkscape:window-height="1056"
     id="namedview37"
     showgrid="false"
     inkscape:zoom="4.9155172"
     inkscape:cx="86.511464"
     inkscape:cy="73.071378"
     inkscape:window-x="49"
     inkscape:window-y="24"
     inkscape:window-maximized="1"
     inkscape:current-layer="Capa_1" /><g
     id="g3"
     transform="matrix(0.2735694,0,0,0.2735694,1.990108e-4,0.10016694)"
     style="fill:#ff0000"><path
       d="M 534.644,1.79 H 143.907 c -4.72,0 -8.54,3.828 -8.54,8.544 V 44.466 H 72.005 c -2.458,0 -4.807,1.064 -6.427,2.919 -1.62,1.861 -2.353,4.32 -2.036,6.763 l 3.319,24.521 H 8.541 c -2.679,0 -5.22,1.264 -6.835,3.411 -1.613,2.146 -2.117,4.925 -1.362,7.519 l 129.987,445.633 c 1.086,3.738 4.492,6.162 8.209,6.162 0.79,0 396.1,0 396.1,0 4.715,0 8.545,-3.81 8.545,-8.548 V 10.339 c 0,-4.721 -3.831,-8.549 -8.541,-8.549 z M 135.368,61.555 v 395.79 L 81.794,61.555 h 53.574 l 0,0 z M 69.17,95.752 111.816,410.747 19.928,95.752 H 69.17 z M 526.101,524.306 H 152.447 V 18.881 h 373.662 v 505.425 h -0.008 z M 301.902,86.356 H 166.079 V 47.911 h 135.818 l 0.005,38.445 0,0 z m 211.418,0 H 377.499 V 47.911 h 135.816 l 0.005,38.445 0,0 z M 310.669,67.136 c 0,-15.796 12.81,-28.616 28.604,-28.616 15.802,0 28.622,12.815 28.622,28.616 0,15.805 -12.826,28.616 -28.622,28.616 -15.799,0 -28.604,-12.815 -28.604,-28.616 z M 493.182,275.439 H 377.499 V 145.588 h 115.679 l 0.004,129.851 0,0 z M 322.188,164.672 H 179.965 v -14.243 h 142.223 v 14.243 z M 179.965,205.096 H 322.188 V 219.34 H 179.965 v -14.244 z m 1.601,55.91 h 142.225 v 14.242 H 181.566 v -14.242 z m -1.601,56.321 h 313.217 v 14.237 H 179.965 v -14.237 z m 0,56.231 h 313.217 v 14.237 H 179.965 v -14.237 z m 0,55.52 h 313.217 v 14.247 H 179.965 v -14.247 z"
       id="path5"
       inkscape:connector-curvature="0"
       style="fill:#999999" /></g><g
     id="g7"
     transform="translate(0,-393.185)" /><g
     id="g9"
     transform="translate(0,-393.185)" /><g
     id="g11"
     transform="translate(0,-393.185)" /><g
     id="g13"
     transform="translate(0,-393.185)" /><g
     id="g15"
     transform="translate(0,-393.185)" /><g
     id="g17"
     transform="translate(0,-393.185)" /><g
     id="g19"
     transform="translate(0,-393.185)" /><g
     id="g21"
     transform="translate(0,-393.185)" /><g
     id="g23"
     transform="translate(0,-393.185)" /><g
     id="g25"
     transform="translate(0,-393.185)" /><g
     id="g27"
     transform="translate(0,-393.185)" /><g
     id="g29"
     transform="translate(0,-393.185)" /><g
     id="g31"
     transform="translate(0,-393.185)" /><g
     id="g33"
     transform="translate(0,-393.185)" /><g
     id="g35"
     transform="translate(0,-393.185)" /><path
     style="fill:#ff0000;fill-opacity:0;stroke:none"
     d="m 41.84004,74.398321 0,-68.9652763 50.961067,0 50.961063,0 0,68.9652763 0,68.965279 -50.961063,0 -50.961067,0 0,-68.965279 z m 93.17433,44.959659 0,-2.03437 -42.925294,0 -42.92529,0 0,2.03437 0,2.03438 42.92529,0 42.925294,0 0,-2.03438 z m 0,-15.05436 0,-2.03438 -42.925294,0 -42.92529,0 0,2.03438 0,2.03437 42.92529,0 42.925294,0 0,-2.03437 z m 0,-15.461245 0,-2.034374 -42.925294,0 -42.92529,0 0,2.034374 0,2.034374 42.92529,0 42.925294,0 0,-2.034374 z m 0,-31.125921 0,-17.90249 -15.96984,0 -15.96983,0 0,17.766865 c 0,9.771777 0.061,17.827898 0.13562,17.90249 0.0746,0.0746 7.26102,0.135626 15.96984,0.135626 l 15.83421,0 0,-17.902491 z m -46.38373,15.66468 0,-2.034374 -19.529989,0 -19.52999,0 0,2.034374 0,2.034373 19.52999,0 19.529989,0 0,-2.034373 z m -0.406874,-15.257805 0,-2.034374 -19.52999,0 -19.52999,0 0,2.034374 0,2.034374 19.52999,0 19.52999,0 0,-2.034374 z m 0,-14.850929 0,-2.034374 -19.52999,0 -19.52999,0 0,2.034374 0,2.034373 19.52999,0 19.52999,0 0,-2.034373 z m 7.585077,-17.494906 c 2.44165,-0.917242 4.441667,-3.505279 4.810757,-6.225162 0.71772,-5.288859 -3.936851,-9.8001599 -9.125062,-8.844195 -2.6319,0.484947 -4.763014,2.108634 -5.893066,4.489902 -0.467601,0.985341 -0.530986,1.373894 -0.530986,3.254999 0,1.882844 0.06356,2.271641 0.536092,3.279413 1.80413,3.847666 6.145598,5.568992 10.202265,4.045043 z m -13.077887,-7.324456 0,-5.289372 -18.71624,0 -18.71624,0 0,5.289372 0,5.289372 18.71624,0 18.71624,0 0,-5.289372 z m 57.776224,0 0,-5.289372 -18.71624,0 -18.71624,0 0,5.289372 0,5.289372 18.71624,0 18.71624,0 0,-5.289372 z"
     id="path3018"
     inkscape:connector-curvature="0" /><path
     style="fill:#ff0000;fill-opacity:0;stroke:none"
     d="M 29.767493,70.685588 C 25.876827,41.90174 22.642851,18.053792 22.580881,17.690148 l -0.112675,-0.661172 7.244669,0 7.244668,0 0,52.995441 c 0,29.147492 -0.02613,52.995443 -0.05806,52.995443 -0.03193,0 -3.241328,-23.550424 -7.131994,-52.334272 z"
     id="path3020"
     inkscape:connector-curvature="0" /><path
     style="fill:#ff0000;fill-opacity:0;stroke:none"
     d="M 17.849823,68.377931 C 11.200801,45.562698 5.7210836,26.781256 5.6726729,26.641393 5.603434,26.441355 7.0000307,26.387096 12.218134,26.387096 c 3.648415,0 6.633481,0.04392 6.633481,0.0976 0,0.05368 2.52003,18.705373 5.600066,41.448212 3.080036,22.74284 5.574687,41.480372 5.543669,41.638952 -0.03102,0.15856 -5.496506,-18.378693 -12.145527,-41.193924 z"
     id="path3022"
     inkscape:connector-curvature="0" /><path
     style="fill:#ff0000;fill-opacity:0;stroke:none"
     d="m 41.897644,74.344967 0,-69.0669948 50.961066,0 50.96107,0 0,69.0669948 0,69.066993 -50.96107,0 -50.961066,0 0,-69.066993 z m 93.174326,45.061383 0,-2.03437 -42.925291,0 -42.925289,0 0,2.03437 0,2.03437 42.925289,0 42.925291,0 0,-2.03437 z m -0.0437,-15.20695 0.058,-2.08523 -42.932404,0 -42.932406,0 0,2.13657 0,2.13656 42.87443,-0.0513 42.87443,-0.0513 0.058,-2.08524 z m 0.0437,-15.30866 0,-2.034374 -42.925291,0 -42.925289,0 0,2.034374 0,2.034374 42.925289,0 42.925291,0 0,-2.034374 z m -46.383726,-15.461241 0,-2.034374 -19.52999,0 -19.529989,0 0,2.034374 0,2.034373 19.529989,0 19.52999,0 0,-2.034373 z m 46.383726,-15.766398 0,-17.800772 -15.96984,0 -15.96983,0 0,17.800772 0,17.800771 15.96983,0 15.96984,0 0,-17.800771 z m -46.790601,0.508593 0,-2.034374 -19.52999,0 -19.529989,0 0,2.034374 0,2.034374 19.529989,0 19.52999,0 0,-2.034374 z m 0,-15.054367 0,-2.034374 -19.52999,0 -19.529989,0 0,2.034374 0,2.034374 19.529989,0 19.52999,0 0,-2.034374 z m 7.448187,-17.320265 c 4.637924,-1.725842 6.446124,-7.685964 3.577497,-11.792033 -4.071791,-5.8282497 -13.162603,-3.771411 -14.262078,3.226863 -0.945648,6.019143 4.910617,10.713748 10.684581,8.56517 l 0,0 z m -12.988479,-7.346519 -0.05424,-5.340231 -18.665381,-0.05192 -18.665381,-0.05192 0,5.392155 0,5.392156 18.719617,0 18.71962,0 -0.05424,-5.340232 0,0 z m 57.776223,0 -0.0542,-5.340231 -18.61452,0 -18.61452,0 -0.0542,5.340231 -0.0542,5.340232 18.723,0 18.72299,0 -0.0542,-5.340232 0,0 z"
     id="path3026"
     inkscape:connector-curvature="0" /><path
     style="fill:#ff0000;fill-opacity:0;stroke:none"
     d="m 41.897644,74.344967 0,-69.0669948 50.961066,0 50.96107,0 0,69.0669948 0,69.066993 -50.96107,0 -50.961066,0 0,-69.066993 z m 93.174326,45.061383 0,-2.03437 -42.925291,0 -42.925289,0 0,2.03437 0,2.03437 42.925289,0 42.925291,0 0,-2.03437 z m -0.0437,-15.20695 0.058,-2.08523 -42.932404,0 -42.932406,0 0,2.13657 0,2.13656 42.87443,-0.0513 42.87443,-0.0513 0.058,-2.08524 z m 0.0437,-15.30866 0,-2.034374 -42.925291,0 -42.925289,0 0,2.034374 0,2.034374 42.925289,0 42.925291,0 0,-2.034374 z m -46.383726,-15.461241 0,-2.034374 -19.52999,0 -19.529989,0 0,2.034374 0,2.034373 19.529989,0 19.52999,0 0,-2.034373 z m 46.383726,-15.766398 0,-17.800772 -15.96984,0 -15.96983,0 0,17.800772 0,17.800771 15.96983,0 15.96984,0 0,-17.800771 z m -46.790601,0.508593 0,-2.034374 -19.52999,0 -19.529989,0 0,2.034374 0,2.034374 19.529989,0 19.52999,0 0,-2.034374 z m 0,-15.054367 0,-2.034374 -19.52999,0 -19.529989,0 0,2.034374 0,2.034374 19.529989,0 19.52999,0 0,-2.034374 z m 7.448187,-17.320265 c 4.637924,-1.725842 6.446124,-7.685964 3.577497,-11.792033 -4.071791,-5.8282497 -13.162603,-3.771411 -14.262078,3.226863 -0.945648,6.019143 4.910617,10.713748 10.684581,8.56517 l 0,0 z m -12.988479,-7.346519 -0.05424,-5.340231 -18.665381,-0.05192 -18.665381,-0.05192 0,5.392155 0,5.392156 18.719617,0 18.71962,0 -0.05424,-5.340232 0,0 z m 57.776223,0 -0.0542,-5.340231 -18.61452,0 -18.61452,0 -0.0542,5.340231 -0.0542,5.340232 18.723,0 18.72299,0 -0.0542,-5.340232 0,0 z"
     id="path3028"
     inkscape:connector-curvature="0" /><path
     style="fill:#ff0000;fill-opacity:0;stroke:none"
     d="m 41.897644,74.344967 0,-69.0669948 50.961066,0 50.96107,0 0,69.0669948 0,69.066993 -50.96107,0 -50.961066,0 0,-69.066993 z m 93.174326,45.061383 0,-2.03437 -42.925291,0 -42.925289,0 0,2.03437 0,2.03437 42.925289,0 42.925291,0 0,-2.03437 z m -0.0437,-15.20695 0.058,-2.08523 -42.932404,0 -42.932406,0 0,2.13657 0,2.13656 42.87443,-0.0513 42.87443,-0.0513 0.058,-2.08524 z m 0.0437,-15.30866 0,-2.034374 -42.925291,0 -42.925289,0 0,2.034374 0,2.034374 42.925289,0 42.925291,0 0,-2.034374 z m -46.383726,-15.461241 0,-2.034374 -19.52999,0 -19.529989,0 0,2.034374 0,2.034373 19.529989,0 19.52999,0 0,-2.034373 z m 46.383726,-15.766398 0,-17.800772 -15.96984,0 -15.96983,0 0,17.800772 0,17.800771 15.96983,0 15.96984,0 0,-17.800771 z m -46.790601,0.508593 0,-2.034374 -19.52999,0 -19.529989,0 0,2.034374 0,2.034374 19.529989,0 19.52999,0 0,-2.034374 z m 0,-15.054367 0,-2.034374 -19.52999,0 -19.529989,0 0,2.034374 0,2.034374 19.529989,0 19.52999,0 0,-2.034374 z m 7.448187,-17.320265 c 4.637924,-1.725842 6.446124,-7.685964 3.577497,-11.792033 -4.071791,-5.8282497 -13.162603,-3.771411 -14.262078,3.226863 -0.945648,6.019143 4.910617,10.713748 10.684581,8.56517 l 0,0 z m -12.988479,-7.346519 -0.05424,-5.340231 -18.665381,-0.05192 -18.665381,-0.05192 0,5.392155 0,5.392156 18.719617,0 18.71962,0 -0.05424,-5.340232 0,0 z m 57.776223,0 -0.0542,-5.340231 -18.61452,0 -18.61452,0 -0.0542,5.340231 -0.0542,5.340232 18.723,0 18.72299,0 -0.0542,-5.340232 0,0 z"
     id="path3030"
     inkscape:connector-curvature="0" /><path
     style="fill:#ff0000;fill-opacity:0;stroke:none"
     d="m 29.72815,70.428797 c -3.945081,-29.175465 -7.169316,-53.11496 -7.164967,-53.198878 0.0044,-0.08392 3.257821,-0.152578 7.229936,-0.152578 l 7.222027,0 0,53.198878 c 0,29.259383 -0.02568,53.198881 -0.05706,53.198881 -0.03138,0 -3.284854,-23.870838 -7.229936,-53.046303 z"
     id="path3032"
     inkscape:connector-curvature="0" /><path
     style="fill:#ff0000;fill-opacity:0;stroke:none"
     d="m 29.72815,70.428797 c -3.945081,-29.175465 -7.169316,-53.11496 -7.164967,-53.198878 0.0044,-0.08392 3.257821,-0.152578 7.229936,-0.152578 l 7.222027,0 0,53.198878 c 0,29.259383 -0.02568,53.198881 -0.05706,53.198881 -0.03138,0 -3.284854,-23.870838 -7.229936,-53.046303 z"
     id="path3034"
     inkscape:connector-curvature="0" /><path
     style="fill:#ff0000;fill-opacity:0;stroke:none"
     d="M 36.650267,147.58655 C 36.320523,147.30909 35.948327,146.82846 35.82316,146.5185 35.189237,144.94862 0.19297829,24.468317 0.19297829,23.855808 c 0,-0.543062 0.16708954,-0.883122 0.69168714,-1.40772 l 0.69168717,-0.691687 8.3612768,0 8.3612766,0 0,-0.466557 c 0,-0.256608 -0.189441,-1.833377 -0.42098,-3.503934 -0.231539,-1.670557 -0.365746,-3.331797 -0.298238,-3.691646 0.0701,-0.373643 0.388241,-0.877673 0.741745,-1.175126 l 0.619003,-0.520857 9.139075,0 9.139073,0 0,-5.1720045 0,-5.1720045 0.611467,-0.6114668 c 0.467337,-0.46733768 0.862943,-0.64103897 1.678359,-0.73692616 0.586789,-0.0690026 24.976792,-0.0984118 54.200003,-0.0653537 l 53.133107,0.0601056 0.57436,0.42648586 c 0.3159,0.2345673 0.68745,0.646528 0.82566,0.9154683 0.19802,0.3853188 0.25193,15.7039289 0.2543,72.2580569 0.003,78.610588 0.0974,72.805178 -1.1915,73.471708 -0.5549,0.28695 -6.06286,0.31867 -55.335386,0.31867 l -54.719153,0 -0.599534,-0.50447 z m 107.372943,-73.241583 0,-69.2704321 -51.1645,0 -51.164504,0 0,69.2704321 0,69.270433 51.164504,0 51.1645,0 0,-69.270433 z m -106.804626,-3.254998 0,-54.216065 -7.425465,0 c -6.935317,0 -7.425626,0.0235 -7.427906,0.356015 -0.003,0.443409 14.44697,107.471931 14.557113,107.821821 0.04403,0.13986 0.128696,0.25429 0.188155,0.25429 0.05946,0 0.108103,-24.39723 0.108103,-54.216061 z m -12.369429,-1.783052 -5.831472,-43.074893 -6.849611,0 -6.8496109,0 0.3765651,1.271483 c 0.2071108,0.699316 5.8314128,19.99281 12.4984488,42.874431 13.207696,45.329522 12.286632,42.204392 12.404202,42.086822 0.04562,-0.0456 -2.541212,-19.466649 -5.748522,-43.157843 l 0,0 z"
     id="path3036"
     inkscape:connector-curvature="0" /><path
     style="fill:#ffff00;fill-opacity:0;stroke:none"
     d="M 36.650267,147.58655 C 36.320523,147.30909 35.948327,146.82846 35.82316,146.5185 35.189237,144.94862 0.19297829,24.468317 0.19297829,23.855808 c 0,-0.543062 0.16708954,-0.883122 0.69168714,-1.40772 l 0.69168717,-0.691687 8.3612768,0 8.3612766,0 0,-0.466557 c 0,-0.256608 -0.189441,-1.833377 -0.42098,-3.503934 -0.231539,-1.670557 -0.365746,-3.331797 -0.298238,-3.691646 0.0701,-0.373643 0.388241,-0.877673 0.741745,-1.175126 l 0.619003,-0.520857 9.139075,0 9.139073,0 0,-5.1720045 0,-5.1720045 0.611467,-0.6114668 c 0.467337,-0.46733768 0.862943,-0.64103897 1.678359,-0.73692616 0.586789,-0.0690026 24.976792,-0.0984118 54.200003,-0.0653537 l 53.133107,0.0601056 0.57436,0.42648586 c 0.3159,0.2345673 0.68745,0.646528 0.82566,0.9154683 0.19802,0.3853188 0.25193,15.7039289 0.2543,72.2580569 0.003,78.610588 0.0974,72.805178 -1.1915,73.471708 -0.5549,0.28695 -6.06286,0.31867 -55.335386,0.31867 l -54.719153,0 -0.599534,-0.50447 z m 107.372943,-73.241583 0,-69.2704321 -51.1645,0 -51.164504,0 0,69.2704321 0,69.270433 51.164504,0 51.1645,0 0,-69.270433 z m -106.804626,-3.254998 0,-54.216065 -7.425465,0 c -6.935317,0 -7.425626,0.0235 -7.427906,0.356015 -0.003,0.443409 14.44697,107.471931 14.557113,107.821821 0.04403,0.13986 0.128696,0.25429 0.188155,0.25429 0.05946,0 0.108103,-24.39723 0.108103,-54.216061 z m -12.369429,-1.783052 -5.831472,-43.074893 -6.849611,0 -6.8496109,0 0.3765651,1.271483 c 0.2071108,0.699316 5.8314128,19.99281 12.4984488,42.874431 13.207696,45.329522 12.286632,42.204392 12.404202,42.086822 0.04562,-0.0456 -2.541212,-19.466649 -5.748522,-43.157843 l 0,0 z"
     id="path3038"
     inkscape:connector-curvature="0" /><path
     style="fill:#ffff00;fill-opacity:0;stroke:none"
     d="M 36.650267,147.58655 C 36.320523,147.30909 35.948327,146.82846 35.82316,146.5185 35.189237,144.94862 0.19297829,24.468317 0.19297829,23.855808 c 0,-0.543062 0.16708954,-0.883122 0.69168714,-1.40772 l 0.69168717,-0.691687 8.3612768,0 8.3612766,0 0,-0.466557 c 0,-0.256608 -0.189441,-1.833377 -0.42098,-3.503934 -0.231539,-1.670557 -0.365746,-3.331797 -0.298238,-3.691646 0.0701,-0.373643 0.388241,-0.877673 0.741745,-1.175126 l 0.619003,-0.520857 9.139075,0 9.139073,0 0,-5.1720045 0,-5.1720045 0.611467,-0.6114668 c 0.467337,-0.46733768 0.862943,-0.64103897 1.678359,-0.73692616 0.586789,-0.0690026 24.976792,-0.0984118 54.200003,-0.0653537 l 53.133107,0.0601056 0.57436,0.42648586 c 0.3159,0.2345673 0.68745,0.646528 0.82566,0.9154683 0.19802,0.3853188 0.25193,15.7039289 0.2543,72.2580569 0.003,78.610588 0.0974,72.805178 -1.1915,73.471708 -0.5549,0.28695 -6.06286,0.31867 -55.335386,0.31867 l -54.719153,0 -0.599534,-0.50447 z m 107.372943,-73.241583 0,-69.2704321 -51.1645,0 -51.164504,0 0,69.2704321 0,69.270433 51.164504,0 51.1645,0 0,-69.270433 z m -106.804626,-3.254998 0,-54.216065 -7.425465,0 c -6.935317,0 -7.425626,0.0235 -7.427906,0.356015 -0.003,0.443409 14.44697,107.471931 14.557113,107.821821 0.04403,0.13986 0.128696,0.25429 0.188155,0.25429 0.05946,0 0.108103,-24.39723 0.108103,-54.216061 z m -12.369429,-1.783052 -5.831472,-43.074893 -6.849611,0 -6.8496109,0 0.3765651,1.271483 c 0.2071108,0.699316 5.8314128,19.99281 12.4984488,42.874431 13.207696,45.329522 12.286632,42.204392 12.404202,42.086822 0.04562,-0.0456 -2.541212,-19.466649 -5.748522,-43.157843 l 0,0 z"
     id="path3040"
     inkscape:connector-curvature="0" /><path
     style="fill:#ffff00;fill-opacity:0;stroke:none"
     d="M 36.650267,147.58655 C 36.320523,147.30909 35.948327,146.82846 35.82316,146.5185 35.189237,144.94862 0.19297829,24.468317 0.19297829,23.855808 c 0,-0.543062 0.16708954,-0.883122 0.69168714,-1.40772 l 0.69168717,-0.691687 8.3612768,0 8.3612766,0 0,-0.466557 c 0,-0.256608 -0.189441,-1.833377 -0.42098,-3.503934 -0.231539,-1.670557 -0.365746,-3.331797 -0.298238,-3.691646 0.0701,-0.373643 0.388241,-0.877673 0.741745,-1.175126 l 0.619003,-0.520857 9.139075,0 9.139073,0 0,-5.1720045 0,-5.1720045 0.611467,-0.6114668 c 0.467337,-0.46733768 0.862943,-0.64103897 1.678359,-0.73692616 0.586789,-0.0690026 24.976792,-0.0984118 54.200003,-0.0653537 l 53.133107,0.0601056 0.57436,0.42648586 c 0.3159,0.2345673 0.68745,0.646528 0.82566,0.9154683 0.19802,0.3853188 0.25193,15.7039289 0.2543,72.2580569 0.003,78.610588 0.0974,72.805178 -1.1915,73.471708 -0.5549,0.28695 -6.06286,0.31867 -55.335386,0.31867 l -54.719153,0 -0.599534,-0.50447 z m 107.372943,-73.241583 0,-69.2704321 -51.1645,0 -51.164504,0 0,69.2704321 0,69.270433 51.164504,0 51.1645,0 0,-69.270433 z m -106.804626,-3.254998 0,-54.216065 -7.425465,0 c -6.935317,0 -7.425626,0.0235 -7.427906,0.356015 -0.003,0.443409 14.44697,107.471931 14.557113,107.821821 0.04403,0.13986 0.128696,0.25429 0.188155,0.25429 0.05946,0 0.108103,-24.39723 0.108103,-54.216061 z m -12.369429,-1.783052 -5.831472,-43.074893 -6.849611,0 -6.8496109,0 0.3765651,1.271483 c 0.2071108,0.699316 5.8314128,19.99281 12.4984488,42.874431 13.207696,45.329522 12.286632,42.204392 12.404202,42.086822 0.04562,-0.0456 -2.541212,-19.466649 -5.748522,-43.157843 l 0,0 z"
     id="path3042"
     inkscape:connector-curvature="0" /><path
     style="fill:#ffff00;fill-opacity:0;stroke:none"
     d="M 36.650267,147.58655 C 36.320523,147.30909 35.948327,146.82846 35.82316,146.5185 35.189237,144.94862 0.19297829,24.468317 0.19297829,23.855808 c 0,-0.543062 0.16708954,-0.883122 0.69168714,-1.40772 l 0.69168717,-0.691687 8.3612768,0 8.3612766,0 0,-0.466557 c 0,-0.256608 -0.189441,-1.833377 -0.42098,-3.503934 -0.231539,-1.670557 -0.365746,-3.331797 -0.298238,-3.691646 0.0701,-0.373643 0.388241,-0.877673 0.741745,-1.175126 l 0.619003,-0.520857 9.139075,0 9.139073,0 0,-5.1720045 0,-5.1720045 0.611467,-0.6114668 c 0.467337,-0.46733768 0.862943,-0.64103897 1.678359,-0.73692616 0.586789,-0.0690026 24.976792,-0.0984118 54.200003,-0.0653537 l 53.133107,0.0601056 0.57436,0.42648586 c 0.3159,0.2345673 0.68745,0.646528 0.82566,0.9154683 0.19802,0.3853188 0.25193,15.7039289 0.2543,72.2580569 0.003,78.610588 0.0974,72.805178 -1.1915,73.471708 -0.5549,0.28695 -6.06286,0.31867 -55.335386,0.31867 l -54.719153,0 -0.599534,-0.50447 z m 107.372943,-73.241583 0,-69.2704321 -51.1645,0 -51.164504,0 0,69.2704321 0,69.270433 51.164504,0 51.1645,0 0,-69.270433 z m -106.804626,-3.254998 0,-54.216065 -7.425465,0 c -6.935317,0 -7.425626,0.0235 -7.427906,0.356015 -0.003,0.443409 14.44697,107.471931 14.557113,107.821821 0.04403,0.13986 0.128696,0.25429 0.188155,0.25429 0.05946,0 0.108103,-24.39723 0.108103,-54.216061 z m -12.369429,-1.783052 -5.831472,-43.074893 -6.849611,0 -6.8496109,0 0.3765651,1.271483 c 0.2071108,0.699316 5.8314128,19.99281 12.4984488,42.874431 13.207696,45.329522 12.286632,42.204392 12.404202,42.086822 0.04562,-0.0456 -2.541212,-19.466649 -5.748522,-43.157843 l 0,0 z"
     id="path3044"
     inkscape:connector-curvature="0" /><path
     style="fill:#ffff00;fill-opacity:0;stroke:none"
     d=""
     id="path3046"
     inkscape:connector-curvature="0" /><path
     style="fill:#ffff00;fill-opacity:0;stroke:none"
     d="m 29.72815,70.428797 c -3.945081,-29.175465 -7.169316,-53.11496 -7.164967,-53.198878 0.0044,-0.08392 3.257821,-0.152578 7.229936,-0.152578 l 7.222027,0 0,53.198878 c 0,29.259383 -0.02568,53.198881 -0.05706,53.198881 -0.03138,0 -3.284854,-23.870838 -7.229936,-53.046303 z"
     id="path3048"
     inkscape:connector-curvature="0" /><path
     style="fill:#ffff00;fill-opacity:0;stroke:none"
     d="m 29.72815,70.428797 c -3.945081,-29.175465 -7.169316,-53.11496 -7.164967,-53.198878 0.0044,-0.08392 3.257821,-0.152578 7.229936,-0.152578 l 7.222027,0 0,53.198878 c 0,29.259383 -0.02568,53.198881 -0.05706,53.198881 -0.03138,0 -3.284854,-23.870838 -7.229936,-53.046303 z"
     id="path3050"
     inkscape:connector-curvature="0" /><path
     style="fill:#ffff00;fill-opacity:0;stroke:none"
     d="m 29.72815,70.428797 c -3.945081,-29.175465 -7.169316,-53.11496 -7.164967,-53.198878 0.0044,-0.08392 3.257821,-0.152578 7.229936,-0.152578 l 7.222027,0 0,53.198878 c 0,29.259383 -0.02568,53.198881 -0.05706,53.198881 -0.03138,0 -3.284854,-23.870838 -7.229936,-53.046303 z"
     id="path3052"
     inkscape:connector-curvature="0" /><path
     style="fill:#ffff00;fill-opacity:0;stroke:none"
     d="m 29.72815,70.428797 c -3.945081,-29.175465 -7.169316,-53.11496 -7.164967,-53.198878 0.0044,-0.08392 3.257821,-0.152578 7.229936,-0.152578 l 7.222027,0 0,53.198878 c 0,29.259383 -0.02568,53.198881 -0.05706,53.198881 -0.03138,0 -3.284854,-23.870838 -7.229936,-53.046303 z"
     id="path3054"
     inkscape:connector-curvature="0" /><path
     style="fill:#ffff00;fill-opacity:0;stroke:none"
     d="m 29.72815,70.428797 c -3.945081,-29.175465 -7.169316,-53.11496 -7.164967,-53.198878 0.0044,-0.08392 3.257821,-0.152578 7.229936,-0.152578 l 7.222027,0 0,53.198878 c 0,29.259383 -0.02568,53.198881 -0.05706,53.198881 -0.03138,0 -3.284854,-23.870838 -7.229936,-53.046303 z"
     id="path3056"
     inkscape:connector-curvature="0" /><path
     style="fill:#ffff00;fill-opacity:0;stroke:none"
     d="m 29.72815,70.428797 c -3.945081,-29.175465 -7.169316,-53.11496 -7.164967,-53.198878 0.0044,-0.08392 3.257821,-0.152578 7.229936,-0.152578 l 7.222027,0 0,53.198878 c 0,29.259383 -0.02568,53.198881 -0.05706,53.198881 -0.03138,0 -3.284854,-23.870838 -7.229936,-53.046303 z"
     id="path3058"
     inkscape:connector-curvature="0" /><path
     style="fill:#ffff00;fill-opacity:0;stroke:none"
     d="m 29.72815,70.428797 c -3.945081,-29.175465 -7.169316,-53.11496 -7.164967,-53.198878 0.0044,-0.08392 3.257821,-0.152578 7.229936,-0.152578 l 7.222027,0 0,53.198878 c 0,29.259383 -0.02568,53.198881 -0.05706,53.198881 -0.03138,0 -3.284854,-23.870838 -7.229936,-53.046303 z"
     id="path3060"
     inkscape:connector-curvature="0" /><path
     style="fill:#ffff00;fill-opacity:0;stroke:none"
     d="m 29.72815,70.428797 c -3.945081,-29.175465 -7.169316,-53.11496 -7.164967,-53.198878 0.0044,-0.08392 3.257821,-0.152578 7.229936,-0.152578 l 7.222027,0 0,53.198878 c 0,29.259383 -0.02568,53.198881 -0.05706,53.198881 -0.03138,0 -3.284854,-23.870838 -7.229936,-53.046303 z"
     id="path3062"
     inkscape:connector-curvature="0" /><path
     style="fill:#0056ea;fill-opacity:0;stroke:none"
     d="m 29.72815,70.428797 c -3.945081,-29.175465 -7.169316,-53.11496 -7.164967,-53.198878 0.0044,-0.08392 3.257821,-0.152578 7.229936,-0.152578 l 7.222027,0 0,53.198878 c 0,29.259383 -0.02568,53.198881 -0.05706,53.198881 -0.03138,0 -3.284854,-23.870838 -7.229936,-53.046303 z"
     id="path3064"
     inkscape:connector-curvature="0" /><path
     style="fill:#0056ea;fill-opacity:0;stroke:none"
     d="m 41.836612,74.344967 0,-69.0669948 50.961067,0 50.961071,0 0,69.0669948 0,69.066993 -50.961071,0 -50.961067,0 0,-69.066993 z m 93.174328,45.061383 0,-2.03437 -42.925292,0 -42.925289,0 0,2.03437 0,2.03437 42.925289,0 42.925292,0 0,-2.03437 z m 0,-15.15609 0,-2.13609 -42.925292,0 -42.925289,0 0,2.13609 0,2.1361 42.925289,0 42.925292,0 0,-2.1361 z m 0,-15.35952 0,-2.034374 -42.925292,0 -42.925289,0 0,2.034374 0,2.034374 42.925289,0 42.925292,0 0,-2.034374 z m -46.383727,-15.461241 0,-2.034374 -19.52999,0 -19.52999,0 0,2.034374 0,2.034373 19.52999,0 19.52999,0 0,-2.034373 z m 46.383727,-15.766398 0,-17.800772 -15.86812,0 -15.86812,0 0,17.800772 0,17.800771 15.86812,0 15.86812,0 0,-17.800771 z m -46.790602,0.508593 0,-2.034374 -19.52999,0 -19.529989,0 0,2.034374 0,2.034374 19.529989,0 19.52999,0 0,-2.034374 z m 0,-15.054367 0,-2.034374 -19.52999,0 -19.529989,0 0,2.034374 0,2.034374 19.529989,0 19.52999,0 0,-2.034374 z m 7.385074,-17.296766 c 3.122974,-1.186636 5.029898,-3.924475 5.047248,-7.246501 0.0123,-2.346522 -0.62076,-3.94022 -2.237291,-5.632759 -4.689466,-4.9099469 -13.054269,-1.75865 -13.408724,5.051508 -0.108944,2.093129 0.313003,3.575163 1.461183,5.132216 2.132628,2.892065 5.784887,3.969461 9.137584,2.695536 l 0,0 z m -12.925366,-7.370018 -0.05424,-5.340231 -18.614521,0 -18.614521,0 -0.05424,5.340231 -0.05424,5.340232 18.722995,0 18.722996,0 -0.05424,-5.340232 z m 57.823704,-0.05086 0,-5.391091 -18.61452,0 -18.61453,0 0,5.391091 0,5.391091 18.61453,0 18.61452,0 0,-5.391091 z"
     id="path3834"
     inkscape:connector-curvature="0" /><path
     style="fill:#0056ea;fill-opacity:0;stroke:none"
     d="m 41.836612,74.344967 0,-69.0669948 50.961067,0 50.961071,0 0,69.0669948 0,69.066993 -50.961071,0 -50.961067,0 0,-69.066993 z m 93.174328,45.061383 0,-2.03437 -42.925292,0 -42.925289,0 0,2.03437 0,2.03437 42.925289,0 42.925292,0 0,-2.03437 z m 0,-15.15609 0,-2.13609 -42.925292,0 -42.925289,0 0,2.13609 0,2.1361 42.925289,0 42.925292,0 0,-2.1361 z m 0,-15.35952 0,-2.034374 -42.925292,0 -42.925289,0 0,2.034374 0,2.034374 42.925289,0 42.925292,0 0,-2.034374 z m -46.383727,-15.461241 0,-2.034374 -19.52999,0 -19.52999,0 0,2.034374 0,2.034373 19.52999,0 19.52999,0 0,-2.034373 z m 46.383727,-15.766398 0,-17.800772 -15.86812,0 -15.86812,0 0,17.800772 0,17.800771 15.86812,0 15.86812,0 0,-17.800771 z m -46.790602,0.508593 0,-2.034374 -19.52999,0 -19.529989,0 0,2.034374 0,2.034374 19.529989,0 19.52999,0 0,-2.034374 z m 0,-15.054367 0,-2.034374 -19.52999,0 -19.529989,0 0,2.034374 0,2.034374 19.529989,0 19.52999,0 0,-2.034374 z m 7.385074,-17.296766 c 3.122974,-1.186636 5.029898,-3.924475 5.047248,-7.246501 0.0123,-2.346522 -0.62076,-3.94022 -2.237291,-5.632759 -4.689466,-4.9099469 -13.054269,-1.75865 -13.408724,5.051508 -0.108944,2.093129 0.313003,3.575163 1.461183,5.132216 2.132628,2.892065 5.784887,3.969461 9.137584,2.695536 l 0,0 z m -12.925366,-7.370018 -0.05424,-5.340231 -18.614521,0 -18.614521,0 -0.05424,5.340231 -0.05424,5.340232 18.722995,0 18.722996,0 -0.05424,-5.340232 z m 57.823704,-0.05086 0,-5.391091 -18.61452,0 -18.61453,0 0,5.391091 0,5.391091 18.61453,0 18.61452,0 0,-5.391091 z"
     id="path3836"
     inkscape:connector-curvature="0" /><path
     style="fill:#0056ea;fill-opacity:0;stroke:none"
     d="m 41.836612,74.344967 0,-69.0669948 50.961067,0 50.961071,0 0,69.0669948 0,69.066993 -50.961071,0 -50.961067,0 0,-69.066993 z m 93.174328,45.061383 0,-2.03437 -42.925292,0 -42.925289,0 0,2.03437 0,2.03437 42.925289,0 42.925292,0 0,-2.03437 z m 0,-15.15609 0,-2.13609 -42.925292,0 -42.925289,0 0,2.13609 0,2.1361 42.925289,0 42.925292,0 0,-2.1361 z m 0,-15.35952 0,-2.034374 -42.925292,0 -42.925289,0 0,2.034374 0,2.034374 42.925289,0 42.925292,0 0,-2.034374 z m -46.383727,-15.461241 0,-2.034374 -19.52999,0 -19.52999,0 0,2.034374 0,2.034373 19.52999,0 19.52999,0 0,-2.034373 z m 46.383727,-15.766398 0,-17.800772 -15.86812,0 -15.86812,0 0,17.800772 0,17.800771 15.86812,0 15.86812,0 0,-17.800771 z m -46.790602,0.508593 0,-2.034374 -19.52999,0 -19.529989,0 0,2.034374 0,2.034374 19.529989,0 19.52999,0 0,-2.034374 z m 0,-15.054367 0,-2.034374 -19.52999,0 -19.529989,0 0,2.034374 0,2.034374 19.529989,0 19.52999,0 0,-2.034374 z m 7.385074,-17.296766 c 3.122974,-1.186636 5.029898,-3.924475 5.047248,-7.246501 0.0123,-2.346522 -0.62076,-3.94022 -2.237291,-5.632759 -4.689466,-4.9099469 -13.054269,-1.75865 -13.408724,5.051508 -0.108944,2.093129 0.313003,3.575163 1.461183,5.132216 2.132628,2.892065 5.784887,3.969461 9.137584,2.695536 l 0,0 z m -12.925366,-7.370018 -0.05424,-5.340231 -18.614521,0 -18.614521,0 -0.05424,5.340231 -0.05424,5.340232 18.722995,0 18.722996,0 -0.05424,-5.340232 z m 57.823704,-0.05086 0,-5.391091 -18.61452,0 -18.61453,0 0,5.391091 0,5.391091 18.61453,0 18.61452,0 0,-5.391091 z"
     id="path3838"
     inkscape:connector-curvature="0" /><path
     style="fill:#0056ea;fill-opacity:0;stroke:none"
     d="m 41.836612,74.344967 0,-69.0669948 50.961067,0 50.961071,0 0,69.0669948 0,69.066993 -50.961071,0 -50.961067,0 0,-69.066993 z m 93.174328,45.061383 0,-2.03437 -42.925292,0 -42.925289,0 0,2.03437 0,2.03437 42.925289,0 42.925292,0 0,-2.03437 z m 0,-15.15609 0,-2.13609 -42.925292,0 -42.925289,0 0,2.13609 0,2.1361 42.925289,0 42.925292,0 0,-2.1361 z m 0,-15.35952 0,-2.034374 -42.925292,0 -42.925289,0 0,2.034374 0,2.034374 42.925289,0 42.925292,0 0,-2.034374 z m -46.383727,-15.461241 0,-2.034374 -19.52999,0 -19.52999,0 0,2.034374 0,2.034373 19.52999,0 19.52999,0 0,-2.034373 z m 46.383727,-15.766398 0,-17.800772 -15.86812,0 -15.86812,0 0,17.800772 0,17.800771 15.86812,0 15.86812,0 0,-17.800771 z m -46.790602,0.508593 0,-2.034374 -19.52999,0 -19.529989,0 0,2.034374 0,2.034374 19.529989,0 19.52999,0 0,-2.034374 z m 0,-15.054367 0,-2.034374 -19.52999,0 -19.529989,0 0,2.034374 0,2.034374 19.529989,0 19.52999,0 0,-2.034374 z m 7.385074,-17.296766 c 3.122974,-1.186636 5.029898,-3.924475 5.047248,-7.246501 0.0123,-2.346522 -0.62076,-3.94022 -2.237291,-5.632759 -4.689466,-4.9099469 -13.054269,-1.75865 -13.408724,5.051508 -0.108944,2.093129 0.313003,3.575163 1.461183,5.132216 2.132628,2.892065 5.784887,3.969461 9.137584,2.695536 l 0,0 z m -12.925366,-7.370018 -0.05424,-5.340231 -18.614521,0 -18.614521,0 -0.05424,5.340231 -0.05424,5.340232 18.722995,0 18.722996,0 -0.05424,-5.340232 z m 57.823704,-0.05086 0,-5.391091 -18.61452,0 -18.61453,0 0,5.391091 0,5.391091 18.61453,0 18.61452,0 0,-5.391091 z"
     id="path3840"
     inkscape:connector-curvature="0" /><path
     style="fill:#0058ea;fill-opacity:0;stroke:none"
     d="M 36.530959,147.52542 C 35.92747,146.98621 35.063893,144.10053 18.014947,85.653345 8.1792972,51.93478 0.13194708,24.075268 0.13194708,23.743319 c 0,-0.415132 0.21592692,-0.81947 0.69168713,-1.295231 l 0.69168709,-0.691687 8.4791597,0 8.47916,0 -0.11305,-0.559453 c -0.06218,-0.307699 -0.301113,-1.951795 -0.530967,-3.653547 -0.373313,-2.763865 -0.386396,-3.169534 -0.122578,-3.800939 0.564389,-1.350774 0.512991,-1.344181 10.479373,-1.344181 l 8.951561,0 0.06065,-5.184096 0.06065,-5.1840959 0.665082,-0.6647291 0.665081,-0.66472907 54.079634,0 c 47.101433,0 54.151473,0.0384477 54.636383,0.29796215 1.22052,0.65319602 1.13236,-5.06913558 1.13236,73.49444192 0,64.990965 -0.0312,72.127995 -0.31751,72.536695 -0.79625,1.13681 3.20467,1.06129 -56.224777,1.06129 l -54.731553,0 -0.633012,-0.5656 0,0 z m 107.431221,-73.180453 0,-69.2704321 -51.164501,0 -51.164504,0 0,69.2704321 0,69.270433 51.164504,0 51.164501,0 0,-69.270433 z m -106.804628,-3.254998 0,-54.216065 -7.448563,0 -7.448565,0 0.123871,0.864609 c 0.06813,0.475534 3.326678,24.575236 7.24122,53.554893 7.457856,55.211054 7.292789,54.012624 7.439536,54.012624 0.05088,0 0.0925,-24.39723 0.0925,-54.216061 z M 24.852548,69.318283 C 21.66204,45.751723 19.051625,26.41645 19.051625,26.351008 c 0,-0.06544 -3.076744,-0.118984 -6.837207,-0.118984 l -6.8372072,0 0.1372258,0.559452 c 0.1114715,0.454455 24.4473154,84.017434 24.8687504,85.392844 0.06857,0.22378 0.157434,0.31134 0.197479,0.19457 0.04004,-0.11678 -2.537609,-19.494049 -5.728118,-43.060607 z"
     id="path3842"
     inkscape:connector-curvature="0" /><path
     style="fill:#0058ea;fill-opacity:0;stroke:none"
     d="m 41.836612,74.344967 0,-69.0669948 50.961067,0 50.961071,0 0,69.0669948 0,69.066993 -50.961071,0 -50.961067,0 0,-69.066993 z m 93.174328,45.061383 0,-2.03437 -42.925292,0 -42.925289,0 0,2.03437 0,2.03437 42.925289,0 42.925292,0 0,-2.03437 z m 0,-15.15609 0,-2.13609 -42.925292,0 -42.925289,0 0,2.13609 0,2.1361 42.925289,0 42.925292,0 0,-2.1361 z m 0,-15.35952 0,-2.034374 -42.925292,0 -42.925289,0 0,2.034374 0,2.034374 42.925289,0 42.925292,0 0,-2.034374 z m -46.383727,-15.461241 0,-2.034374 -19.52999,0 -19.52999,0 0,2.034374 0,2.034373 19.52999,0 19.52999,0 0,-2.034373 z m 46.383727,-15.766398 0,-17.800772 -15.86812,0 -15.86812,0 0,17.800772 0,17.800771 15.86812,0 15.86812,0 0,-17.800771 z m -46.790602,0.508593 0,-2.034374 -19.52999,0 -19.529989,0 0,2.034374 0,2.034374 19.529989,0 19.52999,0 0,-2.034374 z m 0,-15.054367 0,-2.034374 -19.52999,0 -19.529989,0 0,2.034374 0,2.034374 19.529989,0 19.52999,0 0,-2.034374 z m 7.385074,-17.296766 c 3.122974,-1.186636 5.029898,-3.924475 5.047248,-7.246501 0.0123,-2.346522 -0.62076,-3.94022 -2.237291,-5.632759 -4.689466,-4.9099469 -13.054269,-1.75865 -13.408724,5.051508 -0.108944,2.093129 0.313003,3.575163 1.461183,5.132216 2.132628,2.892065 5.784887,3.969461 9.137584,2.695536 l 0,0 z m -12.925366,-7.370018 -0.05424,-5.340231 -18.614521,0 -18.614521,0 -0.05424,5.340231 -0.05424,5.340232 18.722995,0 18.722996,0 -0.05424,-5.340232 z m 57.823704,-0.05086 0,-5.391091 -18.61452,0 -18.61453,0 0,5.391091 0,5.391091 18.61453,0 18.61452,0 0,-5.391091 z"
     id="path3844"
     inkscape:connector-curvature="0" /><path
     style="fill:#ff0000;fill-opacity:0;stroke:none"
     d="M 17.851108,68.407897 C 11.204679,45.602783 5.7249619,26.829621 5.6739587,26.689758 5.6009809,26.489635 6.9895609,26.435461 12.192066,26.435461 l 6.61084,0 0.115963,0.661172 c 0.352852,2.01181 11.127072,82.243817 11.076839,82.485517 -0.0331,0.15928 -5.49817,-18.369139 -12.1446,-41.174253 l 0,0 z"
     id="path3846"
     inkscape:connector-curvature="0" /><path
     style="fill:#ff0000;fill-opacity:0;stroke:none"
     d="M 17.851108,68.407897 C 11.204679,45.602783 5.7249619,26.829621 5.6739587,26.689758 5.6009809,26.489635 6.9895609,26.435461 12.192066,26.435461 l 6.61084,0 0.115963,0.661172 c 0.352852,2.01181 11.127072,82.243817 11.076839,82.485517 -0.0331,0.15928 -5.49817,-18.369139 -12.1446,-41.174253 l 0,0 z"
     id="path3848"
     inkscape:connector-curvature="0" /><path
     style="fill:#ff0000;fill-opacity:0;stroke:none"
     d="M 17.851108,68.407897 C 11.204679,45.602783 5.7249619,26.829621 5.6739587,26.689758 5.6009809,26.489635 6.9895609,26.435461 12.192066,26.435461 l 6.61084,0 0.115963,0.661172 c 0.352852,2.01181 11.127072,82.243817 11.076839,82.485517 -0.0331,0.15928 -5.49817,-18.369139 -12.1446,-41.174253 l 0,0 z"
     id="path3850"
     inkscape:connector-curvature="0" /><path
     style="fill:#ff0000;fill-opacity:0;stroke:none"
     d="M 17.851108,68.407897 C 11.204679,45.602783 5.7249619,26.829621 5.6739587,26.689758 5.6009809,26.489635 6.9895609,26.435461 12.192066,26.435461 l 6.61084,0 0.115963,0.661172 c 0.352852,2.01181 11.127072,82.243817 11.076839,82.485517 -0.0331,0.15928 -5.49817,-18.369139 -12.1446,-41.174253 l 0,0 z"
     id="path3852"
     inkscape:connector-curvature="0" /><path
     style="fill:#ff0000;fill-opacity:0;stroke:none"
     d="M 17.851108,68.407897 C 11.204679,45.602783 5.7249619,26.829621 5.6739587,26.689758 5.6009809,26.489635 6.9895609,26.435461 12.192066,26.435461 l 6.61084,0 0.115963,0.661172 c 0.352852,2.01181 11.127072,82.243817 11.076839,82.485517 -0.0331,0.15928 -5.49817,-18.369139 -12.1446,-41.174253 l 0,0 z"
     id="path3854"
     inkscape:connector-curvature="0" /><path
     style="fill:#ff0000;fill-opacity:0;stroke:none"
     d="M 36.532345,147.52666 C 35.927629,146.98635 35.073517,144.13678 18.101722,86.036605 8.3136355,52.528687 0.25478992,24.680545 0.19317644,24.151844 0.0888866,23.256941 0.13066275,23.141059 0.79823664,22.473485 l 0.71708466,-0.717084 8.4579096,0 8.4579091,0 -0.09692,-0.559453 c -0.05331,-0.307699 -0.282677,-1.951795 -0.509716,-3.653547 -0.368434,-2.761561 -0.381058,-3.170061 -0.11746,-3.800939 0.564445,-1.350906 0.511963,-1.344181 10.489158,-1.344181 l 8.961348,0 0,-5.0036867 c 0,-4.3080653 0.04721,-5.0836102 0.339603,-5.5785861 0.705671,-1.19460906 -3.222648,-1.11537727 55.300524,-1.11537727 46.988511,0 54.022881,0.0384528 54.507781,0.29796215 1.22052,0.65320312 1.13235,-5.07292968 1.13235,73.53649792 l 0,72.125449 -0.59362,0.66438 -0.59362,0.66438 -55.042064,0.052 -55.042061,0.052 -0.6341,-0.56657 0,0 z m 107.429835,-73.181693 0,-69.2704321 -51.164501,0 -51.164504,0 0,69.2704321 0,69.270433 51.164504,0 51.164501,0 0,-69.270433 z m -106.804628,-3.254998 0,-54.216065 -7.448563,0 -7.448565,0 0.124656,0.864609 c 0.06856,0.475534 3.327469,24.575236 7.242016,53.554893 7.478393,55.363064 7.292427,54.012624 7.437955,54.012624 0.05088,0 0.0925,-24.39723 0.0925,-54.216061 z M 24.954281,70.067118 C 21.820904,46.908885 19.200574,27.572167 19.131328,27.096633 l -0.125902,-0.864609 -6.814107,0 -6.8141082,0 0.1392395,0.559452 c 0.076582,0.307699 5.5714997,19.189232 12.2109287,41.958963 6.63943,22.76973 12.231016,41.948791 12.425749,42.620131 0.194734,0.67135 0.386492,1.12653 0.426132,1.01153 0.03964,-0.11501 -2.491602,-19.15675 -5.624979,-42.314982 l 0,0 z"
     id="path3856"
     inkscape:connector-curvature="0" /><path
     style="fill:#ff0000;fill-opacity:0;stroke:none"
     d="M 36.532345,147.52666 C 35.927629,146.98635 35.073517,144.13678 18.101722,86.036605 8.3136355,52.528687 0.25478992,24.680545 0.19317644,24.151844 0.0888866,23.256941 0.13066275,23.141059 0.79823664,22.473485 l 0.71708466,-0.717084 8.4579096,0 8.4579091,0 -0.09692,-0.559453 c -0.05331,-0.307699 -0.282677,-1.951795 -0.509716,-3.653547 -0.368434,-2.761561 -0.381058,-3.170061 -0.11746,-3.800939 0.564445,-1.350906 0.511963,-1.344181 10.489158,-1.344181 l 8.961348,0 0,-5.0036867 c 0,-4.3080653 0.04721,-5.0836102 0.339603,-5.5785861 0.705671,-1.19460906 -3.222648,-1.11537727 55.300524,-1.11537727 46.988511,0 54.022881,0.0384528 54.507781,0.29796215 1.22052,0.65320312 1.13235,-5.07292968 1.13235,73.53649792 l 0,72.125449 -0.59362,0.66438 -0.59362,0.66438 -55.042064,0.052 -55.042061,0.052 -0.6341,-0.56657 0,0 z m 107.429835,-73.181693 0,-69.2704321 -51.164501,0 -51.164504,0 0,69.2704321 0,69.270433 51.164504,0 51.164501,0 0,-69.270433 z m -106.804628,-3.254998 0,-54.216065 -7.448563,0 -7.448565,0 0.124656,0.864609 c 0.06856,0.475534 3.327469,24.575236 7.242016,53.554893 7.478393,55.363064 7.292427,54.012624 7.437955,54.012624 0.05088,0 0.0925,-24.39723 0.0925,-54.216061 z M 24.954281,70.067118 C 21.820904,46.908885 19.200574,27.572167 19.131328,27.096633 l -0.125902,-0.864609 -6.814107,0 -6.8141082,0 0.1392395,0.559452 c 0.076582,0.307699 5.5714997,19.189232 12.2109287,41.958963 6.63943,22.76973 12.231016,41.948791 12.425749,42.620131 0.194734,0.67135 0.386492,1.12653 0.426132,1.01153 0.03964,-0.11501 -2.491602,-19.15675 -5.624979,-42.314982 l 0,0 z"
     id="path3858"
     inkscape:connector-curvature="0" /><path
     style="fill:#ff0000;fill-opacity:0;stroke:none"
     d="M 36.532345,147.52666 C 35.927629,146.98635 35.073517,144.13678 18.101722,86.036605 8.3136355,52.528687 0.25478992,24.680545 0.19317644,24.151844 0.0888866,23.256941 0.13066275,23.141059 0.79823664,22.473485 l 0.71708466,-0.717084 8.4579096,0 8.4579091,0 -0.09692,-0.559453 c -0.05331,-0.307699 -0.282677,-1.951795 -0.509716,-3.653547 -0.368434,-2.761561 -0.381058,-3.170061 -0.11746,-3.800939 0.564445,-1.350906 0.511963,-1.344181 10.489158,-1.344181 l 8.961348,0 0,-5.0036867 c 0,-4.3080653 0.04721,-5.0836102 0.339603,-5.5785861 0.705671,-1.19460906 -3.222648,-1.11537727 55.300524,-1.11537727 46.988511,0 54.022881,0.0384528 54.507781,0.29796215 1.22052,0.65320312 1.13235,-5.07292968 1.13235,73.53649792 l 0,72.125449 -0.59362,0.66438 -0.59362,0.66438 -55.042064,0.052 -55.042061,0.052 -0.6341,-0.56657 0,0 z m 107.429835,-73.181693 0,-69.2704321 -51.164501,0 -51.164504,0 0,69.2704321 0,69.270433 51.164504,0 51.164501,0 0,-69.270433 z m -106.804628,-3.254998 0,-54.216065 -7.448563,0 -7.448565,0 0.124656,0.864609 c 0.06856,0.475534 3.327469,24.575236 7.242016,53.554893 7.478393,55.363064 7.292427,54.012624 7.437955,54.012624 0.05088,0 0.0925,-24.39723 0.0925,-54.216061 z M 24.954281,70.067118 C 21.820904,46.908885 19.200574,27.572167 19.131328,27.096633 l -0.125902,-0.864609 -6.814107,0 -6.8141082,0 0.1392395,0.559452 c 0.076582,0.307699 5.5714997,19.189232 12.2109287,41.958963 6.63943,22.76973 12.231016,41.948791 12.425749,42.620131 0.194734,0.67135 0.386492,1.12653 0.426132,1.01153 0.03964,-0.11501 -2.491602,-19.15675 -5.624979,-42.314982 l 0,0 z"
     id="path3860"
     inkscape:connector-curvature="0" /><path
     style="fill:#ff0000;fill-opacity:0;stroke:none"
     d="m 49.363796,88.89074 0,-1.830936 42.721852,0 42.721852,0 0,1.830936 0,1.830937 -42.721852,0 -42.721852,0 0,-1.830937 z"
     id="path3862"
     inkscape:connector-curvature="0" /><path
     style="fill:#ff0000;fill-opacity:0;stroke:none"
     d="m 49.363796,88.89074 0,-1.830936 42.721852,0 42.721852,0 0,1.830936 0,1.830937 -42.721852,0 -42.721852,0 0,-1.830937 z"
     id="path3864"
     inkscape:connector-curvature="0" /><path
     style="fill:#ff0000;fill-opacity:0;stroke:none"
     d="m 49.363796,88.89074 0,-1.830936 42.721852,0 42.721852,0 0,1.830936 0,1.830937 -42.721852,0 -42.721852,0 0,-1.830937 z"
     id="path3866"
     inkscape:connector-curvature="0" /><path
     style="fill:#ff0000;fill-opacity:0;stroke:none"
     d="m 49.363796,88.89074 0,-1.830936 42.721852,0 42.721852,0 0,1.830936 0,1.830937 -42.721852,0 -42.721852,0 0,-1.830937 z"
     id="path3868"
     inkscape:connector-curvature="0" /><path
     style="fill:#ff0000;fill-opacity:0;stroke:none"
     d="m 41.836612,74.344967 0,-69.0669948 50.961067,0 50.961071,0 0,69.0669948 0,69.066993 -50.961071,0 -50.961067,0 0,-69.066993 z m 93.174328,45.061383 0,-2.03437 -42.925292,0 -42.925289,0 0,2.03437 0,2.03437 42.925289,0 42.925292,0 0,-2.03437 z m 0,-15.15609 0,-2.13609 -42.925292,0 -42.925289,0 0,2.13609 0,2.1361 42.925289,0 42.925292,0 0,-2.1361 z m 0,-15.35952 0,-2.034374 -42.925292,0 -42.925289,0 0,2.034374 0,2.034374 42.925289,0 42.925292,0 0,-2.034374 z m -46.383727,-15.461241 0,-2.034374 -19.52999,0 -19.52999,0 0,2.034374 0,2.034373 19.52999,0 19.52999,0 0,-2.034373 z m 46.383727,-15.766398 0,-17.800772 -15.86812,0 -15.86812,0 0,17.800772 0,17.800771 15.86812,0 15.86812,0 0,-17.800771 z m -46.790602,0.508593 0,-2.034374 -19.52999,0 -19.529989,0 0,2.034374 0,2.034374 19.529989,0 19.52999,0 0,-2.034374 z m 0,-15.054367 0,-2.034374 -19.52999,0 -19.529989,0 0,2.034374 0,2.034374 19.529989,0 19.52999,0 0,-2.034374 z m 7.385074,-17.296766 c 3.122974,-1.186636 5.029898,-3.924475 5.047248,-7.246501 0.0123,-2.346522 -0.62076,-3.94022 -2.237291,-5.632759 -4.689466,-4.9099469 -13.054269,-1.75865 -13.408724,5.051508 -0.108944,2.093129 0.313003,3.575163 1.461183,5.132216 2.132628,2.892065 5.784887,3.969461 9.137584,2.695536 l 0,0 z m -12.925366,-7.370018 -0.05424,-5.340231 -18.614521,0 -18.614521,0 -0.05424,5.340231 -0.05424,5.340232 18.722995,0 18.722996,0 -0.05424,-5.340232 z m 57.823704,-0.05086 0,-5.391091 -18.61452,0 -18.61453,0 0,5.391091 0,5.391091 18.61453,0 18.61452,0 0,-5.391091 z"
     id="path3870"
     inkscape:connector-curvature="0" /><path
     style="fill:#ff0000;fill-opacity:0;stroke:none"
     d="m 41.836612,74.344967 0,-69.0669948 50.961067,0 50.961071,0 0,69.0669948 0,69.066993 -50.961071,0 -50.961067,0 0,-69.066993 z m 93.174328,45.061383 0,-2.03437 -42.925292,0 -42.925289,0 0,2.03437 0,2.03437 42.925289,0 42.925292,0 0,-2.03437 z m 0,-15.15609 0,-2.13609 -42.925292,0 -42.925289,0 0,2.13609 0,2.1361 42.925289,0 42.925292,0 0,-2.1361 z m 0,-15.35952 0,-2.034374 -42.925292,0 -42.925289,0 0,2.034374 0,2.034374 42.925289,0 42.925292,0 0,-2.034374 z m -46.383727,-15.461241 0,-2.034374 -19.52999,0 -19.52999,0 0,2.034374 0,2.034373 19.52999,0 19.52999,0 0,-2.034373 z m 46.383727,-15.766398 0,-17.800772 -15.86812,0 -15.86812,0 0,17.800772 0,17.800771 15.86812,0 15.86812,0 0,-17.800771 z m -46.790602,0.508593 0,-2.034374 -19.52999,0 -19.529989,0 0,2.034374 0,2.034374 19.529989,0 19.52999,0 0,-2.034374 z m 0,-15.054367 0,-2.034374 -19.52999,0 -19.529989,0 0,2.034374 0,2.034374 19.529989,0 19.52999,0 0,-2.034374 z m 7.385074,-17.296766 c 3.122974,-1.186636 5.029898,-3.924475 5.047248,-7.246501 0.0123,-2.346522 -0.62076,-3.94022 -2.237291,-5.632759 -4.689466,-4.9099469 -13.054269,-1.75865 -13.408724,5.051508 -0.108944,2.093129 0.313003,3.575163 1.461183,5.132216 2.132628,2.892065 5.784887,3.969461 9.137584,2.695536 l 0,0 z m -12.925366,-7.370018 -0.05424,-5.340231 -18.614521,0 -18.614521,0 -0.05424,5.340231 -0.05424,5.340232 18.722995,0 18.722996,0 -0.05424,-5.340232 z m 57.823704,-0.05086 0,-5.391091 -18.61452,0 -18.61453,0 0,5.391091 0,5.391091 18.61453,0 18.61452,0 0,-5.391091 z"
     id="path3872"
     inkscape:connector-curvature="0" /><path
     style="fill:#ff0000;fill-opacity:0;stroke:none"
     d="m 41.836612,74.344967 0,-69.0669948 50.961067,0 50.961071,0 0,69.0669948 0,69.066993 -50.961071,0 -50.961067,0 0,-69.066993 z m 93.174328,45.061383 0,-2.03437 -42.925292,0 -42.925289,0 0,2.03437 0,2.03437 42.925289,0 42.925292,0 0,-2.03437 z m 0,-15.15609 0,-2.13609 -42.925292,0 -42.925289,0 0,2.13609 0,2.1361 42.925289,0 42.925292,0 0,-2.1361 z m 0,-15.35952 0,-2.034374 -42.925292,0 -42.925289,0 0,2.034374 0,2.034374 42.925289,0 42.925292,0 0,-2.034374 z m -46.383727,-15.461241 0,-2.034374 -19.52999,0 -19.52999,0 0,2.034374 0,2.034373 19.52999,0 19.52999,0 0,-2.034373 z m 46.383727,-15.766398 0,-17.800772 -15.86812,0 -15.86812,0 0,17.800772 0,17.800771 15.86812,0 15.86812,0 0,-17.800771 z m -46.790602,0.508593 0,-2.034374 -19.52999,0 -19.529989,0 0,2.034374 0,2.034374 19.529989,0 19.52999,0 0,-2.034374 z m 0,-15.054367 0,-2.034374 -19.52999,0 -19.529989,0 0,2.034374 0,2.034374 19.529989,0 19.52999,0 0,-2.034374 z m 7.385074,-17.296766 c 3.122974,-1.186636 5.029898,-3.924475 5.047248,-7.246501 0.0123,-2.346522 -0.62076,-3.94022 -2.237291,-5.632759 -4.689466,-4.9099469 -13.054269,-1.75865 -13.408724,5.051508 -0.108944,2.093129 0.313003,3.575163 1.461183,5.132216 2.132628,2.892065 5.784887,3.969461 9.137584,2.695536 l 0,0 z m -12.925366,-7.370018 -0.05424,-5.340231 -18.614521,0 -18.614521,0 -0.05424,5.340231 -0.05424,5.340232 18.722995,0 18.722996,0 -0.05424,-5.340232 z m 57.823704,-0.05086 0,-5.391091 -18.61452,0 -18.61453,0 0,5.391091 0,5.391091 18.61453,0 18.61452,0 0,-5.391091 z"
     id="path3874"
     inkscape:connector-curvature="0" /><path
     style="fill:#ff0000;fill-opacity:0;stroke:none"
     d="m 41.836612,74.344967 0,-69.0669948 50.961067,0 50.961071,0 0,69.0669948 0,69.066993 -50.961071,0 -50.961067,0 0,-69.066993 z m 93.174328,45.061383 0,-2.03437 -42.925292,0 -42.925289,0 0,2.03437 0,2.03437 42.925289,0 42.925292,0 0,-2.03437 z m 0,-15.15609 0,-2.13609 -42.925292,0 -42.925289,0 0,2.13609 0,2.1361 42.925289,0 42.925292,0 0,-2.1361 z m 0,-15.35952 0,-2.034374 -42.925292,0 -42.925289,0 0,2.034374 0,2.034374 42.925289,0 42.925292,0 0,-2.034374 z m -46.383727,-15.461241 0,-2.034374 -19.52999,0 -19.52999,0 0,2.034374 0,2.034373 19.52999,0 19.52999,0 0,-2.034373 z m 46.383727,-15.766398 0,-17.800772 -15.86812,0 -15.86812,0 0,17.800772 0,17.800771 15.86812,0 15.86812,0 0,-17.800771 z m -46.790602,0.508593 0,-2.034374 -19.52999,0 -19.529989,0 0,2.034374 0,2.034374 19.529989,0 19.52999,0 0,-2.034374 z m 0,-15.054367 0,-2.034374 -19.52999,0 -19.529989,0 0,2.034374 0,2.034374 19.529989,0 19.52999,0 0,-2.034374 z m 7.385074,-17.296766 c 3.122974,-1.186636 5.029898,-3.924475 5.047248,-7.246501 0.0123,-2.346522 -0.62076,-3.94022 -2.237291,-5.632759 -4.689466,-4.9099469 -13.054269,-1.75865 -13.408724,5.051508 -0.108944,2.093129 0.313003,3.575163 1.461183,5.132216 2.132628,2.892065 5.784887,3.969461 9.137584,2.695536 l 0,0 z m -12.925366,-7.370018 -0.05424,-5.340231 -18.614521,0 -18.614521,0 -0.05424,5.340231 -0.05424,5.340232 18.722995,0 18.722996,0 -0.05424,-5.340232 z m 57.823704,-0.05086 0,-5.391091 -18.61452,0 -18.61453,0 0,5.391091 0,5.391091 18.61453,0 18.61452,0 0,-5.391091 z"
     id="path3876"
     inkscape:connector-curvature="0" /><path
     style="fill:#ff0000;fill-opacity:0;stroke:none"
     d="m 103.2747,57.663101 0,-17.597335 15.7664,0 15.7664,0 0,17.597335 0,17.597334 -15.7664,0 -15.7664,0 0,-17.597334 z"
     id="path3878"
     inkscape:connector-curvature="0" /><path
     style="fill:#ff0000;fill-opacity:0;stroke:none"
     d="m 103.2747,57.663101 0,-17.597335 15.7664,0 15.7664,0 0,17.597335 0,17.597334 -15.7664,0 -15.7664,0 0,-17.597334 z"
     id="path3880"
     inkscape:connector-curvature="0" /><path
     style="fill:#000000;fill-opacity:0;stroke:none"
     d="m 103.2747,57.663101 0,-17.597335 15.7664,0 15.7664,0 0,17.597335 0,17.597334 -15.7664,0 -15.7664,0 0,-17.597334 z"
     id="path3882"
     inkscape:connector-curvature="0" /><path
     style="fill:#000000;fill-opacity:0;stroke:none"
     d="m 41.836612,74.344967 0,-69.0669948 50.961067,0 50.961071,0 0,69.0669948 0,69.066993 -50.961071,0 -50.961067,0 0,-69.066993 z m 93.174328,45.061383 0,-2.03437 -42.925292,0 -42.925289,0 0,2.03437 0,2.03437 42.925289,0 42.925292,0 0,-2.03437 z m 0,-15.15609 0,-2.13609 -42.925292,0 -42.925289,0 0,2.13609 0,2.1361 42.925289,0 42.925292,0 0,-2.1361 z m 0,-15.35952 0,-2.034374 -42.925292,0 -42.925289,0 0,2.034374 0,2.034374 42.925289,0 42.925292,0 0,-2.034374 z m -46.383727,-15.461241 0,-2.034374 -19.52999,0 -19.52999,0 0,2.034374 0,2.034373 19.52999,0 19.52999,0 0,-2.034373 z m 46.383727,-15.766398 0,-17.800772 -15.86812,0 -15.86812,0 0,17.800772 0,17.800771 15.86812,0 15.86812,0 0,-17.800771 z m -46.790602,0.508593 0,-2.034374 -19.52999,0 -19.529989,0 0,2.034374 0,2.034374 19.529989,0 19.52999,0 0,-2.034374 z m 0,-15.054367 0,-2.034374 -19.52999,0 -19.529989,0 0,2.034374 0,2.034374 19.529989,0 19.52999,0 0,-2.034374 z m 7.385074,-17.296766 c 3.122974,-1.186636 5.029898,-3.924475 5.047248,-7.246501 0.0123,-2.346522 -0.62076,-3.94022 -2.237291,-5.632759 -4.689466,-4.9099469 -13.054269,-1.75865 -13.408724,5.051508 -0.108944,2.093129 0.313003,3.575163 1.461183,5.132216 2.132628,2.892065 5.784887,3.969461 9.137584,2.695536 l 0,0 z m -12.925366,-7.370018 -0.05424,-5.340231 -18.614521,0 -18.614521,0 -0.05424,5.340231 -0.05424,5.340232 18.722995,0 18.722996,0 -0.05424,-5.340232 z m 57.823704,-0.05086 0,-5.391091 -18.61452,0 -18.61453,0 0,5.391091 0,5.391091 18.61453,0 18.61452,0 0,-5.391091 z"
     id="path3884"
     inkscape:connector-curvature="0" /><path
     style="fill:#000000;fill-opacity:0;stroke:none"
     d="m 41.836612,74.344967 0,-69.0669948 50.961067,0 50.961071,0 0,69.0669948 0,69.066993 -50.961071,0 -50.961067,0 0,-69.066993 z m 93.174328,45.061383 0,-2.03437 -42.925292,0 -42.925289,0 0,2.03437 0,2.03437 42.925289,0 42.925292,0 0,-2.03437 z m 0,-15.15609 0,-2.13609 -42.925292,0 -42.925289,0 0,2.13609 0,2.1361 42.925289,0 42.925292,0 0,-2.1361 z m 0,-15.35952 0,-2.034374 -42.925292,0 -42.925289,0 0,2.034374 0,2.034374 42.925289,0 42.925292,0 0,-2.034374 z m -46.383727,-15.461241 0,-2.034374 -19.52999,0 -19.52999,0 0,2.034374 0,2.034373 19.52999,0 19.52999,0 0,-2.034373 z m 46.383727,-15.766398 0,-17.800772 -15.86812,0 -15.86812,0 0,17.800772 0,17.800771 15.86812,0 15.86812,0 0,-17.800771 z m -46.790602,0.508593 0,-2.034374 -19.52999,0 -19.529989,0 0,2.034374 0,2.034374 19.529989,0 19.52999,0 0,-2.034374 z m 0,-15.054367 0,-2.034374 -19.52999,0 -19.529989,0 0,2.034374 0,2.034374 19.529989,0 19.52999,0 0,-2.034374 z m 7.385074,-17.296766 c 3.122974,-1.186636 5.029898,-3.924475 5.047248,-7.246501 0.0123,-2.346522 -0.62076,-3.94022 -2.237291,-5.632759 -4.689466,-4.9099469 -13.054269,-1.75865 -13.408724,5.051508 -0.108944,2.093129 0.313003,3.575163 1.461183,5.132216 2.132628,2.892065 5.784887,3.969461 9.137584,2.695536 l 0,0 z m -12.925366,-7.370018 -0.05424,-5.340231 -18.614521,0 -18.614521,0 -0.05424,5.340231 -0.05424,5.340232 18.722995,0 18.722996,0 -0.05424,-5.340232 z m 57.823704,-0.05086 0,-5.391091 -18.61452,0 -18.61453,0 0,5.391091 0,5.391091 18.61453,0 18.61452,0 0,-5.391091 z"
     id="path3886"
     inkscape:connector-curvature="0" /><path
     style="fill:#000000;fill-opacity:0;stroke:none"
     d="m 41.836612,74.344967 0,-69.0669948 50.961067,0 50.961071,0 0,69.0669948 0,69.066993 -50.961071,0 -50.961067,0 0,-69.066993 z m 93.174328,45.061383 0,-2.03437 -42.925292,0 -42.925289,0 0,2.03437 0,2.03437 42.925289,0 42.925292,0 0,-2.03437 z m 0,-15.15609 0,-2.13609 -42.925292,0 -42.925289,0 0,2.13609 0,2.1361 42.925289,0 42.925292,0 0,-2.1361 z m 0,-15.35952 0,-2.034374 -42.925292,0 -42.925289,0 0,2.034374 0,2.034374 42.925289,0 42.925292,0 0,-2.034374 z m -46.383727,-15.461241 0,-2.034374 -19.52999,0 -19.52999,0 0,2.034374 0,2.034373 19.52999,0 19.52999,0 0,-2.034373 z m 46.383727,-15.766398 0,-17.800772 -15.86812,0 -15.86812,0 0,17.800772 0,17.800771 15.86812,0 15.86812,0 0,-17.800771 z m -46.790602,0.508593 0,-2.034374 -19.52999,0 -19.529989,0 0,2.034374 0,2.034374 19.529989,0 19.52999,0 0,-2.034374 z m 0,-15.054367 0,-2.034374 -19.52999,0 -19.529989,0 0,2.034374 0,2.034374 19.529989,0 19.52999,0 0,-2.034374 z m 7.385074,-17.296766 c 3.122974,-1.186636 5.029898,-3.924475 5.047248,-7.246501 0.0123,-2.346522 -0.62076,-3.94022 -2.237291,-5.632759 -4.689466,-4.9099469 -13.054269,-1.75865 -13.408724,5.051508 -0.108944,2.093129 0.313003,3.575163 1.461183,5.132216 2.132628,2.892065 5.784887,3.969461 9.137584,2.695536 l 0,0 z m -12.925366,-7.370018 -0.05424,-5.340231 -18.614521,0 -18.614521,0 -0.05424,5.340231 -0.05424,5.340232 18.722995,0 18.722996,0 -0.05424,-5.340232 z m 57.823704,-0.05086 0,-5.391091 -18.61452,0 -18.61453,0 0,5.391091 0,5.391091 18.61453,0 18.61452,0 0,-5.391091 z"
     id="path3888"
     inkscape:connector-curvature="0" /><path
     style="fill:#000000;fill-opacity:0;stroke:none"
     d="m 103.2747,57.663101 0,-17.597335 15.7664,0 15.7664,0 0,17.597335 0,17.597334 -15.7664,0 -15.7664,0 0,-17.597334 z"
     id="path3890"
     inkscape:connector-curvature="0" /><path
     style="fill:#000000;fill-opacity:0;stroke:none"
     d="m 103.2747,57.663101 0,-17.597335 15.7664,0 15.7664,0 0,17.597335 0,17.597334 -15.7664,0 -15.7664,0 0,-17.597334 z"
     id="path3892"
     inkscape:connector-curvature="0" /><path
     style="fill:#000000;fill-opacity:0;stroke:none"
     d="m 103.2747,57.663101 0,-17.597335 15.7664,0 15.7664,0 0,17.597335 0,17.597334 -15.7664,0 -15.7664,0 0,-17.597334 z"
     id="path3894"
     inkscape:connector-curvature="0" /></svg>