<?xml version="1.0" encoding="UTF-8"?>
<svg width="150" height="150" xmlns="http://www.w3.org/2000/svg" xmlns:xlink="http://www.w3.org/1999/xlink">
 <g>
  <title>Layer 1</title>
  <use opacity="0.4" x="10.356138" y="4.951529" transform="matrix(0.241403, 0, 0, 0.241403, -0.0124305, 1.29314)" id="svg_232" xlink:href="#svg_231"/>
 </g>
 <defs>
  <svg viewBox="0 0 600.759 600.759" height="600.759px" width="600.759px" y="0px" x="0px" xmlns:xlink="http://www.w3.org/1999/xlink" id="svg_231">
   <g>
    <g>
     <path d="m203.992996,295.286987c21.001007,0 38.024002,17.02301 38.024002,38.018005s-17.02301,38.023987 -38.024002,38.023987c-20.998001,0 -38.020996,-17.028992 -38.020996,-38.023987s17.022995,-38.018005 38.020996,-38.018005z"/>
     <path d="m574.267029,325.821991l25.781982,-203.261993l-184.936005,-70.181999l-221.834,105.959007l-193.279007,-81.627007l26.099001,216.848015l-25.014001,213.534973l205.360007,38.521027l209.459991,-39.892029l184.854034,42.65802l-26.492004,-222.558014zm-159.83902,-251.912994l163.811005,61.731003l-11.276978,88.87999l-163.27301,-41.300995l10.738983,-109.309998zm-21.669006,11.283005l-8.641998,93.059998l-0.141998,-0.033005l-113.046021,14.581009l-0.677002,2.494003c-0.141998,0.537994 -13.257996,48.994995 -27.080002,71.03299c-8.945999,-5.260986 -19.005997,-8.783997 -29.75499,-10.089996l-9.164001,-81.028l188.506012,-90.016998zm-17.28299,207.57399l-98.251007,14.815002c-5.290985,-14.968994 -14.998993,-27.825012 -27.605988,-37.022003c12.862,-20.531006 24.471008,-60.278 27.393982,-70.769989l106.361023,-13.728012l-7.89801,106.705002zm-191.207016,-116.568985l9.078995,80.236008c-29.863998,4.113007 -54.358002,25.199982 -63.335999,53.21698l-83.778992,-12.967987l-8.045002,-77.706009c27.769001,-1.837997 48.599003,-10.875 61.948002,-27c12.034004,-14.513992 15.495003,-31.684998 16.156998,-44.483994l67.975998,28.705002zm-160.081997,-67.601006l84.465,35.668007c-0.242004,11.776993 -2.905006,28.86499 -14.443001,42.790985c-12.037003,14.514008 -31.182003,22.632004 -56.998005,24.261002l-13.023994,-102.719994zm-1.09,382.324989l20.778999,-174.402008l82.625999,12.803009c-0.061996,1.324005 -0.195,2.636017 -0.195,3.989014c0,18.164001 6.306999,34.855988 16.806999,48.108002l-42.912003,34.458984l-13.520996,86.959015l-63.584,-11.916016zm161.878006,30.358002l-90.721001,-17.016998l13.104004,-84.252014l40.836998,-32.780975c12.528,12.949982 29.479996,21.592987 48.421005,23.376984l-11.641006,110.673004zm-43.246002,-187.967987c0,-34.347992 27.934998,-62.281006 62.264008,-62.281006c34.347,0 62.281982,27.934021 62.281982,62.281006c0,34.329987 -27.934982,62.264984 -62.281982,62.264984c-34.330017,0.006012 -62.264008,-27.934998 -62.264008,-62.264984zm64.690002,191.986969l-1.75,-0.330017l12.119995,-115.118988c36.756012,-6.13501 64.899994,-38.075989 64.899994,-76.556c0,-2.080994 -0.149994,-4.113983 -0.312988,-6.158997l96.037994,-14.480988l8.016022,81.91098c-42.132019,1.980011 -73.625,14.932007 -93.449005,38.856995c-23.114014,27.923004 -24.205017,62.737 -23.007996,79.949036l-62.554016,11.927979zm70.246979,-13.380981c-0.931,-16.337006 0.419006,-48.397003 21.264008,-73.565002c18.437988,-22.26001 48.181976,-34.270996 88.243988,-36.091003l8.535004,87.153992l-118.042999,22.502014zm126.307007,-320.945999l163.029999,41.225006l-9.776001,77.016983l-160.973999,-19.431l7.720001,-98.810989zm131.083038,184.774002l-74.175018,-8.819l13.584015,131.580017l-59.428009,-12.77301l-16.85199,-176.033997l1.731995,-0.272003l155.61203,19.753998l23.021973,193.354034l-96.298004,-22.213043l-12.713989,-124.598999l66.110992,7.672028l-0.593994,-7.650024z"/>
    </g>
   </g>
   <g/>
   <g/>
   <g/>
   <g/>
   <g/>
   <g/>
   <g/>
   <g/>
   <g/>
   <g/>
   <g/>
   <g/>
   <g/>
   <g/>
   <g/>
  </svg>
 </defs>
</svg>