<?xml version="1.0" encoding="UTF-8"?>
<svg width="150" height="150" xmlns="http://www.w3.org/2000/svg" xmlns:xlink="http://www.w3.org/1999/xlink">
 <g>
  <title>Layer 1</title>
  <use opacity="0.4" x="4.200742" y="2.0703" transform="matrix(1.0717, 0, 0, 1.0717, -0.0573572, 2.22568)" id="svg_235" xlink:href="#svg_234"/>
 </g>
 <defs>
  <svg viewBox="0 0 131.672 131.673" height="131.673px" width="131.672px" y="0px" x="0px" xmlns:xlink="http://www.w3.org/1999/xlink" id="svg_234">
   <g>
    <g>
     <path d="m35.909,30.896999c19.299,0 34.938999,-3.347 34.938999,-7.488998c0,-4.134001 -15.642998,-7.489001 -34.938999,-7.489001c-19.301001,0 -34.937,3.354001 -34.937,7.491c-0.003,4.141001 15.635,7.487 34.937,7.487zm0,-11.855c5.510002,0 9.979,1.539 9.979,3.431c0,1.897001 -4.471001,3.43 -9.979,3.43c-5.508001,0 -9.983,-1.532999 -9.983,-3.43c-0.005001,-1.893 4.469999,-3.431 9.983,-3.431z"/>
     <path d="m125.75,37.146h-49.171997c-3.164001,0 -5.726006,-1.744999 -5.726006,-3.125999c0,-1.376999 -2.190994,-1.424 -5.237,-0.580002c-4.791996,1.328003 -13.670998,2.605 -29.705997,2.605c-16.028,0 -25.397,-1.508999 -30.188,-2.837997c-3.049,-0.845001 -5.721,0.255001 -5.721,3.417999v68.408997c0,3.159004 2.675,7.110001 5.719,7.959c4.792,1.327003 13.915001,2.760002 29.948999,2.760002c16.035999,0 25.035,-1.428001 29.826004,-2.760002c3.042,-0.848999 5.295998,-4.799995 5.295998,-7.552994c0,-2.750999 2.623001,-5.312004 5.787003,-5.312004h49.172997c2.742004,0 5.921997,-1.592995 5.921997,-4.332001v-54.915997c0.001999,-2.743999 -3.179001,-3.734001 -5.921997,-3.734001zm-7.486,3.740002c1.383003,0 2.495003,1.114998 2.495003,2.496998c0,1.378002 -1.117004,2.493999 -2.495003,2.493999s-2.495003,-1.118999 -2.495003,-2.493999c0,-1.382 1.115005,-2.496998 2.495003,-2.496998zm-9.981003,0c1.377007,0 2.495003,1.114998 2.495003,2.496998c0,1.378002 -1.117996,2.493999 -2.495003,2.493999c-1.382996,0 -2.5,-1.118999 -2.5,-2.493999c0,-1.382 1.122002,-2.496998 2.5,-2.496998zm-9.987999,0c1.381004,0 2.496002,1.114998 2.496002,2.496998c0,1.378002 -1.118004,2.493999 -2.496002,2.493999c-1.376999,0 -2.494995,-1.118999 -2.494995,-2.493999c0,-1.382 1.119995,-2.496998 2.494995,-2.496998zm-9.975998,0c1.373001,0 2.492996,1.114998 2.492996,2.496998c0,1.378002 -1.119995,2.493999 -2.492996,2.493999c-1.383003,0 -2.500999,-1.118999 -2.500999,-2.493999c0.004997,-1.382 1.117996,-2.496998 2.500999,-2.496998zm-9.987,0c1.380997,0 2.496002,1.118 2.496002,2.496998c0,1.378002 -1.118004,2.493999 -2.496002,2.493999c-1.376999,0 -2.489998,-1.118999 -2.489998,-2.493999c-0.006004,-1.383999 1.107994,-2.496998 2.489998,-2.496998zm0,54.897995c-1.382004,0 -2.489998,-1.112999 -2.489998,-2.494995c0,-1.377998 1.112999,-2.495003 2.489998,-2.495003c1.377998,0 2.496002,1.119003 2.496002,2.495003c0,1.381996 -1.119003,2.494995 -2.496002,2.494995zm2.550003,-14.036995c0,2.243996 -1.816002,4.063995 -4.061005,4.063995h-0.301003c-2.246994,0 -4.064995,-1.82 -4.064995,-4.063995v-26.224003c0,-2.243999 1.818001,-4.063 4.064995,-4.063h0.301003c2.244003,0 4.061005,1.819 4.061005,4.063v26.224003l0,0zm7.436996,14.036995c-1.383003,0 -2.500999,-1.112999 -2.500999,-2.494995c0.004997,-1.377998 1.117996,-2.495003 2.500999,-2.495003c1.373001,0 2.492996,1.119003 2.492996,2.495003c0,1.381996 -1.119995,2.494995 -2.492996,2.494995zm9.975998,0c-1.376999,0 -2.494995,-1.112999 -2.494995,-2.494995c0,-1.377998 1.119995,-2.495003 2.494995,-2.495003c1.381004,0 2.496002,1.119003 2.496002,2.495003c0.003998,1.381996 -1.114998,2.494995 -2.496002,2.494995zm9.987999,0c-1.382996,0 -2.5,-1.112999 -2.5,-2.494995c0,-1.377998 1.117004,-2.495003 2.5,-2.495003c1.377007,0 2.495003,1.119003 2.495003,2.495003c0,1.381996 -1.117996,2.494995 -2.495003,2.494995zm9.981003,0c-1.379997,0 -2.495003,-1.112999 -2.495003,-2.494995c0,-1.377998 1.117004,-2.495003 2.495003,-2.495003s2.495003,1.119003 2.495003,2.495003c-0.001999,1.381996 -1.117004,2.494995 -2.495003,2.494995zm7.684998,-15.697998c0,3.162003 -2.562996,5.725998 -5.723,5.725998h-28.627998c-3.161003,0 -5.724998,-2.565994 -5.724998,-5.725998v-22.900997c0,-3.162003 2.568001,-5.725002 5.724998,-5.725002h28.627998c3.161003,0 5.723,2.563 5.723,5.725002v22.900997l0,0z"/>
    </g>
   </g>
   <g/>
   <g/>
   <g/>
   <g/>
   <g/>
   <g/>
   <g/>
   <g/>
   <g/>
   <g/>
   <g/>
   <g/>
   <g/>
   <g/>
   <g/>
  </svg>
 </defs>
</svg>