<?xml version="1.0" encoding="UTF-8" standalone="no"?>
<!-- Generator: Adobe Illustrator 18.1.1, SVG Export Plug-In . SVG Version: 6.00 Build 0)  -->

<svg
   xmlns:dc="http://purl.org/dc/elements/1.1/"
   xmlns:cc="http://creativecommons.org/ns#"
   xmlns:rdf="http://www.w3.org/1999/02/22-rdf-syntax-ns#"
   xmlns:svg="http://www.w3.org/2000/svg"
   xmlns="http://www.w3.org/2000/svg"
   xmlns:sodipodi="http://sodipodi.sourceforge.net/DTD/sodipodi-0.dtd"
   xmlns:inkscape="http://www.inkscape.org/namespaces/inkscape"
   version="1.1"
   id="Capa_1"
   x="0px"
   y="0px"
   viewBox="0 0 150 150"
   xml:space="preserve"
   inkscape:version="0.48.4 r9939"
   width="100%"
   height="100%"
   sodipodi:docname="music.svg"><metadata
     id="metadata41"><rdf:RDF><cc:Work
         rdf:about=""><dc:format>image/svg+xml</dc:format><dc:type
           rdf:resource="http://purl.org/dc/dcmitype/StillImage" /></cc:Work></rdf:RDF></metadata><defs
     id="defs39" /><sodipodi:namedview
     pagecolor="#ffffff"
     bordercolor="#666666"
     borderopacity="1"
     objecttolerance="10"
     gridtolerance="10"
     guidetolerance="10"
     inkscape:pageopacity="0"
     inkscape:pageshadow="2"
     inkscape:window-width="1631"
     inkscape:window-height="1026"
     id="namedview37"
     showgrid="false"
     inkscape:zoom="2.7067945"
     inkscape:cx="26.172726"
     inkscape:cy="25.307073"
     inkscape:window-x="49"
     inkscape:window-y="24"
     inkscape:window-maximized="1"
     inkscape:current-layer="Capa_1" /><g
     id="g3"
     transform="matrix(6.8474737,0,0,6.8474737,-2.2195629,-0.36235582)"
     style="fill:#999999"><path
       style="fill:#999999"
       d="m 10.653,8.76 8.145,-1.321 v 11.043 c 0,0.914 -0.681,1.644 -1.744,1.913 -1.168,0.289 -2.294,-0.2 -2.519,-1.095 -0.224,-0.897 0.541,-1.858 1.708,-2.15 0.527,-0.13 1.047,-0.103 1.481,0.05 v -6.654 l -5.969,1.092 -0.028,8.276 c -0.005,0.783 -0.713,1.554 -1.729,1.805 -1.153,0.289 -2.363,-0.26 -2.492,-1.081 -0.221,-0.886 0.534,-1.837 1.691,-2.127 0.52,-0.13 1.029,-0.104 1.456,0.046 V 8.76 z M 7.591,12.81 7.62,2.581 c 0,0 2.228,-0.119 4.407,3.298 0,0 0.006,-1.764 -1.669,-3.055 C 7.087,0.54 7.096,0 7.096,0 6.472,0.073 6.408,0.547 6.408,0.547 V 11.318 C 5.94,11.154 5.38,11.125 4.806,11.268 c -1.27,0.314 -2.1,1.363 -1.857,2.338 0.143,0.901 1.471,1.506 2.74,1.187 1.115,-0.278 1.894,-1.12 1.9,-1.983 H 7.591 z M 13.515,6.2 c 0.388,-0.097 0.659,-0.39 0.661,-0.69 h 10e-4 l 0.01,-3.559 c 0,0 0.775,-0.041 1.533,1.148 0,0 10e-4,-0.614 -0.582,-1.062 C 14,1.242 14.004,1.054 14.004,1.054 c -0.217,0.025 -0.24,0.19 -0.24,0.19 V 4.992 C 13.602,4.934 13.408,4.924 13.208,4.973 c -0.443,0.109 -0.73,0.475 -0.646,0.814 0.05,0.314 0.512,0.524 0.953,0.413 z m 3.84,0.009 c 0.27,-0.067 0.458,-0.272 0.46,-0.481 l 0.007,-2.479 c 0,0 0.54,-0.029 1.068,0.799 0,0 10e-4,-0.428 -0.404,-0.74 C 17.693,2.754 17.695,2.623 17.695,2.623 17.544,2.641 17.528,2.756 17.528,2.756 V 5.367 C 17.415,5.327 17.279,5.32 17.14,5.355 c -0.308,0.076 -0.509,0.33 -0.45,0.566 0.034,0.219 0.356,0.366 0.665,0.288 z"
       id="path5"
       inkscape:connector-curvature="0" /></g><g
     id="g7"
     transform="translate(0,128.203)" /><g
     id="g9"
     transform="translate(0,128.203)" /><g
     id="g11"
     transform="translate(0,128.203)" /><g
     id="g13"
     transform="translate(0,128.203)" /><g
     id="g15"
     transform="translate(0,128.203)" /><g
     id="g17"
     transform="translate(0,128.203)" /><g
     id="g19"
     transform="translate(0,128.203)" /><g
     id="g21"
     transform="translate(0,128.203)" /><g
     id="g23"
     transform="translate(0,128.203)" /><g
     id="g25"
     transform="translate(0,128.203)" /><g
     id="g27"
     transform="translate(0,128.203)" /><g
     id="g29"
     transform="translate(0,128.203)" /><g
     id="g31"
     transform="translate(0,128.203)" /><g
     id="g33"
     transform="translate(0,128.203)" /><g
     id="g35"
     transform="translate(0,128.203)" /></svg>