<?xml version="1.0" encoding="UTF-8" standalone="no"?>
<svg
   xmlns:dc="http://purl.org/dc/elements/1.1/"
   xmlns:cc="http://creativecommons.org/ns#"
   xmlns:rdf="http://www.w3.org/1999/02/22-rdf-syntax-ns#"
   xmlns:svg="http://www.w3.org/2000/svg"
   xmlns="http://www.w3.org/2000/svg"
   xmlns:xlink="http://www.w3.org/1999/xlink"
   xmlns:sodipodi="http://sodipodi.sourceforge.net/DTD/sodipodi-0.dtd"
   xmlns:inkscape="http://www.inkscape.org/namespaces/inkscape"
   width="150"
   height="150"
   id="svg2"
   version="1.1"
   inkscape:version="0.48.4 r9939"
   sodipodi:docname="music_disc.svg">
  <metadata
     id="metadata70">
    <rdf:RDF>
      <cc:Work
         rdf:about="">
        <dc:format>image/svg+xml</dc:format>
        <dc:type
           rdf:resource="http://purl.org/dc/dcmitype/StillImage" />
      </cc:Work>
    </rdf:RDF>
  </metadata>
  <sodipodi:namedview
     pagecolor="#ffffff"
     bordercolor="#666666"
     borderopacity="1"
     objecttolerance="10"
     gridtolerance="10"
     guidetolerance="10"
     inkscape:pageopacity="0"
     inkscape:pageshadow="2"
     inkscape:window-width="1631"
     inkscape:window-height="1026"
     id="namedview68"
     showgrid="false"
     inkscape:zoom="6.2933334"
     inkscape:cx="98.748188"
     inkscape:cy="78.777649"
     inkscape:window-x="49"
     inkscape:window-y="24"
     inkscape:window-maximized="1"
     inkscape:current-layer="g62" />
  <!-- Created with SVG-edit - http://svg-edit.googlecode.com/ -->
  <defs
     id="defs4">
    <svg
       id="svg_42"
       x="0px"
       y="0px"
       viewBox="0 0 32.001 32.001"
       version="1.1">
      <g
         id="svg_62">
        <g
           id="svg_63">
          <path
             id="svg_64"
             d="m16,0c-8.836,0.002 -15.998,7.164 -16,16c0.002,8.837999 7.164,16 16,16.000999c8.837999,-0.001999 16,-7.163 16.000999,-16.000999c-0.001999,-8.836 -7.163,-15.998 -16.000999,-16zm0,29.999001c-7.732,-0.013 -13.985,-6.267 -14,-13.999001c0.015,-7.732 6.268,-13.985 14,-14c7.733999,0.015 13.986,6.268 14,14c-0.014,7.732 -6.268,13.986 -14,13.999001z"
             fill="#010002" />
          <path
             id="svg_65"
             d="m16,10.001c-3.314,0 -5.999,2.684999 -5.999,5.999c0,3.312 2.684999,6 5.999,6c3.312,0 6,-2.688 6,-6c0,-3.314 -2.688,-5.999 -6,-5.999zm0,9.999999c-2.209,-0.005999 -3.995,-1.792 -3.999,-4.000999c0.004,-2.209 1.79,-3.995 3.999,-3.999c2.209,0.004 3.995001,1.79 4.000999,3.999c-0.005999,2.209 -1.792,3.995001 -4.000999,4.000999z"
             fill="#010002" />
          <circle
             id="svg_66"
             cx="16.001"
             cy="16.001"
             r="2"
             fill="#010002"
             d="m 18.000999,16.000999 c 0,1.10457 -0.89543,2 -2,2 -1.104569,0 -2,-0.89543 -2,-2 0,-1.104569 0.895431,-2 2,-2 1.10457,0 2,0.895431 2,2 z" />
        </g>
      </g>
      <g
         id="svg_67" />
      <g
         id="svg_68" />
      <g
         id="svg_69" />
      <g
         id="svg_70" />
      <g
         id="svg_71" />
      <g
         id="svg_72" />
      <g
         id="svg_73" />
      <g
         id="svg_74" />
      <g
         id="svg_75" />
      <g
         id="svg_76" />
      <g
         id="svg_77" />
      <g
         id="svg_78" />
      <g
         id="svg_79" />
      <g
         id="svg_80" />
      <g
         id="svg_81" />
    </svg>
    <svg
       viewBox="0 0 21.797 21.797"
       y="0px"
       x="0px"
       id="svg_100"
       version="1.1">
      <g
         id="g28">
        <path
           fill="#010002"
           d="m10.653,8.76l8.145,-1.321v11.043c0,0.914 -0.681,1.643999 -1.743999,1.913c-1.168001,0.289 -2.294001,-0.200001 -2.519001,-1.095001c-0.224,-0.896999 0.541,-1.858 1.708,-2.15c0.527,-0.129999 1.047001,-0.102999 1.481001,0.050001v-6.654001l-5.969001,1.092l-0.028,8.276c-0.005,0.783001 -0.713,1.554001 -1.729,1.805c-1.153,0.289 -2.363,-0.26 -2.492,-1.080999c-0.221,-0.886 0.534,-1.837 1.691,-2.127001c0.52,-0.129999 1.029,-0.104 1.456,0.046v-9.796999l0,0zm-3.062,4.05l0.029,-10.229c0,0 2.228,-0.119 4.407001,3.298c0,0 0.006,-1.764 -1.669001,-3.055c-3.271,-2.284 -3.262,-2.824 -3.262,-2.824c-0.624,0.073 -0.688,0.547 -0.688,0.547v10.771c-0.468,-0.164 -1.028,-0.193 -1.602,-0.05c-1.27,0.314 -2.1,1.363 -1.857,2.338c0.143,0.901 1.471,1.506001 2.74,1.187c1.115,-0.278 1.894,-1.12 1.9,-1.983h0.002l0,0zm5.924,-6.610001c0.388,-0.097 0.658999,-0.39 0.660999,-0.69h0.001l0.01,-3.559c0,0 0.775,-0.041 1.533,1.148c0,0 0.000999,-0.614 -0.582001,-1.062c-1.138,-0.795 -1.134,-0.983 -1.134,-0.983c-0.217,0.025 -0.24,0.19 -0.24,0.19v3.748c-0.162,-0.058 -0.356,-0.068 -0.556,-0.019c-0.443,0.109 -0.73,0.475 -0.646,0.814c0.05,0.314 0.512,0.524 0.953,0.413zm3.839999,0.009c0.27,-0.067 0.458,-0.272 0.460001,-0.481l0.007,-2.479c0,0 0.539999,-0.029 1.067999,0.799c0,0 0.001001,-0.428 -0.403999,-0.74c-0.792999,-0.554 -0.791,-0.685 -0.791,-0.685c-0.150999,0.018 -0.167,0.133 -0.167,0.133v2.611c-0.112999,-0.04 -0.249001,-0.047 -0.388,-0.012c-0.307999,0.076 -0.508999,0.33 -0.449999,0.566c0.034,0.219 0.355999,0.366 0.664999,0.288z"
           id="path30" />
      </g>
      <g
         id="g32" />
      <g
         id="g34" />
      <g
         id="g36" />
      <g
         id="g38" />
      <g
         id="g40" />
      <g
         id="g42" />
      <g
         id="g44" />
      <g
         id="g46" />
      <g
         id="g48" />
      <g
         id="g50" />
      <g
         id="g52" />
      <g
         id="g54" />
      <g
         id="g56" />
      <g
         id="g58" />
      <g
         id="g60" />
    </svg>
  </defs>
  <g
     id="g62"
     transform="translate(1.4300847,2.5423729)"
     style="fill:#666666">
    <title
       id="title64">Layer 1</title>
    <use
       xlink:href="#svg_42"
       id="svg_43"
       transform="matrix(0.773201,0,0,0.773201,1349.4055,433.44212)"
       y="-542.77313"
       x="-1724.2432"
       style="opacity:0.40000000000000002;fill:#241f1c;stroke:#ffffff;stroke-width:0.30000000999999998"
       width="150"
       height="150" />
    <g
       id="g3127"
       transform="matrix(0.34085667,0,0,0.34085667,79.874744,84.893232)"
       style="fill:#666666">
      <g
         style="fill:#666666"
         transform="matrix(6.8474737,0,0,6.8474737,-2.2195629,-0.36235582)"
         id="g3">
        <path
           inkscape:connector-curvature="0"
           id="path5"
           d="m 10.653,8.76 8.145,-1.321 v 11.043 c 0,0.914 -0.681,1.644 -1.744,1.913 -1.168,0.289 -2.294,-0.2 -2.519,-1.095 -0.224,-0.897 0.541,-1.858 1.708,-2.15 0.527,-0.13 1.047,-0.103 1.481,0.05 v -6.654 l -5.969,1.092 -0.028,8.276 c -0.005,0.783 -0.713,1.554 -1.729,1.805 -1.153,0.289 -2.363,-0.26 -2.492,-1.081 -0.221,-0.886 0.534,-1.837 1.691,-2.127 0.52,-0.13 1.029,-0.104 1.456,0.046 V 8.76 z M 7.591,12.81 7.62,2.581 c 0,0 2.228,-0.119 4.407,3.298 0,0 0.006,-1.764 -1.669,-3.055 C 7.087,0.54 7.096,0 7.096,0 6.472,0.073 6.408,0.547 6.408,0.547 V 11.318 C 5.94,11.154 5.38,11.125 4.806,11.268 c -1.27,0.314 -2.1,1.363 -1.857,2.338 0.143,0.901 1.471,1.506 2.74,1.187 1.115,-0.278 1.894,-1.12 1.9,-1.983 H 7.591 z M 13.515,6.2 c 0.388,-0.097 0.659,-0.39 0.661,-0.69 h 10e-4 l 0.01,-3.559 c 0,0 0.775,-0.041 1.533,1.148 0,0 10e-4,-0.614 -0.582,-1.062 C 14,1.242 14.004,1.054 14.004,1.054 c -0.217,0.025 -0.24,0.19 -0.24,0.19 V 4.992 C 13.602,4.934 13.408,4.924 13.208,4.973 c -0.443,0.109 -0.73,0.475 -0.646,0.814 0.05,0.314 0.512,0.524 0.953,0.413 z m 3.84,0.009 c 0.27,-0.067 0.458,-0.272 0.46,-0.481 l 0.007,-2.479 c 0,0 0.54,-0.029 1.068,0.799 0,0 10e-4,-0.428 -0.404,-0.74 C 17.693,2.754 17.695,2.623 17.695,2.623 17.544,2.641 17.528,2.756 17.528,2.756 V 5.367 C 17.415,5.327 17.279,5.32 17.14,5.355 c -0.308,0.076 -0.509,0.33 -0.45,0.566 0.034,0.219 0.356,0.366 0.665,0.288 z"
           style="fill:#666666" />
      </g>
      <g
         transform="translate(0,128.203)"
         id="g7"
         style="fill:#666666" />
      <g
         transform="translate(0,128.203)"
         id="g9"
         style="fill:#666666" />
      <g
         transform="translate(0,128.203)"
         id="g11"
         style="fill:#666666" />
      <g
         transform="translate(0,128.203)"
         id="g13"
         style="fill:#666666" />
      <g
         transform="translate(0,128.203)"
         id="g15"
         style="fill:#666666" />
      <g
         transform="translate(0,128.203)"
         id="g17"
         style="fill:#666666" />
      <g
         transform="translate(0,128.203)"
         id="g19"
         style="fill:#666666" />
      <g
         transform="translate(0,128.203)"
         id="g21"
         style="fill:#666666" />
      <g
         transform="translate(0,128.203)"
         id="g23"
         style="fill:#666666" />
      <g
         transform="translate(0,128.203)"
         id="g25"
         style="fill:#666666" />
      <g
         transform="translate(0,128.203)"
         id="g27"
         style="fill:#666666" />
      <g
         transform="translate(0,128.203)"
         id="g29"
         style="fill:#666666" />
      <g
         transform="translate(0,128.203)"
         id="g31"
         style="fill:#666666" />
      <g
         transform="translate(0,128.203)"
         id="g33"
         style="fill:#666666" />
      <g
         transform="translate(0,128.203)"
         id="g35"
         style="fill:#666666" />
    </g>
    <path
       style="fill:#ff0000;stroke:#666666;stroke-width:0.15889831"
       d="m 73.117892,125.43943 c -5.074969,-0.38368 -8.864122,-1.06779 -12.712457,-2.29516 -8.142995,-2.59709 -14.895741,-6.70022 -20.902063,-12.70058 -8.39382,-8.3855 -13.383209,-18.810904 -14.793361,-30.910958 -0.26232,-2.25089 -0.26232,-8.236398 0,-10.487288 0.831605,-7.135725 3.025513,-14.042378 6.258809,-19.703389 4.921491,-8.616782 11.807145,-15.387226 20.411871,-20.070339 10.413604,-5.667593 22.900505,-7.522325 34.471768,-5.120238 14.087363,2.924405 26.306861,11.597258 33.700901,23.91939 6.44309,10.737367 8.70702,23.651374 6.31027,35.995238 -0.62159,3.201362 -1.50759,6.161062 -2.91939,9.752302 l -0.18143,0.461523 -0.46181,-0.442439 c -0.80547,-0.771687 -0.95747,-0.520117 -0.95747,1.584615 0,1.741101 -0.0259,1.888074 -0.49607,2.819553 -0.27284,0.540488 -0.68163,1.271368 -0.90843,1.624177 -0.2268,0.352813 -0.54879,0.891733 -0.71552,1.197613 -0.43893,0.80523 -2.46462,3.73437 -3.03438,4.38771 l -0.48649,0.55786 -5.1642,0.83203 -5.16419,0.83203 -0.0424,4.16865 -0.0424,4.16865 -1.78496,1.16715 c -2.69696,1.7635 -7.444037,4.25968 -7.670371,4.03334 -0.04346,-0.0435 0.202543,-0.27415 0.546682,-0.51264 0.344139,-0.23848 0.806901,-0.69601 1.028364,-1.01672 0.88099,-1.27579 0.894043,-1.3741 0.894247,-6.73531 1.05e-4,-2.73387 0.04752,-8.24199 0.105362,-12.24027 0.120898,-8.356508 -0.101925,-7.542941 1.883366,-6.876502 2.8275,0.949159 5.55312,3.2919 8.05307,6.921812 l 0.26973,0.39166 0.006,-0.63559 c 0.009,-0.871206 -0.76232,-3.010899 -1.4673,-4.073001 -0.85312,-1.285285 -1.66363,-2.038336 -4.34132,-4.033544 -2.899716,-2.160653 -4.828786,-3.836725 -5.307662,-4.611564 -0.303642,-0.491303 -0.41488,-0.559259 -0.771345,-0.471216 -0.229093,0.05658 -0.613171,0.289918 -0.853505,0.51852 l -0.43697,0.415641 0,12.685164 0,12.68516 -0.43697,-0.1222 c -0.89046,-0.24902 -3.090755,-0.10218 -4.066791,0.2714 -1.934059,0.74028 -3.433359,2.44485 -3.566906,4.05525 -0.108617,1.30977 0.07062,1.93383 0.774867,2.69784 0.977627,1.0606 1.963456,1.4238 3.879486,1.42928 0.873941,0.002 1.839248,-0.0482 2.145127,-0.11265 l 0.556145,-0.11719 -0.476695,0.23222 c -0.772801,0.37647 -4.630971,1.60164 -6.451672,2.04875 -1.979024,0.48599 -4.699017,0.96268 -6.816337,1.19459 -1.669207,0.18283 -6.621408,0.33373 -7.865466,0.23967 l -4e-6,0 z m 39.588388,-23.84126 c 0.96912,-0.45988 1.01013,-0.67801 1.01013,-5.373225 0,-3.270885 0.0446,-4.217913 0.19862,-4.215207 0.72143,0.01268 2.25205,1.149353 2.93737,2.181363 0.32568,0.490425 0.54595,0.449097 0.42345,-0.07945 -0.19576,-0.844672 -0.8512,-1.744035 -1.76378,-2.420177 -0.50695,-0.375601 -1.2174,-0.965787 -1.57878,-1.311525 -0.40165,-0.384259 -0.77225,-0.606451 -0.95339,-0.571605 -0.27959,0.05379 -0.29871,0.309437 -0.3385,4.524296 l -0.0422,4.467288 -0.89768,0.07444 c -0.78448,0.06505 -0.96451,0.147368 -1.42765,0.652733 -0.66355,0.724069 -0.682,1.249859 -0.0655,1.866369 0.38092,0.38092 0.59813,0.46447 1.20745,0.46447 0.40864,0 0.98932,-0.11689 1.29041,-0.25977 l 0,0 z M 80.586112,94.973983 c 6.820361,-1.730749 12.127433,-6.263351 14.693413,-12.549181 2.000897,-4.901555 2.142537,-10.332252 0.39736,-15.235249 -2.495462,-7.010896 -8.420734,-12.163515 -15.805816,-13.744752 -1.899901,-0.406791 -6.515793,-0.407516 -8.42161,-0.0013 -7.619264,1.623926 -13.534682,6.863412 -15.971861,14.146816 -1.245509,3.722146 -1.395391,8.383069 -0.39253,12.206588 1.782574,6.79626 7.07103,12.397649 13.845154,14.664413 2.556647,0.855508 3.894655,1.035877 7.206737,0.971501 2.417218,-0.04698 3.106254,-0.118039 4.449153,-0.458816 l 0,-4.9e-5 z"
       id="path3041"
       inkscape:connector-curvature="0"
       transform="translate(-1.4300847,-2.5423729)" />
    <path
       style="fill:#ffffff;stroke:#666666;stroke-width:0.15889830999999999"
       d="m 73.753485,89.132742 c -4.608338,-0.618781 -8.815867,-3.468963 -11.122414,-7.534332 -1.478163,-2.605314 -2.179194,-5.978342 -1.836714,-8.837405 0.444086,-3.707292 1.925989,-6.686637 4.593494,-9.235157 2.840275,-2.713581 6.295141,-4.109486 10.192964,-4.118366 2.684716,-0.0061 4.77855,0.515594 7.104499,1.770195 8.92126,4.812066 10.573645,16.836218 3.278372,23.856194 -2.642548,2.542829 -5.949696,3.969572 -9.667828,4.170818 -0.786547,0.04257 -1.930615,0.0102 -2.542373,-0.07195 z m 3.940546,-8.409971 c 1.906738,-0.588931 3.668588,-2.277221 4.328588,-4.147862 0.379796,-1.076452 0.453464,-2.632088 0.179735,-3.795355 -1.212984,-5.154816 -7.583256,-6.976289 -11.322162,-3.237383 -0.470155,0.470155 -0.991296,1.122761 -1.158091,1.450236 -1.418031,2.784078 -0.962796,5.950346 1.160851,8.073994 1.802387,1.802386 4.340193,2.419549 6.811079,1.65637 l 0,0 z"
       id="path3043"
       inkscape:connector-curvature="0"
       transform="translate(-1.4300847,-2.5423729)" />
    <path
       style="fill:#ffffff;stroke:#666666;stroke-width:0.15889830999999999"
       d="M 70.49607,125.05142 C 63.603894,124.21441 57.837841,122.47467 52.12324,119.50795 45.13222,115.87858 38.716334,110.27524 34.056649,103.72941 28.966749,96.579218 25.808456,88.178711 24.881405,79.32486 24.624816,76.8743 24.774332,69.246209 25.120249,67.13934 27.02799,55.519898 31.760042,46.156927 39.737491,38.217253 46.839862,31.148512 55.629319,26.386439 65.252425,24.393417 c 3.996665,-0.82774 5.329295,-0.947274 10.566738,-0.947805 5.270461,-5.36e-4 6.465964,0.110916 10.407839,0.97028 18.498258,4.032783 33.293568,17.876159 38.443028,35.969595 1.44594,5.080528 1.83265,8.057995 1.82642,14.0625 -0.004,4.136176 -0.0522,5.071822 -0.36206,7.070974 -0.59495,3.83856 -1.97557,8.974465 -3.15335,11.730493 l -0.29361,0.68706 -0.41894,-0.329539 c -0.23042,-0.181248 -0.49882,-0.32954 -0.59644,-0.32954 -0.31521,0 -0.48742,0.782544 -0.48742,2.214943 0,0.788714 -0.0959,1.668604 -0.21974,2.015609 -0.60553,1.697115 -4.53635,7.696073 -5.38831,8.223293 -0.19285,0.11934 -2.53152,0.55748 -5.19704,0.97364 -3.50353,0.547 -4.90143,0.82527 -5.04502,1.00428 -0.1469,0.18314 -0.19913,1.28449 -0.20059,4.22943 l -0.002,3.98181 -0.5939,0.3891 c -2.32445,1.52286 -7.214426,4.2984 -7.572962,4.2984 -0.06609,0 0.06837,-0.22406 0.298805,-0.49791 0.230431,-0.27385 0.572239,-0.79226 0.75957,-1.15201 0.335212,-0.64374 0.342607,-0.83399 0.467053,-12.01533 0.123792,-11.122472 0.176412,-12.748572 0.425594,-13.151756 0.254993,-0.412587 3.04639,0.823162 4.74687,2.101434 1.2068,0.907169 3.0625,2.882118 4.11044,4.374582 0.42833,0.61003 0.83241,1.1103 0.89796,1.11172 0.23085,0.005 0.11537,-1.24756 -0.2143,-2.324433 -0.49929,-1.630941 -1.30517,-3.046441 -2.32706,-4.087433 -0.50308,-0.512472 -2.0945,-1.833772 -3.5365,-2.93622 -1.44201,-1.102449 -3.284504,-2.667241 -4.094445,-3.477317 -0.809942,-0.810077 -1.528861,-1.472865 -1.597599,-1.472865 -0.06874,0 -0.460746,0.212938 -0.87113,0.473196 l -0.746151,0.473194 -4.77e-4,12.675638 -4.77e-4,12.67564 -1.946081,0 c -1.778743,0 -2.024212,0.0366 -2.854675,0.42586 -1.819929,0.853 -3.078996,2.46259 -3.254202,4.16017 -0.113659,1.10124 0.158317,1.93079 0.884247,2.69703 0.95112,1.00394 1.619731,1.2638 3.516894,1.36685 l 1.668432,0.0906 -1.271186,0.42763 c -3.191976,1.0738 -5.482322,1.63557 -9.045494,2.21867 -1.51449,0.24784 -2.905592,0.3263 -6.605989,0.37259 -2.578125,0.0323 -5.223782,-0.006 -5.879237,-0.0861 l 1.1e-4,0 z m 42.09928,-23.25651 c 0.30106,-0.10877 0.69333,-0.39325 0.87172,-0.63218 0.30262,-0.40533 0.32756,-0.69727 0.37236,-4.358483 0.0264,-2.158232 0.0826,-4.085614 0.1248,-4.283072 l 0.0768,-0.359015 0.62715,0.319947 c 0.34493,0.17597 1.05821,0.76321 1.58506,1.304979 1.03633,1.06567 1.39977,1.10895 1.11998,0.133365 -0.25024,-0.872519 -0.90174,-1.666812 -2.36101,-2.878487 -1.54542,-1.283211 -2.01636,-1.556665 -2.26046,-1.312559 -0.0967,0.09668 -0.20068,1.920348 -0.25894,4.540873 l -0.0974,4.379304 -0.82618,0.103225 c -1.9315,0.241325 -2.60263,2.437963 -0.95135,3.113823 0.46017,0.18834 1.34662,0.15619 1.97746,-0.0717 l 0,0 z M 79.950519,95.236864 c 3.941499,-0.770836 7.870867,-2.895384 10.80779,-5.843607 3.116469,-3.128461 5.020364,-6.726315 5.901218,-11.151732 0.394176,-1.980345 0.390376,-6.149277 -0.0073,-8.004344 -0.968296,-4.516917 -2.814408,-7.977689 -5.891003,-11.043432 -2.887483,-2.877297 -6.184295,-4.720288 -10.367244,-5.795516 -1.11092,-0.285563 -4.605727,-0.439367 -6.787079,-0.298696 -9.075425,0.585259 -16.874777,7.477772 -18.864945,16.671497 -0.482951,2.231025 -0.521604,6.82019 -0.07481,8.881324 1.549705,7.148968 6.479345,12.958365 13.207093,15.564062 1.90259,0.736883 3.396893,1.122549 5.005297,1.291819 1.663231,0.175039 5.551334,0.02582 7.070974,-0.271375 l -10e-7,0 z"
       id="path3045"
       inkscape:connector-curvature="0"
       transform="translate(-1.4300847,-2.5423729)" />
    <path
       style="fill:#f9f9f9;stroke:#666666;stroke-width:0.15889830999999999"
       d="m 71.131663,124.89428 c -4.227245,-0.29094 -9.882123,-1.65026 -14.300848,-3.43765 -15.917202,-6.43857 -27.542597,-20.37867 -30.987171,-37.156949 -0.863991,-4.208439 -1.106101,-8.28225 -0.809359,-13.618488 0.54917,-9.875606 4.487362,-19.986267 10.892099,-27.963682 0.750097,-0.934282 2.417629,-2.760818 3.705627,-4.058968 7.729916,-7.790847 16.633582,-12.447445 27.765542,-14.52132 1.689042,-0.314667 2.553092,-0.362444 7.566702,-0.418401 6.15951,-0.06875 7.400658,0.02624 11.063925,0.846764 8.917554,1.997407 16.5496,5.873338 23.31852,11.842295 8.63723,7.616462 14.46042,18.146103 16.47627,29.792828 0.32462,1.875508 0.35538,2.571624 0.36091,8.167828 0.007,6.652654 0.008,6.640558 -1.04219,11.202331 -0.49998,2.172418 -1.6773,6.068491 -2.20765,7.305762 l -0.31295,0.730063 -0.49964,-0.258373 c -0.79149,-0.409298 -0.93535,-0.131553 -1.09261,2.109391 -0.10281,1.465074 -0.21536,2.068317 -0.48421,2.595302 -0.99143,1.943374 -4.16867,6.724067 -4.86237,7.316247 -0.34944,0.2983 -1.63351,0.57443 -6.18299,1.32956 -1.83875,0.3052 -3.56402,0.6319 -3.83392,0.72598 -0.64722,0.22563 -0.68443,0.48932 -0.6866,4.86646 l -0.002,3.52125 -1.07256,0.67927 c -1.94962,1.23472 -6.115651,3.63947 -6.305077,3.63947 -0.03716,0 0.142473,-0.41115 0.399179,-0.91367 l 0.466739,-0.91366 0.158737,-10.64619 c 0.180968,-12.137078 0.241262,-13.567539 0.577303,-13.69649 0.284401,-0.109136 1.896629,0.56373 3.237429,1.351143 1.32388,0.777476 3.2207,2.576901 4.79365,4.547523 0.70277,0.880434 1.35872,1.600794 1.45768,1.600794 0.1169,0 0.17073,-0.33399 0.15367,-0.95339 -0.0463,-1.68212 -1.14983,-4.108518 -2.51669,-5.533713 -0.34989,-0.364827 -1.92299,-1.709237 -3.49576,-2.987577 -1.57278,-1.278342 -3.533278,-2.940815 -4.356668,-3.694386 -0.823392,-0.753572 -1.538435,-1.36946 -1.588983,-1.36864 -0.05055,7.94e-4 -0.467308,0.21678 -0.926126,0.479909 l -0.834216,0.478419 0,12.708648 0,12.70865 -1.96085,0 c -1.863421,0 -2.008535,0.0238 -2.920573,0.47958 -2.232666,1.11568 -3.597315,3.5761 -3.069869,5.53488 0.229973,0.85405 1.283949,2.03528 2.166772,2.42837 0.357974,0.1594 1.178695,0.33887 1.823824,0.39883 l 1.172961,0.10901 -1.108781,0.37858 c -1.662322,0.56758 -5.155644,1.42875 -7.305815,1.80102 -2.88364,0.49926 -9.043061,0.72336 -12.791313,0.46539 l 0,0 z m 41.970007,-23.21009 c 0.25107,-0.17877 0.5291,-0.46072 0.61785,-0.62655 0.0887,-0.16583 0.20041,-2.00209 0.24814,-4.08058 0.0899,-3.914817 0.13737,-4.494116 0.36832,-4.494116 0.0752,0 0.72126,0.505034 1.43558,1.122299 1.40085,1.210522 1.87544,1.35493 1.78517,0.543186 -0.0711,-0.639709 -0.66468,-1.621283 -1.40408,-2.321992 -1.05868,-1.003297 -2.95365,-2.378023 -3.20991,-2.328673 -0.38308,0.07377 -0.47511,0.859197 -0.59485,5.076266 l -0.11125,3.918416 -0.72364,0.108518 c -1.02647,0.153926 -1.93003,1.059599 -1.92289,1.927376 0.006,0.70353 0.22756,1.05837 0.88393,1.41425 0.60277,0.32683 1.99852,0.18957 2.62763,-0.2584 z M 79.166462,95.490504 c 3.900979,-0.542575 8.20138,-2.671249 11.275821,-5.581463 2.940502,-2.78343 4.938418,-6.154778 6.055001,-10.21741 0.418377,-1.52224 0.437112,-1.749169 0.446037,-5.402543 l 0.0093,-3.813559 -0.506299,-1.756327 C 95.304007,64.75652 93.621224,61.870212 90.846463,59.1143 88.258944,56.544357 85.6799,54.953019 82.233174,53.799673 c -1.941105,-0.649535 -3.691157,-0.8805 -6.652359,-0.877956 -3.35157,0.0029 -5.887754,0.4783 -8.462326,1.586299 -5.763307,2.480314 -10.083,7.282149 -12.007238,13.347429 -0.636201,2.005332 -0.846772,3.67467 -0.840132,6.660296 0.0068,3.052891 0.188726,4.380351 0.885905,6.46384 2.473946,7.39328 8.502335,12.786317 16.133537,14.433173 1.26556,0.273114 6.126289,0.3211 7.875901,0.07775 z"
       id="path3047"
       inkscape:connector-curvature="0"
       transform="translate(-1.4300847,-2.5423729)" />
  </g>
</svg>
