<?xml version="1.0" encoding="UTF-8"?>
<svg width="150" height="150" xmlns="http://www.w3.org/2000/svg" xmlns:xlink="http://www.w3.org/1999/xlink">
 <g>
  <title>Layer 1</title>
  <use opacity="0.4" x="7.438288" y="7.271217" transform="matrix(0.268879, 0, 0, 0.268879, -0.0255412, 0.020433)" id="svg_170" xlink:href="#svg_169"/>
 </g>
 <defs>
  <svg viewBox="0 0 543.185 543.185" height="543.185px" width="543.185px" y="0px" x="0px" xmlns:xlink="http://www.w3.org/1999/xlink" id="svg_169">
   <g>
    <path d="m534.643982,1.79h-390.736984c-4.720001,0 -8.539993,3.828 -8.539993,8.544v34.132h-63.362007c-2.458,0 -4.806999,1.063999 -6.426994,2.918999c-1.620003,1.861 -2.353004,4.320004 -2.036003,6.763l3.319,24.521h-58.32c-2.679,0 -5.22,1.264 -6.835,3.411003c-1.613,2.145996 -2.117,4.924995 -1.362,7.518997l129.986994,445.632996c1.086014,3.737976 4.492004,6.161987 8.209,6.161987c0.790009,0 396.100021,0 396.100021,0c4.714966,0 8.544983,-3.809998 8.544983,-8.547974v-522.507009c0,-4.721 -3.830994,-8.549 -8.541016,-8.549zm-399.275986,59.765v395.790001l-53.573997,-395.790001h53.573997l0,0zm-66.197998,34.196999l42.646004,314.99501l-91.888002,-314.99501h49.241999l0,0zm456.931015,428.554031h-373.654007v-505.42503h373.662003v505.42503h-0.007996l0,0zm-224.199005,-437.950027h-135.823013v-38.445004h135.818008l0.005005,38.445004l0,0zm211.417999,0h-135.821014v-38.445004h135.81601l0.005005,38.445004l0,0zm-202.651001,-19.220001c0,-15.796001 12.809998,-28.616001 28.604004,-28.616001c15.802002,0 28.621979,12.814999 28.621979,28.616001c0,15.805 -12.825989,28.615997 -28.621979,28.615997c-15.799011,0 -28.604004,-12.815002 -28.604004,-28.615997zm182.513,208.302994h-115.683014v-129.850998h115.679016l0.003998,129.850998l0,0zm-170.994019,-110.766998h-142.222992v-14.242996h142.222992v14.242996l0,0zm-142.222992,40.423996h142.222992v14.244003h-142.222992v-14.244003l0,0zm1.600998,55.910019h142.224991v14.241974h-142.224991v-14.241974l0,0zm-1.600998,56.320984h313.21701v14.237h-313.21701v-14.237l0,0zm0,56.231018h313.21701v14.237h-313.21701v-14.237l0,0zm0,55.519989h313.21701v14.247009h-313.21701v-14.247009l0,0z"/>
   </g>
   <g/>
   <g/>
   <g/>
   <g/>
   <g/>
   <g/>
   <g/>
   <g/>
   <g/>
   <g/>
   <g/>
   <g/>
   <g/>
   <g/>
   <g/>
  </svg>
 </defs>
</svg>