<?xml version="1.0" encoding="UTF-8" standalone="no"?>
<!-- Generator: Adobe Illustrator 18.0.0, SVG Export Plug-In . SVG Version: 6.00 Build 0)  -->

<svg
   xmlns:dc="http://purl.org/dc/elements/1.1/"
   xmlns:cc="http://creativecommons.org/ns#"
   xmlns:rdf="http://www.w3.org/1999/02/22-rdf-syntax-ns#"
   xmlns:svg="http://www.w3.org/2000/svg"
   xmlns="http://www.w3.org/2000/svg"
   xmlns:sodipodi="http://sodipodi.sourceforge.net/DTD/sodipodi-0.dtd"
   xmlns:inkscape="http://www.inkscape.org/namespaces/inkscape"
   version="1.1"
   id="Capa_1"
   x="0px"
   y="0px"
   viewBox="0 0 150 150"
   xml:space="preserve"
   inkscape:version="0.48.4 r9939"
   width="100%"
   height="100%"
   sodipodi:docname="partitur.svg"><metadata
     id="metadata49"><rdf:RDF><cc:Work
         rdf:about=""><dc:format>image/svg+xml</dc:format><dc:type
           rdf:resource="http://purl.org/dc/dcmitype/StillImage" /></cc:Work></rdf:RDF></metadata><defs
     id="defs47" /><sodipodi:namedview
     pagecolor="#ffffff"
     bordercolor="#666666"
     borderopacity="1"
     objecttolerance="10"
     gridtolerance="10"
     guidetolerance="10"
     inkscape:pageopacity="0"
     inkscape:pageshadow="2"
     inkscape:window-width="1631"
     inkscape:window-height="1026"
     id="namedview45"
     showgrid="false"
     inkscape:zoom="4.3006834"
     inkscape:cx="127.12643"
     inkscape:cy="91.698404"
     inkscape:window-x="49"
     inkscape:window-y="24"
     inkscape:window-maximized="1"
     inkscape:current-layer="Capa_1" /><g
     id="g3"
     transform="matrix(0.34057204,0,0,0.34057204,-0.30037888,0.25635575)"
     style="fill:#999999"><path
       d="m 388.318,65.216 c -0.01,-1.027 -0.407,-2.035 -1.163,-2.79 L 325.902,1.172 C 325.141,0.411 324.141,0.029 323.132,0.014 323.112,0.012 50.673,0 50.673,0 v 439 h 337.653 c 10e-4,0 -0.008,-373.771 -0.008,-373.784 z m -56.14,-46.454 42.491,42.492 h -47.446 c 7.298,-16.754 7.008,-31.769 4.955,-42.492 z M 380.327,431 H 58.673 V 8 h 261.885 c 2.939,6.725 10.689,29.253 -3.241,55.371 -0.661,1.24 -0.624,2.736 0.1,3.94 0.723,1.205 2.024,1.942 3.43,1.942 h 59.48 V 431 z"
       id="path5"
       inkscape:connector-curvature="0"
       style="fill:#999999" /><path
       d="m 77.959,387.771 h 279.083 v -8 H 85.959 v -7.592 h 271.083 v -8 h -41.104 v -7.592 h 41.104 v -8 h -41.104 v -18.933 h -69.253 v 18.933 H 85.959 V 315.38 h 44.9 v 7.138 h 8 v -7.138 h 20.956 v 22.729 h 8 V 315.38 h 189.226 v -8 H 173.839 v -7.592 h 183.203 v -8 H 144.883 v -7.592 h 212.159 v -8 H 77.959 v 111.575 z m 176.725,-23.592 v -7.592 h 17.16 v 7.592 h -17.16 z m 46.116,0 h -14.934 v -7.592 H 300.8 v 7.592 z m 7.137,-26.525 v 10.933 h -22.07 v -10.933 h 22.07 z m -53.253,0 h 23.183 v 10.933 h -23.183 v -10.933 z m -15.138,18.933 v 7.592 H 85.959 v -7.592 H 239.546 z M 85.959,307.38 v -7.592 h 44.9 v 7.592 h -44.9 z m 73.856,0 h -20.956 v -7.592 h 20.956 v 7.592 z m -28.956,-23.184 v 7.592 h -44.9 v -7.592 h 44.9 z"
       id="path7"
       inkscape:connector-curvature="0"
       style="fill:#999999" /><rect
       x="143.769"
       y="75.731003"
       width="150.349"
       height="8"
       id="rect9"
       style="fill:#999999" /><rect
       x="171.61099"
       y="59.026001"
       width="94.664001"
       height="8"
       id="rect11"
       style="fill:#999999" /><path
       d="m 311.482,120.938 h -8 v 7.137 h -36.548 v -16.047 h -8 v 16.047 h -78.868 v -18.933 h -39.183 v 18.933 H 77.959 v 111.573 h 279.083 v -8 H 237.978 v -7.591 h 119.063 v -8 h -15.489 v -7.592 h 15.489 v -8 h -15.489 v -11.592 h -8 v 11.592 h -95.574 v -18.934 h -39.183 v 18.934 H 85.959 v -33.207 h 271.083 v -8 h -45.56 v -7.592 h 45.56 v -8 h -45.56 v -7.592 h 45.56 v -8 h -45.56 v -7.136 z m -58.571,15.137 v 7.592 h -72.845 v -7.592 h 72.845 z m -104.028,7.592 v -7.592 h 23.183 v 7.592 h -23.183 z m 0,-26.524 h 23.183 v 10.933 h -23.183 v -10.933 z m -15.137,18.932 v 7.592 H 85.959 v -7.592 h 47.787 z m 90.209,95.573 H 85.959 v -7.591 h 137.996 v 7.591 z m -17.16,-15.59 v -7.592 h 23.183 v 7.592 h -23.183 z m 120.734,-7.592 v 7.592 h -89.551 v -7.592 h 89.551 z M 206.795,189.532 h 23.183 v 10.934 h -23.183 v -10.934 z m -15.137,18.934 v 7.592 H 85.959 v -7.592 H 191.658 z M 85.959,151.667 h 80.084 v 7.592 H 85.959 v -7.592 z m 211.499,7.592 H 180.066 v -7.592 h 117.393 v 7.592 z m 6.024,-15.592 h -36.548 v -7.592 h 36.548 v 7.592 z"
       id="path13"
       inkscape:connector-curvature="0"
       style="fill:#999999" /></g><g
     id="g15"
     transform="translate(0,-289)" /><g
     id="g17"
     transform="translate(0,-289)" /><g
     id="g19"
     transform="translate(0,-289)" /><g
     id="g21"
     transform="translate(0,-289)" /><g
     id="g23"
     transform="translate(0,-289)" /><g
     id="g25"
     transform="translate(0,-289)" /><g
     id="g27"
     transform="translate(0,-289)" /><g
     id="g29"
     transform="translate(0,-289)" /><g
     id="g31"
     transform="translate(0,-289)" /><g
     id="g33"
     transform="translate(0,-289)" /><g
     id="g35"
     transform="translate(0,-289)" /><g
     id="g37"
     transform="translate(0,-289)" /><g
     id="g39"
     transform="translate(0,-289)" /><g
     id="g41"
     transform="translate(0,-289)" /><g
     id="g43"
     transform="translate(0,-289)" /></svg>