<?xml version="1.0" encoding="UTF-8" standalone="no"?>
<!-- Generator: Adobe Illustrator 16.0.0, SVG Export Plug-In . SVG Version: 6.00 Build 0)  -->

<svg
   xmlns:dc="http://purl.org/dc/elements/1.1/"
   xmlns:cc="http://creativecommons.org/ns#"
   xmlns:rdf="http://www.w3.org/1999/02/22-rdf-syntax-ns#"
   xmlns:svg="http://www.w3.org/2000/svg"
   xmlns="http://www.w3.org/2000/svg"
   xmlns:sodipodi="http://sodipodi.sourceforge.net/DTD/sodipodi-0.dtd"
   xmlns:inkscape="http://www.inkscape.org/namespaces/inkscape"
   version="1.1"
   id="Capa_1"
   x="0px"
   y="0px"
   width="150"
   height="150"
   viewBox="0 0 150 150"
   xml:space="preserve"
   inkscape:version="0.48.4 r9939"
   sodipodi:docname="picture.svg"><metadata
     id="metadata41"><rdf:RDF><cc:Work
         rdf:about=""><dc:format>image/svg+xml</dc:format><dc:type
           rdf:resource="http://purl.org/dc/dcmitype/StillImage" /></cc:Work></rdf:RDF></metadata><defs
     id="defs39" /><sodipodi:namedview
     pagecolor="#ffffff"
     bordercolor="#666666"
     borderopacity="1"
     objecttolerance="10"
     gridtolerance="10"
     guidetolerance="10"
     inkscape:pageopacity="0"
     inkscape:pageshadow="2"
     inkscape:window-width="1631"
     inkscape:window-height="1026"
     id="namedview37"
     showgrid="false"
     inkscape:zoom="2.7514223"
     inkscape:cx="146.44947"
     inkscape:cy="82.329765"
     inkscape:window-x="49"
     inkscape:window-y="24"
     inkscape:window-maximized="1"
     inkscape:current-layer="g3" /><g
     id="g3"
     transform="translate(0,-335.21)"><path
       d="m 140.48137,374.23835 v 89.39607 H 27.805578 V 374.23835 H 140.48137 m 9.38845,-8.93976 H 18.415593 V 472.57477 H 149.86982 V 365.29859 l 0,0 z M 37.195255,445.75462 H 131.09109 L 112.31143,392.11757 84.143013,427.87599 65.364282,409.99678 37.195255,445.75462 z m 9.389056,-53.63705 c -5.189928,0 -9.389056,3.9988 -9.389056,8.94005 0,4.94124 4.199128,8.93916 9.389056,8.93916 5.189928,0 9.389985,-3.99792 9.389985,-8.93916 0,-4.94125 -4.199129,-8.94005 -9.389985,-8.94005 z M -0.36344835,347.41938 V 454.69585 H 9.026537 v -98.3373 H 131.0914 v -8.93917 H -0.36344835 z"
       id="path5"
       style="fill:#999999"
       inkscape:connector-curvature="0" /></g><g
     id="g7"
     transform="translate(0,-335.21)" /><g
     id="g9"
     transform="translate(0,-335.21)" /><g
     id="g11"
     transform="translate(0,-335.21)" /><g
     id="g13"
     transform="translate(0,-335.21)" /><g
     id="g15"
     transform="translate(0,-335.21)" /><g
     id="g17"
     transform="translate(0,-335.21)" /><g
     id="g19"
     transform="translate(0,-335.21)" /><g
     id="g21"
     transform="translate(0,-335.21)" /><g
     id="g23"
     transform="translate(0,-335.21)" /><g
     id="g25"
     transform="translate(0,-335.21)" /><g
     id="g27"
     transform="translate(0,-335.21)" /><g
     id="g29"
     transform="translate(0,-335.21)" /><g
     id="g31"
     transform="translate(0,-335.21)" /><g
     id="g33"
     transform="translate(0,-335.21)" /><g
     id="g35"
     transform="translate(0,-335.21)" /></svg>