<?xml version="1.0" encoding="UTF-8"?>
<svg width="150" height="150" xmlns="http://www.w3.org/2000/svg" xmlns:xlink="http://www.w3.org/1999/xlink">
 <g>
  <title>Layer 1</title>
  <use opacity="0.4" x="5.279575" y="3.119011" transform="matrix(0.961843, 0, 0, 0.961843, -2.21501, 0.169678)" id="svg_123" xlink:href="#svg_122"/>
 </g>
 <defs>
  <svg viewBox="0 0 201.942 201.942" y="0px" x="0px" xmlns:xlink="http://www.w3.org/1999/xlink" id="svg_122">
   <path d="m181.542007,33.229l-31.764008,-31.764c-0.938004,-0.939 -2.210007,-1.465 -3.535995,-1.465h-122.306004c-2.761002,0 -5,2.238 -5,5v57.861c0,2.762001 2.238998,5 5,5h6.936998v14.228996h-6.936998c-2.761002,0 -5,2.238007 -5,5v109.852005c0,2.761993 2.238998,5 5,5h154.069996c2.761002,0 5,-2.238007 5,-5v-160.177002c0,-1.327 -0.526993,-2.598 -1.463989,-3.535999zm-25.248001,72.743v66.966995h-110.645008v-66.966995h110.645008l0,0zm-29.200005,-94.016h16.288994v26.469998h-16.288994v-26.469998l0,0zm-24.027,0h16.289001v26.469998h-16.289001v-26.469998l0,0zm-24.027,0h16.290001v26.469998h-16.290001v-26.469998l0,0zm-24.027,0h16.289001v26.469998h-16.289001v-26.469998l0,0zm-24.027,0h16.289001v26.469998h-16.289001v-26.469998l0,0zm27.172001,114.320001c0,-2.762001 2.238998,-5 5,-5h72.080997c2.761002,0 5,2.237999 5,5s-2.238998,5 -5,5h-72.080997c-2.761002,0 -5,-2.238007 -5,-5zm0,25.666c0,-2.762009 2.238998,-5 5,-5h51.528996c2.761002,0 5,2.237991 5,5s-2.238998,5 -5,5h-51.528996c-2.761002,0 -5,-2.238007 -5,-5z"/>
   <g/>
   <g/>
   <g/>
   <g/>
   <g/>
   <g/>
   <g/>
   <g/>
   <g/>
   <g/>
   <g/>
   <g/>
   <g/>
   <g/>
   <g/>
  </svg>
 </defs>
</svg>