<?xml version="1.0" encoding="UTF-8" standalone="no"?>
<!-- Generator: Adobe Illustrator 18.1.1, SVG Export Plug-In . SVG Version: 6.00 Build 0)  -->

<svg
   xmlns:dc="http://purl.org/dc/elements/1.1/"
   xmlns:cc="http://creativecommons.org/ns#"
   xmlns:rdf="http://www.w3.org/1999/02/22-rdf-syntax-ns#"
   xmlns:svg="http://www.w3.org/2000/svg"
   xmlns="http://www.w3.org/2000/svg"
   xmlns:sodipodi="http://sodipodi.sourceforge.net/DTD/sodipodi-0.dtd"
   xmlns:inkscape="http://www.inkscape.org/namespaces/inkscape"
   version="1.1"
   id="Capa_1"
   x="0px"
   y="0px"
   viewBox="0 0 150 150"
   xml:space="preserve"
   inkscape:version="0.48.4 r9939"
   width="100%"
   height="100%"
   sodipodi:docname="sound.svg"><metadata
     id="metadata45"><rdf:RDF><cc:Work
         rdf:about=""><dc:format>image/svg+xml</dc:format><dc:type
           rdf:resource="http://purl.org/dc/dcmitype/StillImage" /></cc:Work></rdf:RDF></metadata><defs
     id="defs43" /><sodipodi:namedview
     pagecolor="#ffffff"
     bordercolor="#666666"
     borderopacity="1"
     objecttolerance="10"
     gridtolerance="10"
     guidetolerance="10"
     inkscape:pageopacity="0"
     inkscape:pageshadow="2"
     inkscape:window-width="1631"
     inkscape:window-height="1026"
     id="namedview41"
     showgrid="false"
     inkscape:zoom="3.2139343"
     inkscape:cx="-32.36484"
     inkscape:cy="42.262195"
     inkscape:window-x="49"
     inkscape:window-y="24"
     inkscape:window-maximized="1"
     inkscape:current-layer="Capa_1" /><g
     id="g3"
     transform="matrix(0.50741384,0,0,0.50741384,8.3790058,0.96140804)"
     style="fill:#999999"><g
       id="g5"
       style="fill:#999999"><path
         style="fill:#999999"
         d="m 174.13,22.861 c -5.396,7.223 -3.971,20.522 0.713,28.223 l 29.453,48.451 c 4.678,7.702 15.839,15.083 24.731,13.614 19.494,-3.231 36.752,-16.535 44.111,-36.382 C 284.081,47.282 269.053,14.511 239.563,3.574 215.32,-5.427 188.853,3.145 174.13,22.861 z"
         id="path7"
         inkscape:connector-curvature="0" /><path
         style="fill:#999999"
         d="M 134.936,67.63 23.81,163.673 c -6.815,5.896 -8.849,17.095 -4.536,25.003 l 0.348,0.642 c 4.308,7.914 14.446,11.297 22.648,7.56 l 56.996,-25.999 c 8.202,-3.742 14.843,-0.734 14.843,6.723 0,7.457 2.176,13.5 4.868,13.5 2.687,0 4.863,7.305 4.863,16.317 v 69.984 c 0,9.013 3.693,16.317 8.246,16.317 4.553,0 8.246,-7.305 8.246,-16.317 V 207.42 c 0,-9.013 2.513,-16.317 5.619,-16.317 3.1,0 5.613,-7.31 5.613,-16.317 v -11.455 c 0,-9.013 6.647,-19.352 14.849,-23.089 l 10.03,-4.58 c 8.202,-3.742 11.03,-13.005 6.331,-20.69 L 155.791,70.883 C 151.09,63.187 141.751,61.74 134.936,67.63 z"
         id="path9"
         inkscape:connector-curvature="0" /></g></g><g
     id="g11"
     transform="translate(0,-143.721)" /><g
     id="g13"
     transform="translate(0,-143.721)" /><g
     id="g15"
     transform="translate(0,-143.721)" /><g
     id="g17"
     transform="translate(0,-143.721)" /><g
     id="g19"
     transform="translate(0,-143.721)" /><g
     id="g21"
     transform="translate(0,-143.721)" /><g
     id="g23"
     transform="translate(0,-143.721)" /><g
     id="g25"
     transform="translate(0,-143.721)" /><g
     id="g27"
     transform="translate(0,-143.721)" /><g
     id="g29"
     transform="translate(0,-143.721)" /><g
     id="g31"
     transform="translate(0,-143.721)" /><g
     id="g33"
     transform="translate(0,-143.721)" /><g
     id="g35"
     transform="translate(0,-143.721)" /><g
     id="g37"
     transform="translate(0,-143.721)" /><g
     id="g39"
     transform="translate(0,-143.721)" /></svg>