<?xml version="1.0" encoding="UTF-8"?>
<svg width="150" height="150" xmlns="http://www.w3.org/2000/svg" xmlns:xlink="http://www.w3.org/1999/xlink">
 <g>
  <title>Layer 1</title>
  <use opacity="0.4" x="3.644353" y="0.709358" transform="matrix(0.960926, 0, 0, 0.960926, -0.0454113, 2.77256)" id="svg_234" xlink:href="#svg_233"/>
 </g>
 <defs>
  <svg viewBox="0 0 148.908 148.909" height="148.909px" width="148.908px" y="0px" x="0px" xmlns:xlink="http://www.w3.org/1999/xlink" id="svg_233">
   <g>
    <g>
     <path d="m133.421997,24.818001h-6.681c-3.223999,0 -7.105995,2.428999 -8.668999,5.250999l-9.241997,16.133999c-1.863998,3.362 -5.405998,4.893002 -9.251999,4.893002h-52.149002c-3.845001,0 -7.386002,-1.458 -9.25,-4.820999l-9.255001,-16.526001c-1.563999,-2.82 -5.447001,-4.931 -8.67,-4.931h-6.691c-7.789,0 -13.563,6.598999 -13.563,14.382v70.504002c0,7.786995 5.774,14.387001 13.562,14.387001h119.859997c7.785004,0 15.486008,-6.600006 15.486008,-14.387001v-70.504002c0,-7.783001 -7.701004,-14.382 -15.486008,-14.382zm-95.036999,66.333c-5.833,0 -10.576998,-4.746002 -10.576998,-10.579002c0,-5.831001 4.743998,-10.577995 10.576998,-10.577995c5.833,0 10.574001,4.744995 10.574001,10.577995s-4.743999,10.579002 -10.574001,10.579002zm51.544003,-5.920998c0,2.836998 -2.299004,5.136993 -5.137001,5.136993h-23.285c-2.834999,0 -5.137001,-2.299995 -5.137001,-5.136993v-9.800003c0,-2.837997 2.302002,-5.139 5.137001,-5.139h23.285c2.837997,0 5.137001,2.301003 5.137001,5.139v9.800003l0,0zm18.082001,5.920998c-5.833,0 -10.577003,-4.746002 -10.577003,-10.579002c0,-5.831001 4.742004,-10.577995 10.577003,-10.577995c5.827995,0 10.572998,4.744995 10.572998,10.577995s-4.745003,10.579002 -10.572998,10.579002z"/>
     <path d="m44.601002,36.880001c1.564999,2.824001 5.444,5.457001 8.670002,5.457001h40.466995c3.226006,0 7.105003,-2.565002 8.666,-5.387001l3.579002,-6.744999c1.561996,-2.819 0.213997,-5.387001 -3.012001,-5.387001h-58.943001c-3.227001,0 -4.572998,2.427 -3.011002,5.250999l3.584003,6.811001z"/>
    </g>
   </g>
   <g/>
   <g/>
   <g/>
   <g/>
   <g/>
   <g/>
   <g/>
   <g/>
   <g/>
   <g/>
   <g/>
   <g/>
   <g/>
   <g/>
   <g/>
  </svg>
 </defs>
</svg>