<?xml version="1.0" encoding="UTF-8"?>
<svg width="150" height="150" xmlns="http://www.w3.org/2000/svg" xmlns:xlink="http://www.w3.org/1999/xlink">
 <g>
  <title>Layer 1</title>
  <use opacity="0.4" x="2.313923" y="-0.977994" transform="matrix(1.08042, 0, 0, 1.08042, -0.055435, 3.5015)" id="svg_233" xlink:href="#svg_232"/>
 </g>
 <defs>
  <svg viewBox="0 0 134.309 134.31" height="134.31px" width="134.309px" y="0px" x="0px" xmlns:xlink="http://www.w3.org/1999/xlink" id="svg_232">
   <g>
    <g>
     <path d="m96.398003,87.563004c0.132004,0 0.862,0 0.854004,0c-0.30201,0 -0.745003,-0.401001 -0.854004,0" id="path3268"/>
     <path d="m125.025002,85.217003c-1.473,2.869003 -5.889999,5.266998 -9.112,5.266998h-18.730003c-0.135002,0 -0.831001,-1.103996 -0.831001,-1.348999c0,0 0,-0.626999 0,-1.396996c0,-0.097 0.032005,-0.119003 0.046005,-0.176003c0,0 -0.009003,0 -0.014,0c0.035995,-0.290001 0.131996,-0.548004 0.272995,-0.746002c0.127998,-0.062996 0.247002,-0.131996 0.264999,-0.131996c0.205002,0.008995 0.709999,-0.138 0.908005,-0.133003c8.076996,-0.004997 14.808998,-6.619003 14.821999,-14.694c0.033997,0.383003 0.728996,0.754997 0.728996,1.149002c0,-0.396004 0.493004,-0.771004 0.493004,-1.159004c0,-0.003998 0,-0.008995 0,-0.014c0,-8.083996 -7.176003,-14.672997 -15.263,-14.679996c-0.193001,0 -1.202003,-0.012001 -1.412003,-0.004002c-0.014,0.002003 -0.278,0.130001 -0.401001,0.266003c-0.158997,-0.435001 -0.439995,-0.901001 -0.439995,-1.128002v-0.891998c0,-0.248001 0.699997,0.049 0.827995,0.049h18.734001c3.225998,0 7.639999,1.701 9.112999,4.566998c0.898003,1.741001 1.605003,3.668999 2.098999,5.706001c0.536003,2.169998 0.832001,4.470001 0.837006,6.828003c0,0.024994 0.004997,0.045998 0.004997,0.065994c-0.003998,4.606003 -1.087997,8.986 -2.948997,12.606003l0,0zm-34.512001,-1.280006c0,0.388 -0.315002,0.707001 -0.708,0.707001h-48.217999c-0.389999,0 -0.709999,-0.314003 -0.709999,-0.707001v-24.868996c0,-0.389999 0.318001,-0.704998 0.709999,-0.704998h48.217999c0.392998,0 0.709999,0.316998 0.709999,0.704998l-0.001999,24.868996l0,0zm-55.476002,-11.427994c0,3.225998 -0.361,5.989998 -0.943001,6.081001c-0.049,0.012001 -0.098,0.072998 -0.145,0.076996c-0.280998,0.039001 -0.522999,0.138 -0.834999,0.138c-0.003998,0 -0.008999,0 -0.015999,0s-0.011002,0 -0.021,0c-3.817001,0 -6.886002,-3.480995 -6.886002,-7.299995c0,-3.755005 2.980001,-7.169006 6.715,-7.281006c0.066002,0 0.125999,-0.017998 0.194,-0.017998c0.004002,0 0.008999,0 0.017002,0c0.307999,0 0.550999,0.351997 0.831997,0.389999c0.049,0.007004 0.096001,0.165001 0.145,0.174004c0.582001,0.090996 0.943001,3.023994 0.943001,6.249001v1.489998l0,0zm-18.068998,17.973999h-0.699001c-3.223,0 -7.640998,-2.392998 -9.115999,-5.266998c-1.859,-3.616005 -2.94,-8.128006 -2.94,-12.727005c0,-0.041 0.007,-0.074997 0.007,-0.115997c0.019,-4.556 1.09,-8.91 2.934,-12.503998c1.476,-2.868 5.697,-4.868 8.684,-4.868c1.842999,0 2.619,0.550999 2.474,1.569c-0.091,0.627998 -0.530001,1.426998 -1.300001,2.393997c-2.807999,3.518002 -4.487999,7.953999 -4.487999,12.799c0.002,5.518997 2.18,10.970001 5.714001,14.663002c0.837999,0.875999 1.322001,1.663002 1.429001,2.306c0.177998,1.078995 -0.684002,1.750999 -2.699001,1.750999zm79.383997,-2.919998v-0.585999c0,0 0.145996,-0.078003 0.294998,-0.153c-0.139999,0.200996 -0.229996,0.454002 -0.263,0.740997c-0.004997,-0.001999 -0.031998,-0.001999 -0.031998,-0.001999zm1.716003,-23.357002c3.809998,0 6.959,3.489998 6.959,7.296997c0,3.818001 -3.052002,7.302002 -6.862999,7.302002c0,0 0,0 -0.004997,0c-0.210007,0 -0.698006,-0.075996 -0.903,-0.098999c-0.347,-0.033997 -0.905006,-2.766998 -0.905006,-5.987v-1.912003c0,-3.225998 0.575005,-6.215996 0.924004,-6.249001c0.209999,-0.017998 0.565002,-0.351997 0.779999,-0.351997c-0.000999,0 0.008003,0 0.013,0zm36.241005,37.709999v-53.792999c0,-3.223999 -3.362,-7.276001 -6.587997,-7.276001l0,0c3.225998,0 6.587997,-1.712997 6.587997,-3.480999v-3.196003c0,-0.493 -1.179001,-2.083 -1.710999,-2.083h-130.886007c-0.533,0.001003 -1.712,1.589001 -1.712,2.081001c0,0 0,1.43 0,3.195999c0,1.768002 3.363,3.480999 6.589,3.480999h0.002c-3.225,0.002003 -6.591,4.054001 -6.591,7.278004v53.792999c0,0.487999 1.179,0.241997 1.714,0.241997h130.884007c0.533997,0.004005 1.710999,0.246002 1.710999,-0.241997" id="path3270"/>
     <path d="m34.094002,64.931999c-0.049,-0.005997 -0.098,-0.005997 -0.145,-0.013c0.047001,0.003998 0.091,0.003998 0.139999,0.013c0.578003,0.089996 0.948002,2.862 0.948002,6.085999c-0.000004,-3.223999 -0.361004,-5.995995 -0.943001,-6.085999" id="path3272"/>
     <path d="m33.113998,78.671997c0.308998,0 0.551998,-0.028999 0.833,-0.068001c-0.283001,0.041 -0.547001,0.068001 -0.848999,0.068001c0.007,-0.004997 0.012001,0 0.015999,0" id="path3274"/>
     <path d="m11.679,71.769997c0,0.004997 0,0.004997 0,0.004997c0,5.524002 2.597,10.972 6.134,14.662003c0.836,0.874001 1.319,1.661003 1.429001,2.300003c-0.107,-0.639 -0.591002,-1.431 -1.429001,-2.307007c-3.535,-3.688995 -6.134,-9.14299 -6.134,-14.659996" id="path3276"/>
     <path d="m97.274002,57.133999c0.033997,0 0.072998,0 0.109001,-0.001999c-0.036003,0 -0.091003,0.001999 -0.113998,0.001999h0.004997" id="path3278"/>
    </g>
   </g>
   <g/>
   <g/>
   <g/>
   <g/>
   <g/>
   <g/>
   <g/>
   <g/>
   <g/>
   <g/>
   <g/>
   <g/>
   <g/>
   <g/>
   <g/>
  </svg>
 </defs>
</svg>