<?xml version="1.0" encoding="UTF-8" standalone="no"?>
<svg
   xmlns:dc="http://purl.org/dc/elements/1.1/"
   xmlns:cc="http://creativecommons.org/ns#"
   xmlns:rdf="http://www.w3.org/1999/02/22-rdf-syntax-ns#"
   xmlns:svg="http://www.w3.org/2000/svg"
   xmlns="http://www.w3.org/2000/svg"
   xmlns:xlink="http://www.w3.org/1999/xlink"
   xmlns:sodipodi="http://sodipodi.sourceforge.net/DTD/sodipodi-0.dtd"
   xmlns:inkscape="http://www.inkscape.org/namespaces/inkscape"
   width="150"
   height="150"
   id="svg2"
   version="1.1"
   inkscape:version="0.48.4 r9939"
   sodipodi:docname="video_disc.svg">
  <metadata
     id="metadata90">
    <rdf:RDF>
      <cc:Work
         rdf:about="">
        <dc:format>image/svg+xml</dc:format>
        <dc:type
           rdf:resource="http://purl.org/dc/dcmitype/StillImage" />
      </cc:Work>
    </rdf:RDF>
  </metadata>
  <sodipodi:namedview
     pagecolor="#ffffff"
     bordercolor="#666666"
     borderopacity="1"
     objecttolerance="10"
     gridtolerance="10"
     guidetolerance="10"
     inkscape:pageopacity="0"
     inkscape:pageshadow="2"
     inkscape:window-width="640"
     inkscape:window-height="480"
     id="namedview88"
     showgrid="false"
     inkscape:zoom="1.5733333"
     inkscape:cx="74.999998"
     inkscape:cy="74.999998"
     inkscape:window-x="59"
     inkscape:window-y="34"
     inkscape:window-maximized="0"
     inkscape:current-layer="g82" />
  <!-- Created with SVG-edit - http://svg-edit.googlecode.com/ -->
  <defs
     id="defs4">
    <svg
       viewBox="0 0 32.001 32.001"
       y="0px"
       x="0px"
       id="svg_42"
       version="1.1">
      <g
         id="g7">
        <g
           id="g9">
          <path
             fill="#010002"
             d="m16,0c-8.836,0.002 -15.998,7.164 -16,16c0.002,8.837999 7.164,16 16,16.000999c8.837999,-0.001999 16,-7.163 16.000999,-16.000999c-0.001999,-8.836 -7.163,-15.998 -16.000999,-16zm0,29.999001c-7.732,-0.013 -13.985,-6.267 -14,-13.999001c0.015,-7.732 6.268,-13.985 14,-14c7.733999,0.015 13.986,6.268 14,14c-0.014,7.732 -6.268,13.986 -14,13.999001z"
             id="path11" />
          <path
             fill="#010002"
             d="m16,10.001c-3.314,0 -5.999,2.684999 -5.999,5.999c0,3.312 2.684999,6 5.999,6c3.312,0 6,-2.688 6,-6c0,-3.314 -2.688,-5.999 -6,-5.999zm0,9.999999c-2.209,-0.006001 -3.995,-1.792 -3.999,-4.000999c0.004,-2.209001 1.79,-3.995 3.999,-3.999001c2.209,0.004 3.995001,1.79 4.000999,3.999001c-0.005999,2.209 -1.792,3.995001 -4.000999,4.000999z"
             id="path13" />
          <circle
             fill="#010002"
             r="2"
             cy="16.001"
             cx="16.001"
             id="circle15"
             d="m 18.000999,16.000999 c 0,1.10457 -0.89543,2 -2,2 -1.104569,0 -2,-0.89543 -2,-2 0,-1.104569 0.895431,-2 2,-2 1.10457,0 2,0.895431 2,2 z" />
        </g>
      </g>
      <g
         id="g17" />
      <g
         id="g19" />
      <g
         id="g21" />
      <g
         id="g23" />
      <g
         id="g25" />
      <g
         id="g27" />
      <g
         id="g29" />
      <g
         id="g31" />
      <g
         id="g33" />
      <g
         id="g35" />
      <g
         id="g37" />
      <g
         id="g39" />
      <g
         id="g41" />
      <g
         id="g43" />
      <g
         id="g45" />
    </svg>
    <svg
       viewBox="0 0 404.021 404.021"
       height="404.021px"
       width="404.021px"
       y="0px"
       x="0px"
       id="svg_45"
       version="1.1">
      <g
         id="g48">
        <path
           d="m5.738,377.174011h28.069999c3.170002,0 5.739002,-2.569 5.739002,-5.739014v-37.333008h53.683002v37.333008c0,3.170013 2.57,5.739014 5.738998,5.739014h206.083c3.169983,0 5.73999,-2.569 5.73999,-5.739014v-37.333008h53.682007v37.333008c0,3.170013 2.570007,5.739014 5.73999,5.739014h28.070007c3.167999,0 5.735992,-2.569 5.735992,-5.739014v-338.847996c0,-3.170002 -2.567993,-5.739002 -5.735992,-5.739002h-28.070007c-3.169983,0 -5.73999,2.569 -5.73999,5.739002v37.332996h-53.682007v-37.332996c0,-3.170002 -2.570007,-5.739002 -5.73999,-5.739002h-206.083c-3.168999,0 -5.738998,2.569 -5.738998,5.739002v37.332996h-53.683002v-37.332996c0,-3.170002 -2.569,-5.739002 -5.739002,-5.739002h-28.069999c-3.169,0 -5.738,2.569 -5.738,5.739002v338.847996c-0.001,3.169006 2.568,5.739014 5.738,5.739014zm305.054999,-254.98201h53.682007v53.684006h-53.682007v-53.684006l0,0zm0,105.953995h53.682007v53.68399h-53.682007v-53.68399l0,0zm-271.245998,-105.953995h53.683002v53.684006h-53.683002v-53.684006l0,0zm0,105.953995h53.683002v53.68399h-53.683002v-53.68399l0,0z"
           id="path50" />
      </g>
      <g
         id="g52" />
      <g
         id="g54" />
      <g
         id="g56" />
      <g
         id="g58" />
      <g
         id="g60" />
      <g
         id="g62" />
      <g
         id="g64" />
      <g
         id="g66" />
      <g
         id="g68" />
      <g
         id="g70" />
      <g
         id="g72" />
      <g
         id="g74" />
      <g
         id="g76" />
      <g
         id="g78" />
      <g
         id="g80" />
    </svg>
  </defs>
  <g
     id="g82"
     style="fill:#999999">
    <title
       id="title84">Layer 1</title>
    <use
       stroke="#ffffff"
       stroke-width="0.3"
       opacity="0.4"
       fill="#999999"
       x="-1724.243225"
       y="-542.773116"
       transform="matrix(0.773201, 0, 0, 0.773201, 1350.2, 425.815)"
       id="svg_43"
       xlink:href="#svg_42"
       style="fill:#999999" />
    <use
       x="319.942295"
       y="325.808746"
       transform="matrix(0.161118, 0, 0, 0.161118, 25.4218, 29.6831)"
       id="svg_46"
       xlink:href="#svg_45"
       style="fill:#666666" />
  </g>
</svg>
