<?xml version="1.0" encoding="UTF-8"?>
<svg width="150" height="150" xmlns="http://www.w3.org/2000/svg" xmlns:xlink="http://www.w3.org/1999/xlink">
 <g>
  <title>Layer 1</title>
  <use opacity="0.4" x="-372.142851" y="-236.761968" transform="matrix(0.980793, 0, 0, 0.980793, 366.436, 233.655)" id="svg_124" xlink:href="#svg_123"/>
 </g>
 <defs>
  <svg viewBox="0 0 26.525 26.525" y="0px" x="0px" xmlns:xlink="http://www.w3.org/1999/xlink" id="svg_123">
   <g>
    <path fill="#010002" d="m20.007,5.211v5.314c0.912001,0.572001 1.521,1.578 1.521,2.735001c0,1.156 -0.608,2.164 -1.521,2.735v5.318c3.724001,-0.791 6.518,-4.094 6.518,-8.052c0,-3.957 -2.793999,-7.261 -6.518,-8.05zm1.861,8.743001c0.136,-0.351001 0.062,-0.693001 0.062,-0.693001l3.834,-1.035c0,0 0.617001,1.371 -0.246,3.516l-3.65,-1.787999zm-0.878,-0.693001c0,0.836 -0.386999,1.572001 -0.982,2.067v-4.133c0.594,0.495 0.982,1.233001 0.982,2.066zm-20.99,9.614h19.225v-19.225h-19.225v19.225l0,0zm5.217,-6.055c0.479,-0.115999 0.941,-0.093 1.333,0.042v-8.960999l7.451,-1.207v10.102c0,0.835001 -0.623,1.502001 -1.597,1.747c-1.067,0.266001 -2.098001,-0.181999 -2.304,-1c-0.203,-0.821999 0.495,-1.698999 1.563,-1.966c0.481,-0.120999 0.956,-0.098 1.354,0.045v-6.084l-5.458,0.999l-0.025,7.569001h-0.002c-0.006,0.716 -0.652,1.417999 -1.581,1.648998c-1.055,0.268002 -2.162,-0.237 -2.278,-0.987999c-0.204,-0.811001 0.488,-1.681 1.544,-1.947001z"/>
   </g>
   <g/>
   <g/>
   <g/>
   <g/>
   <g/>
   <g/>
   <g/>
   <g/>
   <g/>
   <g/>
   <g/>
   <g/>
   <g/>
   <g/>
   <g/>
  </svg>
 </defs>
</svg>